<?xml version="1.0" encoding="UTF-8" standalone="no"?> <svg width="64" height="64" viewBox="0 0 64 64" fill="none" xmlns="http://www.w3.org/2000/svg">
<path d="M53.88 13.3899C47.52 6.9099 37.39 8.5099 32 15.3899C23.55 4.3899 6.31999 9.1899 5.99999 23.3199C5.98927 25.1767 6.34801 27.017 7.05534 28.7338C7.76266 30.4506 8.80442 32.0096 10.12 33.3199L31.29 54.4399C31.383 54.5336 31.4936 54.608 31.6154 54.6588C31.7373 54.7096 31.868 54.7357 32 54.7357C32.132 54.7357 32.2627 54.7096 32.3846 54.6588C32.5064 54.608 32.617 54.5336 32.71 54.4399L51.17 35.9999C58.49 30.0999 60.79 20.5899 53.88 13.3899Z" fill="url(#paint0_linear)"/>
<defs>
<linearGradient id="paint0_linear" x1="5.99999" y1="32.0099" x2="58.02" y2="32.0099" gradientUnits="userSpaceOnUse">
<stop stop-color="#FF8DBD"/>
<stop offset="0.32" stop-color="#FF5FA1"/>
<stop offset="0.78" stop-color="#FF227B"/>
<stop offset="1" stop-color="#FF0A6C"/>
</linearGradient>
</defs>
</svg>
