<?xml version="1.0" encoding="utf-8"?><!-- Uploaded to: SVG Repo, www.svgrepo.com, Generator: SVG Repo Mixer Tools -->
<svg fill="#000000" width="800px" height="800px" viewBox="0 0 24 24" id="4k-2" data-name="Flat Color" xmlns="http://www.w3.org/2000/svg" class="icon flat-color"><path id="primary" d="M21.85,18.47a1,1,0,0,1-.32,1.38A1,1,0,0,1,21,20a1,1,0,0,1-.85-.47L16.09,13,15,14.34V19a1,1,0,0,1-2,0V5a1,1,0,0,1,2,0v6.09l5.21-6.7a1,1,0,1,1,1.58,1.22L17.4,11.26ZM11,5V19a1,1,0,0,1-2,0V15H3a1,1,0,0,1-.9-.56,1,1,0,0,1,.11-1l7-9A1,1,0,0,1,11,5ZM9,7.91,5,13H9Z" style="fill: rgb(0, 0, 0);"></path></svg>