<?xml version="1.0" encoding="iso-8859-1"?>
<!-- Uploaded to: SVG Repo, www.svgrepo.com, Generator: SVG Repo Mixer Tools -->
<svg version="1.1" id="Layer_1" xmlns="http://www.w3.org/2000/svg" xmlns:xlink="http://www.w3.org/1999/xlink" 
	 viewBox="0 0 496.2 496.2" xml:space="preserve">
<path style="fill:#334D5C;" d="M248.1,0C111.1,0,0,111.1,0,248.1s111.1,248.1,248.1,248.1s248.1-111.1,248.1-248.1S385.1,0,248.1,0z
	"/>
<path style="fill:#F2EEEB;" d="M375.9,103H120.3c-30.8,0-55.7,24.9-55.7,55.7v256.4c45.4,49.8,110.8,81.1,183.5,81.1
	s138.1-31.3,183.5-81.1V158.7C431.6,127.9,406.6,103,375.9,103z"/>
<g>
	<path style="fill:#3A1D12;" d="M167.7,108.1c-21.5,15-19.6,78-19.6,78c-10,18-10.1,51.3-5.8,87.9c0,0-16.2,29.1-0.5,69.2
		c15.8,40.1,35.5,90,35.5,90s32.1-1.6,70.8-1.6v-284L167.7,108.1z"/>
	<path style="fill:#3A1D12;" d="M353.2,275.1c4.4-36.8,4.6-70.6-4.9-89c-0.9-1.7,1.5-66-19.8-78l-80.2,39.5v284
		c38.7,0,70.8,1.6,70.8,1.6s22.8-54.9,35.4-91S353.2,275.1,353.2,275.1z"/>
</g>
<path style="fill:#FFFFFF;" d="M247.7,333.4c-75,0-177.6,15.5-215.8,36.5c42.6,75.4,123.5,126.3,216.2,126.3S421.7,445.3,464.2,370
	C425.9,348.9,322.8,333.4,247.7,333.4z"/>
<g>
	<path style="fill:#D9DADB;" d="M197.2,412.2c-2.2,0-3.9,1.8-3.9,3.9v74c2.6,0.6,5.2,1.1,7.9,1.6v-75.6
		C201.1,413.9,199.4,412.2,197.2,412.2z"/>
	<path style="fill:#D9DADB;" d="M217.6,412.2c-2.2,0-3.9,1.8-3.9,3.9v77.7c2.6,0.4,5.2,0.7,7.9,1v-78.7
		C221.5,413.9,219.7,412.2,217.6,412.2z"/>
	<path style="fill:#D9DADB;" d="M237.9,412.2c-2.2,0-3.9,1.8-3.9,3.9v79.7c2.6,0.1,5.2,0.3,7.9,0.3v-80
		C241.9,413.9,240.1,412.2,237.9,412.2z"/>
	<path style="fill:#D9DADB;" d="M258.3,412.2c-2.2,0-3.9,1.8-3.9,3.9v80c2.6-0.1,5.3-0.2,7.9-0.3v-79.7
		C262.2,413.9,260.5,412.2,258.3,412.2z"/>
	<path style="fill:#D9DADB;" d="M278.6,412.2c-2.2,0-3.9,1.8-3.9,3.9v78.7c2.6-0.3,5.3-0.6,7.9-1v-77.7
		C282.6,413.9,280.8,412.2,278.6,412.2z"/>
	<path style="fill:#D9DADB;" d="M299,412.2c-2.2,0-3.9,1.8-3.9,3.9v75.6c2.6-0.5,5.3-1.1,7.9-1.6v-74
		C302.9,413.9,301.2,412.2,299,412.2z"/>
</g>
<circle style="fill:#BFC0C1;" cx="342.4" cy="440.4" r="27"/>
<circle style="fill:#FFFFFF;" cx="342.4" cy="440.4" r="22.8"/>
<path style="fill:#AF1010;" d="M342.4,427.9c-0.7,0-1.4,0.6-1.4,1.4v11.2c0,0.7,0.6,1.4,1.4,1.4s1.4-0.6,1.4-1.4v-11.2
	C343.7,428.5,343.1,427.9,342.4,427.9z"/>
<path style="fill:#3366A3;" d="M352.6,449.4l-9.6-9.6c-0.4-0.4-0.9-0.4-1.3,0s-0.4,0.9,0,1.3l9.6,9.6c0.2,0.2,0.4,0.3,0.6,0.3
	s0.5-0.1,0.6-0.3C353,450.3,353,449.7,352.6,449.4z"/>
<path style="fill:#30A018;" d="M342.7,440.1c-0.2-0.2-0.5-0.2-0.6,0L328,452.7c-0.2,0.2-0.2,0.5,0,0.6c0.1,0.1,0.2,0.2,0.3,0.2
	c0.1,0,0.2,0,0.3-0.1l14.1-12.6C342.9,440.6,342.9,440.3,342.7,440.1z"/>
<path style="fill:#9F9FA0;" d="M342.4,436.6c-2.1,0-3.8,1.7-3.8,3.8s1.7,3.8,3.8,3.8c2.1,0,3.8-1.7,3.8-3.8S344.5,436.6,342.4,436.6
	z"/>
<path style="fill:#C9B81F;" d="M132.8,342.7c-6.4,1-12.7,2-18.8,3.2c0.8,2.3,1.2,4.7,1.2,7.2c0,12.5-10.2,22.7-22.7,22.7
	c-11.6,0-21.2-8.8-22.5-20.1c-6.4,1.8-12.5,3.6-17.9,5.6l6.4,29.5l81-17.5L132.8,342.7z"/>
<path style="fill:#3366A3;" d="M108.6,346.9c-11.9,2.3-23.1,4.7-33.4,7.4c0.6,9,8.1,16.1,17.3,16.1c9.6,0,17.3-7.8,17.3-17.3
	C109.8,350.9,109.3,348.8,108.6,346.9z"/>
<path style="fill:#FFFFFF;" d="M113.9,345.9c-1.8,0.3-3.6,0.7-5.3,1c0.8,1.9,1.2,4,1.2,6.2c0,9.6-7.8,17.3-17.3,17.3
	c-9.2,0-16.7-7.1-17.3-16.1c-1.8,0.5-3.5,0.9-5.2,1.4c1.3,11.3,10.9,20.1,22.5,20.1c12.5,0,22.7-10.1,22.7-22.7
	C115.1,350.6,114.7,348.1,113.9,345.9z"/>
<path style="fill:#3366A3;" d="M363.4,342.8l-6.6,30.5l81,17.5l6.4-29.5C423.1,353.9,394.5,347.6,363.4,342.8z"/>
<path style="fill:#AF1010;" d="M363.4,342.8l-3.1,14.6l81,17.5l2.9-13.5C423.1,353.9,394.5,347.6,363.4,342.8z"/>
<rect x="391.49" y="355.044" transform="matrix(-0.2064 0.9785 -0.9785 -0.2064 841.4594 49.907)" style="fill:#FFFFFF;" width="18.001" height="22.301"/>
<polygon style="fill:#C9B81F;" points="403.3,364.5 402,359.5 398.8,363.6 393.6,363.3 396.6,367.6 394.7,372.5 399.7,371 
	403.7,374.3 403.9,369.1 408.2,366.2 "/>
<path style="fill:#DBDBDB;" d="M248.1,300.2c-55.4,0-100.4,9-100.4,20.1c0,1.3,0,21.7,0,23c0,11.1,44.9,20.1,100.4,20.1
	c55.4,0,100.3-9,100.3-20.1c0-1.3,0-21.7,0-23C348.4,309.2,303.5,300.2,248.1,300.2z"/>
<path style="fill:#FFFFFF;" d="M248.1,300.2c-55.4,0-100.4,9-100.4,20.1s44.9,20.1,100.4,20.1c55.4,0,100.3-9,100.3-20.1
	S303.5,300.2,248.1,300.2z"/>
<path style="fill:#2A3F49;" d="M248.1,303.8c-46.9,0-85,7.4-85,16.5s38.1,16.5,85,16.5s85-7.4,85-16.5S295,303.8,248.1,303.8z"/>
<g>
	<path style="fill:#E2A379;" d="M209.2,282.1c2.9,8.8,4.5,16.5,5.2,23.1c10.3-0.9,21.7-1.4,33.7-1.4s23.4,0.5,33.7,1.4
		c0.7-6.6,2.3-14.2,5.2-23.1H209.2z"/>
	<path style="fill:#E2A379;" d="M281.8,305.2c-10.3-0.9-21.7-1.4-33.7-1.4s-23.4,0.5-33.7,1.4c2,18.5-3,28.2-4,29.9
		c11.4,1.1,24.2,1.7,37.7,1.7c13.6,0,26.4-0.6,37.7-1.7C284.8,333.4,279.8,323.7,281.8,305.2z"/>
</g>
<g>
	<path style="fill:#F4B382;" d="M248.1,61.6c-44,0-79.8,21.2-79.8,113.6c0,31.3,5.6,55.8,14,74.7c18.4,41.6,50.3,56.1,65.8,56.1
		c15.4,0,47.3-14.5,65.8-56.1c8.4-18.9,14-43.4,14-74.7C327.9,82.8,292.1,61.6,248.1,61.6z"/>
	<path style="fill:#F4B382;" d="M169.8,178c-7.6,1.3-13.4,4.6-9.1,29.7c4.3,25.2,9.6,26.3,17.3,25L169.8,178z"/>
	<path style="fill:#F4B382;" d="M326.5,178l-8.1,54.8c7.6,1.3,13,0.1,17.3-25C339.9,182.6,334.1,179.3,326.5,178z"/>
</g>
<g>
	<path style="fill:#3A1D12;" d="M248.1,61.6c-62.9,0-90.7,25.1-90.7,117.5l17.4-7.8c0,0,24.3-47.2,73.3-52.3l73.3,52.3l17.4,7.8
		C338.8,86.7,311,61.6,248.1,61.6z"/>
	<path style="fill:#3A1D12;" d="M248.1,119l-53.7-5.7c-90.7,91.1-35.2,179.2-17.4,207.9c35.8,57.7-3.6,77.7-3.6,77.7l1.9-1
		c0,0,69.8-13.5,43.7-76.2C205.9,290.6,144,194.4,248.1,119z"/>
</g>
<path style="fill:#CC785E;" d="M258.5,257.8c-3-0.4-10.4,2.5-10.4,2.5s-7.6-2.9-10.6-2.5c-4.8,0.7-16.1,4.6-16.1,6
	c0,0,14.2,9.6,26.7,9.6c12.5,0,26.7-9.6,26.7-9.6S263.4,258.5,258.5,257.8z"/>
<path style="fill:#C16952;" d="M254.2,264.4c-2-0.1-4.5,1.7-6.1,1.7c-1.9,0-4.8-1.8-7-1.6c-13.1,0.8-19.6-0.7-19.6-0.7
	s14.2,13.5,26.7,13.5c12.5,0,26.7-13.5,26.7-13.5S267.9,265.2,254.2,264.4z"/>
<g>
	<path style="fill:#3A1D12;" d="M174.8,183.1c-0.4-2.7-0.5-5.2-0.4-7.1c0.1-2.9,0.5-4.7,0.5-4.7l-9.4,3.5c0,1.4,0,2.9,0,4.3
		c0,0,1-0.3,2.8-0.9c-0.1,0-0.2,0.1-0.3,0.1c1.3,2.2,2.9,5.6,4.5,10.5C172.4,188.8,176.1,191.5,174.8,183.1z"/>
	<path style="fill:#3A1D12;" d="M330.7,174.8l-9.3-3.5c0,0,0.4,1.8,0.5,4.7c0.1,2,0,4.4-0.4,7.1c-1.3,8.4,2.3,5.7,2.3,5.7
		c1.5-5,3.2-8.3,4.4-10.5c1.6,0.6,2.5,0.8,2.5,0.8C330.8,177.6,330.8,176.2,330.7,174.8z"/>
</g>
</svg>