<?xml version="1.0" encoding="utf-8"?>
<!-- Uploaded to: SVG Repo, www.svgrepo.com, Generator: SVG Repo Mixer Tools -->
<svg width="800px" height="800px" viewBox="0 0 1024 1024" class="icon"  version="1.1" xmlns="http://www.w3.org/2000/svg"><path d="M783.512972 516.987169c13.043364-3.324779 26.69414-5.083076 40.760513-5.083076 91.047797 0 164.896257 73.81649 164.896257 164.896257s-73.848459 164.896257-164.896257 164.896256c-91.079766 0-164.896257-73.81649-164.896257-164.896256 0-77.013393 52.780869-141.686741 124.135744-159.813181z" fill="#FF4893" /><path d="M365.837595 676.80035h-164.896257l60.101776-153.57922c61.348569 24.008742 104.79448 83.72689 104.794481 153.57922z" fill="#5FCEFF" /><path d="M200.941338 676.80035h164.896257c0 91.079766-73.848459 164.896257-164.896257 164.896256s-164.896257-73.81649-164.896257-164.896256 73.848459-164.896257 164.896257-164.896257c21.195467 0 41.495801 3.996129 60.101776 11.317037l-60.101776 153.57922z" fill="#5FCEFF" /><path d="M200.941338 864.074927c-103.263164 0-187.274578-84.011414-187.274578-187.274577s84.011414-187.274578 187.274578-187.274578c23.615522 0 46.591664 4.328607 68.295439 12.870731 72.262795 28.279804 118.979139 96.741482 118.979139 174.403847 0 103.263164-84.011414 187.274578-187.274578 187.274577z m0-329.789316c-78.58627 0-142.517936 63.931666-142.517936 142.514739s63.934863 142.517936 142.517936 142.517935 142.517936-63.934863 142.517936-142.517935c0-59.104343-35.552758-111.207468-90.571459-132.73861-16.499216-6.496107-33.963897-9.776129-51.946477-9.776129zM824.273485 864.074927c-103.263164 0-187.274578-84.011414-187.274578-187.274577 0-85.772907 57.98223-160.411002 141.002604-181.504168a187.511149 187.511149 0 0 1 46.271974-5.77041c103.263164 0 187.274578 84.011414 187.274578 187.274578s-84.014611 187.274578-187.274578 187.274577z m0-329.789316c-11.956417 0-23.810534 1.473772-35.233068 4.386151-63.177197 16.05165-107.288065 72.851026-107.288065 138.128588 0 78.583073 63.934863 142.517936 142.517936 142.517935s142.517936-63.934863 142.517936-142.517935-63.931666-142.514739-142.514739-142.514739z" fill="#4F46A3" /><path d="M533.770909 699.178671H200.941338a22.378321 22.378321 0 0 1-20.840611-30.533621l121.034748-309.210852a22.378321 22.378321 0 0 1 20.837414-14.216628h389.926259a22.378321 22.378321 0 0 1 19.392413 33.548301l-178.134632 309.204458a22.375124 22.375124 0 0 1-19.38602 11.208342z m-300.038937-44.756642h287.104268l152.348412-264.447817H337.244494l-103.512522 264.447817z" fill="#4F46A3" /><path d="M533.786894 699.181868a22.346352 22.346352 0 0 1-18.123243-9.229459L226.861828 292.484655a22.378321 22.378321 0 0 1 36.204926-26.313708l288.808217 397.474147a22.378321 22.378321 0 0 1-4.952003 31.25612 22.272823 22.272823 0 0 1-13.136074 4.280654zM824.257501 699.185064a22.384715 22.384715 0 0 1-21.668609-16.854072l-124.484206-488.294964a22.378321 22.378321 0 0 1 16.160345-27.212039c11.946827-3.059436 24.158996 4.178352 27.212038 16.157148l124.484206 488.291767a22.384715 22.384715 0 0 1-21.703774 27.91216z" fill="#4F46A3" /><path d="M326.515688 301.707721h-163.393712a22.378321 22.378321 0 1 1 0-44.756642h163.393712a22.378321 22.378321 0 1 1 0 44.756642zM776.99129 210.883706h-163.425682a22.378321 22.378321 0 1 1 0-44.756642h163.425682a22.378321 22.378321 0 1 1 0 44.756642z" fill="#4F46A3" /></svg>