<?xml version="1.0" encoding="iso-8859-1"?>
<!-- Uploaded to: SVG Repo, www.svgrepo.com, Generator: SVG Repo Mixer Tools -->
<svg height="800px" width="800px" version="1.1" id="Layer_1" xmlns="http://www.w3.org/2000/svg" xmlns:xlink="http://www.w3.org/1999/xlink" 
	 viewBox="0 0 512 512" xml:space="preserve">
<g transform="translate(0 -1)">
	<g>
		<polygon style="fill:#464F5D;" points="59.733,175.933 59.733,175.933 59.733,389.267 93.867,389.267 93.867,175.933 		"/>
		<path style="fill:#464F5D;" d="M247.467,363.667c-23.526,0-42.667,19.14-42.667,42.667S223.94,449,247.467,449
			s42.667-19.14,42.667-42.667S270.993,363.667,247.467,363.667 M247.467,466.067c-32.939,0-59.733-26.803-59.733-59.733
			s26.795-59.733,59.733-59.733s59.733,26.803,59.733,59.733S280.405,466.067,247.467,466.067"/>
		<path style="fill:#464F5D;" d="M435.2,363.667c-23.526,0-42.667,19.14-42.667,42.667S411.674,449,435.2,449
			s42.667-19.14,42.667-42.667S458.726,363.667,435.2,363.667 M435.2,466.067c-32.939,0-59.733-26.803-59.733-59.733
			S402.261,346.6,435.2,346.6s59.733,26.803,59.733,59.733S468.139,466.067,435.2,466.067"/>
		<path style="fill:#464F5D;" d="M247.458,414.867c-1.382,0-2.782-0.333-4.079-1.041c-4.139-2.261-5.666-7.441-3.405-11.58
			l51.2-93.867c2.261-4.13,7.433-5.666,11.58-3.405c4.139,2.261,5.666,7.441,3.405,11.58l-51.2,93.867
			C253.406,413.262,250.479,414.867,247.458,414.867"/>
		<path style="fill:#464F5D;" d="M341.333,414.867h-93.867c-4.71,0-8.533-3.814-8.533-8.533c0-4.719,3.823-8.533,8.533-8.533h93.867
			c4.71,0,8.533,3.814,8.533,8.533C349.867,411.052,346.044,414.867,341.333,414.867"/>
		<path style="fill:#464F5D;" d="M341.338,414.867c-3.243,0-6.34-1.86-7.774-5.001l-42.667-93.867
			c-1.946-4.292-0.051-9.353,4.241-11.298c4.258-1.98,9.335-0.06,11.298,4.233l42.667,93.867c1.946,4.292,0.051,9.353-4.241,11.298
			C343.718,414.628,342.524,414.867,341.338,414.867"/>
		<path style="fill:#464F5D;" d="M435.2,414.867c-3.49,0-6.758-2.15-8.021-5.615l-34.133-93.867
			c-1.604-4.437,0.674-9.327,5.103-10.931c4.42-1.604,9.318,0.666,10.94,5.094l34.133,93.867c1.604,4.437-0.674,9.327-5.103,10.931
			C437.154,414.696,436.173,414.867,435.2,414.867"/>
		<path style="fill:#464F5D;" d="M401.067,321h-102.4c-4.71,0-8.533-3.814-8.533-8.533c0-4.719,3.823-8.533,8.533-8.533h102.4
			c4.71,0,8.533,3.814,8.533,8.533C409.6,317.186,405.777,321,401.067,321"/>
		<path style="fill:#464F5D;" d="M401.067,321c-4.71,0-8.533-3.814-8.533-8.533c0-18.825-15.309-34.133-34.133-34.133
			c-4.71,0-8.533-3.814-8.533-8.533s3.823-8.533,8.533-8.533c28.237,0,51.2,22.963,51.2,51.2C409.6,317.186,405.777,321,401.067,321
			"/>
		<path style="fill:#464F5D;" d="M298.675,321c-2.756,0-5.461-1.331-7.108-3.797l-17.067-25.6
			c-2.611-3.925-1.553-9.216,2.364-11.836c3.925-2.62,9.216-1.562,11.836,2.364l17.067,25.6c2.611,3.925,1.553,9.216-2.364,11.836
			C301.943,320.531,300.297,321,298.675,321"/>
		<path style="fill:#464F5D;" d="M307.2,295.4h-42.667c-4.71,0-8.533-3.814-8.533-8.533c0-4.719,3.823-8.533,8.533-8.533H307.2
			c4.71,0,8.533,3.814,8.533,8.533C315.733,291.586,311.91,295.4,307.2,295.4"/>
		<path style="fill:#464F5D;" d="M341.325,414.867c-1.57,0-3.157-0.435-4.574-1.331c-3.977-2.534-5.146-7.808-2.62-11.785
			l59.733-93.867c2.534-3.968,7.808-5.137,11.785-2.62c3.977,2.534,5.146,7.808,2.62,11.785l-59.733,93.867
			C346.906,413.467,344.149,414.867,341.325,414.867"/>
		<path style="fill:#464F5D;" d="M341.333,414.867h-93.867c-4.71,0-8.533-3.814-8.533-8.533c0-4.719,3.823-8.533,8.533-8.533h89.182
			l57.216-89.916c2.534-3.968,7.808-5.137,11.785-2.62c3.977,2.534,5.146,7.808,2.62,11.785l-59.733,93.867
			C346.965,413.373,344.252,414.867,341.333,414.867"/>
	</g>
	<path style="fill:#4482C3;" d="M128.365,175.933H25.231c-9.225,0-16.7-7.475-16.7-16.7V64.633c0-9.225,7.475-16.7,16.7-16.7
		h103.134c9.225,0,16.7,7.475,16.7,16.7v94.601C145.065,168.458,137.59,175.933,128.365,175.933"/>
	<g>
		<path style="fill:#FFFFFF;" d="M59.733,150.333c-4.71,0-8.533-3.814-8.533-8.533V82.067c0-4.719,3.823-8.533,8.533-8.533
			s8.533,3.814,8.533,8.533V141.8C68.267,146.519,64.444,150.333,59.733,150.333"/>
		<path style="fill:#FFFFFF;" d="M68.267,107.667H76.8c4.702,0,8.533-3.823,8.533-8.533c0-4.71-3.831-8.533-8.533-8.533h-8.533
			V107.667z M76.8,124.733H59.733c-4.71,0-8.533-3.814-8.533-8.533V82.067c0-4.719,3.823-8.533,8.533-8.533H76.8
			c14.114,0,25.6,11.486,25.6,25.6S90.914,124.733,76.8,124.733L76.8,124.733z"/>
	</g>
	<path style="fill:#464F5D;" d="M136.533,457.533H17.067v-29.065c0-2.799,2.27-5.069,5.069-5.069h109.329
		c2.799,0,5.069,2.27,5.069,5.069V457.533z"/>
	<path style="fill:#2F3744;" d="M119.467,423.4H34.133v-29.065c0-2.799,2.27-5.069,5.069-5.069h75.196
		c2.799,0,5.069,2.27,5.069,5.069V423.4z"/>
	<path style="fill:#95A5A5;" d="M503.467,466.067H8.533c-4.71,0-8.533-3.814-8.533-8.533C0,452.814,3.823,449,8.533,449h494.933
		c4.71,0,8.533,3.814,8.533,8.533C512,462.252,508.177,466.067,503.467,466.067"/>
</g>
</svg>