<?xml version="1.0" encoding="iso-8859-1"?>
<!-- Uploaded to: SVG Repo, www.svgrepo.com, Generator: SVG Repo Mixer Tools -->
<svg height="800px" width="800px" version="1.1" id="Layer_1" xmlns="http://www.w3.org/2000/svg" xmlns:xlink="http://www.w3.org/1999/xlink" 
	 viewBox="0 0 512 512" xml:space="preserve">
<g>
	<path style="fill:#B12621;" d="M445.793,512H101.517c-19.421,0-35.31-15.89-35.31-35.31v-8.828c0-19.421,15.89-35.31,35.31-35.31
		h344.276V512z"/>
	<path style="fill:#DD342E;" d="M392.828,17.655C392.828,9.251,386.887,0,378.624,0L79.501,61.678
		c-7.724,1.527-13.294,8.307-13.294,16.19v389.994c0-19.421,15.89-35.31,35.31-35.31l278.978-42.266
		c7.089-1.077,12.332-7.177,12.332-14.345V17.655z"/>
	<path style="fill:#B12621;" d="M348.693,163.242l-233.869,48.384c-6.868,1.421-13.303-3.822-13.303-10.831v-83.332
		c0-5.244,3.681-9.772,8.819-10.84l233.869-48.384c6.868-1.421,13.312,3.822,13.312,10.84v83.324
		C357.521,157.655,353.831,162.183,348.693,163.242"/>
	<g>
		<path style="fill:#EDEBDA;" d="M66.207,485.517c0-2.039,0.106-3.981,0.3-5.853l0,0C66.313,481.536,66.207,483.478,66.207,485.517"
			/>
		<path style="fill:#EDEBDA;" d="M392.828,52.966V375.94c0,7.168-5.244,13.268-12.332,14.345l-278.978,42.266h344.276V52.966
			H392.828z"/>
	</g>
</g>
</svg>