<?xml version="1.0" encoding="iso-8859-1"?>
<!-- Uploaded to: SVG Repo, www.svgrepo.com, Generator: SVG Repo Mixer Tools -->
<svg version="1.1" id="Layer_1" xmlns="http://www.w3.org/2000/svg" xmlns:xlink="http://www.w3.org/1999/xlink" 
	 viewBox="0 0 512 512" xml:space="preserve">
<path style="fill:#E6563A;" d="M461.988,40.453v431.094c0,22.309-18.144,40.453-40.453,40.453H90.465
	c-22.309,0-40.453-18.144-40.453-40.453V40.453C50.012,18.159,68.156,0,90.465,0h331.07C443.844,0,461.988,18.159,461.988,40.453z"
	/>
<path style="fill:#D9472B;" d="M461.988,40.453v431.094c0,22.309-18.144,40.453-40.453,40.453H256.007V0h165.528
	C443.844,0,461.988,18.159,461.988,40.453z"/>
<path style="fill:#F37B2A;" d="M390.851,0v161.632c0,10.698-5.873,20.466-15.312,25.5c-4.27,2.277-8.93,3.401-13.574,3.401
	c-2.817,0-5.633-0.42-8.36-1.244c-2.712-0.824-5.334-2.053-7.761-3.686l-31.179-20.991l-0.015,0.015l-31.164,20.976
	c-8.885,5.963-20.256,6.547-29.71,1.528c-9.439-5.034-15.312-14.803-15.312-25.5V0H390.851z"/>
<path style="fill:#E56722;" d="M390.851,0v161.632c0,10.698-5.873,20.466-15.312,25.5c-4.27,2.277-8.93,3.401-13.574,3.401
	c-2.817,0-5.633-0.42-8.36-1.244c-2.712-0.824-5.334-2.053-7.761-3.686l-31.179-20.991l-0.015,0.015V0H390.851z"/>
<rect x="50.012" y="303.053" style="fill:#F37B2A;" width="411.976" height="44.948"/>
<rect x="256.007" y="303.053" style="fill:#E56722;" width="205.981" height="44.948"/>
</svg>