<?xml version="1.0" ?><!-- Uploaded to: SVG Repo, www.svgrepo.com, Generator: SVG Repo Mixer Tools -->
<svg width="800px" height="800px" viewBox="0 0 60 60" xmlns="http://www.w3.org/2000/svg"><defs><style>
      .cls-1 {
        fill: #699f4c;
        fill-rule: evenodd;
      }
    </style></defs><path class="cls-1" d="M100,210.023c-16.568,0-30,11-30,24.566,0,7.237,3.824,13.741,9.906,18.236a2.958,2.958,0,0,1,1.059,1.948,20.612,20.612,0,0,1-.531,6.341c-1.311,5.109-2.427,5.557-2.434,6.909,0.016,2.252,2.19,2,2.5,2,5.055,0.04,12.383-9.58,13.3-10.49a5.008,5.008,0,0,1,.847-0.546c0.983-.37,4.2.164,5.358,0.166,16.568,0,30-11,30-24.564S116.568,210.023,100,210.023Z" id="comment" transform="translate(-70 -210.031)"/></svg>