<svg xmlns="http://www.w3.org/2000/svg" width="400" height="400" id="bushes"><path fill="#0E538C" d="M8.751 226.164c0 30.248 25.36 54.998 55.611 54.998h202.275c30.433 0 54.999-24.566 54.999-54.998 0-30.434-24.566-55-54.999-55 0-30.25-25.36-55-55.61-55-12.1 0-23.467 3.85-33 11-3.666-4.951-8.066-9.35-12.833-13.199-12.65-10.268-28.783-16.133-45.833-16.133-40.517 0-73.333 32.814-73.333 73.332v3.115c-21.632 7.518-37.277 28.235-37.277 51.885z"></path><circle cx="148.683" cy="167.807" r="13.887" fill="#FFBE55"></circle><linearGradient id="a" x1="240.064" x2="240.064" y1="199.522" y2="227.295" gradientUnits="userSpaceOnUse"><stop offset=".284" stop-color="#ff4238"></stop><stop offset="1" stop-color="#c1272d"></stop></linearGradient><circle cx="240.064" cy="213.408" r="13.887" fill="url(#a)"></circle><circle cx="85.945" cy="227.297" r="13.887" fill="#FFBE55"></circle><path fill="#2A94F4" d="M361.793 217.713v-2.463c0-32.014-25.93-57.943-57.945-57.943-13.472 0-26.22 4.635-36.216 12.748-3.766 3.041-7.243 6.518-10.141 10.43-7.532-5.65-16.514-8.691-26.075-8.691-23.902 0-43.941 19.555-43.941 43.457-24.047 0-43.459 19.412-43.459 43.461 0 24.047 19.412 43.457 43.459 43.457h159.832c23.903 0 43.942-19.557 43.942-43.457 0-18.689-12.361-35.06-29.456-40.999z"></path><circle cx="280.678" cy="212.6" r="10.973" fill="#FFBE55"></circle><circle cx="208.472" cy="248.631" r="10.973" fill="#FFBE55"></circle><circle cx="330.253" cy="259.605" r="10.974" fill="#FFBE55"></circle></svg>