<?xml version="1.0" ?>
<!DOCTYPE svg  PUBLIC '-//W3C//DTD SVG 1.1//EN'  'http://www.w3.org/Graphics/SVG/1.1/DTD/svg11.dtd'>
<!-- Uploaded to: SVG Repo, www.svgrepo.com, Generator: SVG Repo Mixer Tools -->
<svg fill="#000000" width="800px" height="800px" viewBox="0 0 32 32" style="fill-rule:evenodd;clip-rule:evenodd;stroke-linejoin:round;stroke-miterlimit:2;" version="1.1" xml:space="preserve" xmlns="http://www.w3.org/2000/svg" xmlns:serif="http://www.serif.com/" xmlns:xlink="http://www.w3.org/1999/xlink">
<g transform="matrix(1,0,0,1,-96,0)">
<g transform="matrix(1.125,0,0,1,40,-1.77636e-15)">
<path d="M71.196,10.9C71.148,9.836 70.367,9 69.42,9C66.684,9 61.316,9 58.58,9C57.633,9 56.852,9.836 56.804,10.9C56.638,14.653 56.267,22.991 56.093,26.9C56.069,27.447 56.245,27.982 56.581,28.378C56.916,28.775 57.382,29 57.869,29C60.948,29 67.052,29 70.131,29C70.618,29 71.084,28.775 71.419,28.378C71.755,27.982 71.931,27.447 71.907,26.9C71.733,22.991 71.362,14.653 71.196,10.9Z" style="fill:rgb(144,224,239);"/>
</g>
<path d="M107,8L105.903,8C104.304,8 102.986,9.254 102.906,10.85C102.719,14.603 102.302,22.941 102.106,26.85C102.065,27.671 102.363,28.472 102.929,29.068C103.495,29.663 104.281,30 105.102,30L118.898,30C119.719,30 120.505,29.663 121.071,29.068C121.637,28.472 121.935,27.671 121.894,26.85L121.094,10.85C121.014,9.254 119.696,8 118.097,8L117,8L117,6C117,3.24 114.76,1 112,1C109.24,1 107,3.24 107,6L107,8ZM117,10L117,11.268C117.598,11.614 118,12.26 118,13C118,14.104 117.104,15 116,15C114.896,15 114,14.104 114,13C114,12.26 114.402,11.614 115,11.268L115,10L109,10L109,11.268C109.598,11.614 110,12.26 110,13C110,14.104 109.104,15 108,15C106.896,15 106,14.104 106,13C106,12.26 106.402,11.614 107,11.268L107,10L105.903,10C105.37,10 104.93,10.418 104.904,10.95L104.104,26.95C104.09,27.224 104.189,27.491 104.378,27.689C104.567,27.888 104.829,28 105.103,28C105.103,28 118.897,28 118.898,28C119.171,28 119.433,27.888 119.622,27.689C119.811,27.491 119.91,27.224 119.896,26.95L119.096,10.95C119.07,10.418 118.63,10 118.097,10L117,10ZM115,8L115,6C115,4.344 113.656,3 112,3C110.344,3 109,4.344 109,6L109,8L115,8Z" style="fill:rgb(25,144,167);"/>
</g>
</svg>