<?xml version="1.0" encoding="iso-8859-1"?>
<!-- Uploaded to: SVG Repo, www.svgrepo.com, Generator: SVG Repo Mixer Tools -->
<svg version="1.1" id="Layer_1" xmlns="http://www.w3.org/2000/svg" xmlns:xlink="http://www.w3.org/1999/xlink" 
	 viewBox="0 0 512 512" xml:space="preserve">
<path style="fill:#333333;" d="M310.384,512H105.216c-21.864-0.064-39.568-17.768-39.632-39.632V39.624
	C65.648,17.768,83.36,0.064,105.216,0h205.168c21.864,0.064,39.568,17.768,39.632,39.632V472.36
	C349.952,494.224,332.248,511.928,310.384,512z"/>
<rect x="84.344" y="40.4" width="246.912" height="403.76"/>
<g>
	<path style="fill:#CCCCCC;" d="M244.832,24.416h-50.528c-2.28-0.008-4.12-1.848-4.128-4.128l0,0c0.008-2.28,1.848-4.12,4.128-4.128
		h50.528c2.28,0.008,4.12,1.848,4.128,4.128l0,0C248.952,22.568,247.112,24.408,244.832,24.416z"/>
	<circle style="fill:#CCCCCC;" cx="170.768" cy="20.288" r="4.128"/>
	<path style="fill:#CCCCCC;" d="M207.8,497.6c-10.784,0-19.52-8.736-19.52-19.52s8.736-19.52,19.52-19.52s19.52,8.736,19.52,19.52
		l0,0C227.304,488.856,218.576,497.584,207.8,497.6z M207.8,462.552c-8.568,0-15.52,6.952-15.52,15.52s6.952,15.52,15.52,15.52
		s15.52-6.952,15.52-15.52l0,0c0.016-8.584-6.928-15.544-15.512-15.56H207.8L207.8,462.552L207.8,462.552z"/>
</g>
<path style="fill:#E21B1B;" d="M128.28,310.016h260.432l57.704-135.52H128.28V310.016z"/>
<g>
	<path style="fill:#FFFFFF;" d="M200.368,212.088c5.392-0.992,10.864-1.48,16.352-1.48c5.36-0.352,10.704,0.8,15.44,3.328
		c4.392,2.08,7.192,6.504,7.2,11.36c-0.264,7.24-5.456,13.352-12.56,14.792v0.272c6.032,1.704,10.088,7.344,9.792,13.6
		c-0.056,6.072-3.272,11.68-8.496,14.792c-7.192,3.864-15.336,5.592-23.472,4.984c-5.264,0.112-10.52-0.264-15.712-1.112
		L200.368,212.088z M203.696,263.096c1.688,0.2,3.384,0.288,5.08,0.28c7.2,0,13.776-2.864,13.776-9.8c0-6.192-5.176-8-11.368-8H207
		L203.696,263.096z M209.056,235.84h4.432c7.304,0,12.288-3.144,12.288-8.416c0-4.52-3.696-6.472-8.8-6.472
		c-1.736-0.048-3.472,0.112-5.176,0.472L209.056,235.84z"/>
	<path style="fill:#FFFFFF;" d="M266.704,211.072l-6.84,35.848c-0.472,2.432-0.688,4.912-0.648,7.392
		c-0.312,4.6,3.16,8.584,7.768,8.904c0.432,0.032,0.864,0.024,1.296-0.016c6.928,0,11.544-4.624,13.768-16.168l6.832-35.944h13.32
		l-6.752,35.392c-3.6,18.848-11.92,27.904-28.8,27.904c-10.024,1.368-19.248-5.648-20.616-15.672
		c-0.192-1.392-0.216-2.8-0.088-4.192c0.048-2.92,0.352-5.824,0.92-8.688l6.56-34.744L266.704,211.072z"/>
	<path style="fill:#FFFFFF;" d="M314.464,273.352l4.8-25.416l-12.104-36.864h14.24l4,15.8c1.112,5.176,1.76,8.136,2.4,11.272h0.184
		c1.848-3.32,3.696-6.832,6.4-11.36l9.336-15.712h15.84l-26.888,36.592l-4.872,25.688H314.464z"/>
</g>
<polygon style="fill:#F91E1E;" points="200.656,174.648 214.912,188.904 378.328,188.904 393.776,204.352 434.152,204.352 
	446.416,174.496 "/>
</svg>