<?xml version="1.0" ?>
<!DOCTYPE svg  PUBLIC '-//W3C//DTD SVG 1.1//EN'  'http://www.w3.org/Graphics/SVG/1.1/DTD/svg11.dtd'>
<!-- Uploaded to: SVG Repo, www.svgrepo.com, Generator: SVG Repo Mixer Tools -->
<svg width="800px" height="800px" viewBox="0 0 32 32" enable-background="new 0 0 32 32" version="1.1" xml:space="preserve" xmlns="http://www.w3.org/2000/svg" xmlns:xlink="http://www.w3.org/1999/xlink">
<g id="Security02"/>
<g id="Security03"/>
<g id="Security04"/>
<g id="Security05"/>
<g id="Security06">
<path d="M16,19c-0.5522,0-1,0.4473-1,1v2c0,0.5518-0.4487,1-1,1H3v-1c0-0.5527-0.4478-1-1-1s-1,0.4473-1,1v4   c0,0.5527,0.4478,1,1,1s1-0.4473,1-1v-1h11c1.6543,0,3-1.3457,3-3v-2C17,19.4473,16.5522,19,16,19z" fill="#3F51B5"/>
<g>
<path d="M31,6v14c0,0.37-0.2,0.71-0.53,0.88C30.32,20.96,30.16,21,30,21c-0.19,0-0.39-0.06-0.55-0.17l-6-4    C23.17,16.65,23,16.33,23,16v-6c0-0.33,0.17-0.65,0.45-0.83l6-4c0.3-0.21,0.7-0.23,1.02-0.05C30.8,5.29,31,5.63,31,6z" fill="#FFC10A"/>
</g>
<g>
<path d="M25,8v10c0,1.65-1.35,3-3,3H4c-1.65,0-3-1.35-3-3V8c0-1.65,1.35-3,3-3h18C23.65,5,25,6.35,25,8z" fill="#2197F3"/>
</g>
</g>
<g id="Security07"/>
<g id="Security08"/>
<g id="Security09"/>
<g id="Security10"/>
<g id="Security11"/>
<g id="Security12"/>
<g id="Security13"/>
<g id="Security14"/>
<g id="Security15"/>
<g id="Security16"/>
<g id="Security17"/>
<g id="Security18"/>
<g id="Security19"/>
<g id="Security20"/>
<g id="Security21"/>
</svg>