<svg xmlns="http://www.w3.org/2000/svg" viewBox="0 0 30 30" id="camera"><g transform="translate(-826.313 15.998) scale(3.77953)"><path fill="#c5e9fb" d="m 224.58157,-1.9837375 h -0.3333 a 0.52916667,0.52916667 0 0 1 -0.3757,-0.1561 l -0.2937,-0.2963 a 0.26458333,0.26458333 0 0 0 -0.1879,-0.077 h -1.5875 a 0.26458333,0.26458333 0 0 0 -0.1878,0.077 l -0.2937,0.2963 a 0.52916667,0.52916667 0 0 1 -0.3757,0.1562 h -0.3334 a 0.92604167,0.92604167 0 0 0 -0.926,0.926 v 2.1167 a 0.92604167,0.92604167 0 0 0 0.926,0.926 h 3.9687 a 0.92604167,0.92604167 0 0 0 0.9261,-0.926 v -2.1167 a 0.92604167,0.92604167 0 0 0 -0.9261,-0.926 z"></path><path fill="#148aff" d="m 222.59727,0.92666246 a 1.0583333,1.0583333 0 1 1 1.0583,-1.0583 1.0583333,1.0583333 0 0 1 -1.0583,1.0583 z"></path><path fill="#63b1de" d="m 224.58157,-0.79303754 a 0.26458333,0.26458333 0 1 1 0.2646,-0.26459996 0.26458333,0.26458333 0 0 1 -0.2646,0.26459996 z"></path><path fill="#ffd60a" d="m 222.59725,0.39749583 a 0.52916667,0.52916667 0 1 1 0.52915,-0.52915002 0.52916667,0.52916667 0 0 1 -0.52915,0.52915002 z"></path></g></svg>