<?xml version="1.0" encoding="utf-8"?><!-- Uploaded to: SVG Repo, www.svgrepo.com, Generator: SVG Repo Mixer Tools -->
<svg width="800px" height="800px" viewBox="0 0 24 24" fill="none" xmlns="http://www.w3.org/2000/svg">
<path fill-rule="evenodd" clip-rule="evenodd" d="M8 5C8 3.89543 8.89543 3 10 3H14C15.1046 3 16 3.89543 16 5C16 6.10457 15.1046 7 14 7H10C8.89543 7 8 6.10457 8 5Z" fill="#152C70"/>
<path d="M7 5C4.23858 5 2 7.23858 2 10V16C2 18.7614 4.23858 21 7 21H17C19.7614 21 22 18.7614 22 16V10C22 7.23858 19.7614 5 17 5H7Z" fill="#4296FF"/>
<path fill-rule="evenodd" clip-rule="evenodd" d="M12 11C10.8954 11 10 11.8954 10 13C10 14.1046 10.8954 15 12 15C13.1046 15 14 14.1046 14 13C14 11.8954 13.1046 11 12 11ZM8 13C8 10.7909 9.79086 9 12 9C14.2091 9 16 10.7909 16 13C16 15.2091 14.2091 17 12 17C9.79086 17 8 15.2091 8 13Z" fill="#152C70"/>
</svg>