<svg xmlns="http://www.w3.org/2000/svg" xmlns:xlink="http://www.w3.org/1999/xlink" width="470" height="468" id="cloud"><defs><filter id="a" width="111.8%" height="111.9%" x="-5.9%" y="-3.9%" filterUnits="objectBoundingBox"><feOffset dy="5" in="SourceAlpha" result="shadowOffsetOuter1"></feOffset><feGaussianBlur in="shadowOffsetOuter1" result="shadowBlurOuter1" stdDeviation="4"></feGaussianBlur><feColorMatrix in="shadowBlurOuter1" result="shadowMatrixOuter1" values="0 0 0 0 0 0 0 0 0 0 0 0 0 0 0 0 0 0 0.078125 0"></feColorMatrix><feOffset dy="4" in="SourceAlpha" result="shadowOffsetOuter2"></feOffset><feGaussianBlur in="shadowOffsetOuter2" result="shadowBlurOuter2" stdDeviation="5.5"></feGaussianBlur><feColorMatrix in="shadowBlurOuter2" result="shadowMatrixOuter2" values="0 0 0 0 0 0 0 0 0 0 0 0 0 0 0 0 0 0 0.210824275 0"></feColorMatrix><feMerge><feMergeNode in="shadowMatrixOuter1"></feMergeNode><feMergeNode in="shadowMatrixOuter2"></feMergeNode></feMerge></filter><path id="b" d="M9.635 132.808C24.782 59.782 71.388 19.109 144.085 6.822c53.74-9.081 107.5-9.196 161.15.255 74.852 13.185 119.85 56.23 134.185 130.36 11.075 57.29 11.249 115.191-.174 172.427-15.324 72.52-63.132 117.285-135.561 129.527-53.74 9.08-107.5 9.195-161.15-.255-74.852-13.186-120.05-58.38-134.384-132.509-11.64-57.668-10.52-115.935 1.484-173.82z"></path></defs><g fill="none" fill-rule="evenodd"><g transform="translate(11 7)"><use fill="#000" filter="url(#a)" xlink:href="#b"></use><use fill="#60BAFF" xlink:href="#b"></use></g><path fill="#FFF" d="M261.2 210.337c0-7.918 6.419-14.337 14.337-14.337h75.774c7.302 0 13.222 5.92 13.222 13.222v114.705c0 7.773-6.3 14.073-14.072 14.073h-55.164v-19.333H345.2V215.333h-64.667v50.46l20.187-20.188 13.67 13.671-38.398 38.14a7.274 7.274 0 0 1-10.25 0l-38.4-38.14 13.67-13.67 20.188 20.186v-55.455zm-28.255-73.67c-29.414 0-55.425 14.563-71.22 36.87l-14.069-14.067c19.511-25.798 50.451-42.47 85.29-42.47 38.732 0 72.652 20.604 91.397 51.45l-14.419 14.42c-14.674-27.492-43.64-46.203-76.979-46.203zM161 318.405l94.84.262V338H153.624v-.199C115.666 334.095 86 302.098 86 263.167c0-41.422 33.58-75 75-75 23.3 0 44.12 10.625 57.875 27.294l-14.07 14.07C194.706 216.4 178.846 207.928 161 207.928c-30.507 0-55.239 24.731-55.239 55.239 0 30.508 24.732 55.238 55.24 55.238z"></path></g></svg>