<?xml version="1.0" ?>
<!-- Uploaded to: SVG Repo, www.svgrepo.com, Generator: SVG Repo Mixer Tools -->
<svg width="800px" height="800px" viewBox="0 0 512 512" id="Layer_1" version="1.1" xml:space="preserve" xmlns="http://www.w3.org/2000/svg" xmlns:xlink="http://www.w3.org/1999/xlink">
<style type="text/css">
	.st0{fill:#2B79C2;}
	.st1{fill:#3B4652;}
	.st2{fill:#333333;}
</style>
<g>
<path class="st0" d="M409.7,301.8V191.9c0-84.8-68.9-153.7-153.7-153.7s-153.7,68.9-153.7,153.7v52.7   c-37.5,20.9-62.9,60.9-62.9,106.9c0,67.5,54.7,122.2,122.2,122.2h223.1c48.5,0,87.8-39.3,87.8-87.8   C472.6,346.1,446,312.5,409.7,301.8z M294,417.1H218l22.7-56.1c-15-6.1-25.7-20.8-25.7-38.1c0-22.7,18.4-41,41-41   c22.7,0,41,18.4,41,41c0,17.2-10.6,32-25.7,38.1L294,417.1z M350.3,242.4c-6.7,0-13.2,1.2-19.1,3.5c0-1.2,0.1-2.3,0.1-3.5   c0-43.3-35.1-78.3-78.3-78.3c-39.1,0-71.5,28.6-77.4,66.1c-4.6-0.5-9.3-0.8-14-0.8c-8.5,0-16.7,0.9-24.7,2.5v-39.9   c0-65.7,53.3-119,119-119c32.9,0,62.6,13.3,84.1,34.9c21.5,21.5,34.9,51.3,34.9,84.1v56.5C367.6,244.6,359.2,242.4,350.3,242.4z"/>
</g>
</svg>