<?xml version="1.0" encoding="iso-8859-1"?>
<!-- Uploaded to: SVG Repo, www.svgrepo.com, Generator: SVG Repo Mixer Tools -->
<svg height="800px" width="800px" version="1.1" id="Layer_1" xmlns="http://www.w3.org/2000/svg" xmlns:xlink="http://www.w3.org/1999/xlink" 
	 viewBox="0 0 511.994 511.994" xml:space="preserve">
<g>
	<path style="fill:#8697CB;" d="M432.578,154.48c-1.015-76.791-63.497-141.241-140.526-141.241
		c-49.073,0-95.153,26.527-120.585,64.759c-11.193-7.442-24.611-11.794-39.053-11.794c-39.009,0-70.621,31.62-70.621,70.621
		c0,1.351,0.124,2.666,0.203,4.008c-0.088,1.607-0.203,3.231-0.203,4.82C26.58,162.531,0,202.652,0,244.124
		c0,57.512,47.051,104.563,104.563,104.563h19.023v-23.905c0-6.303,5.102-11.405,11.396-11.405h242.026
		c6.294,0,11.405,5.102,11.405,11.405v23.905h23.075c48.596,0,91.992-34.295,99.354-82.335
		C519.053,212.821,482.322,163.855,432.578,154.48"/>
	<path style="fill:#5C6887;" d="M326.617,498.756H185.376c-34.127,0-61.793-27.666-61.793-61.793V324.782
		c0-6.303,5.102-11.405,11.405-11.405h242.017c6.303,0,11.405,5.102,11.405,11.405v112.181
		C388.41,471.09,360.745,498.756,326.617,498.756"/>
	<g>
		<path style="fill:#FFFFFF;" d="M255.996,375.169c-9.737,0-17.655,7.918-17.655,17.655c0,9.737,7.918,17.655,17.655,17.655
			c9.737,0,17.655-7.918,17.655-17.655C273.652,383.088,265.733,375.169,255.996,375.169 M255.996,428.135
			c-19.474,0-35.31-15.837-35.31-35.31s15.837-35.31,35.31-35.31s35.31,15.837,35.31,35.31S275.47,428.135,255.996,428.135"/>
		<path style="fill:#FFFFFF;" d="M255.996,454.618c-4.882,0-8.828-3.955-8.828-8.828v-26.483c0-4.873,3.946-8.828,8.828-8.828
			c4.882,0,8.828,3.955,8.828,8.828v26.483C264.824,450.663,260.878,454.618,255.996,454.618"/>
	</g>
	<path style="fill:#3D4763;" d="M353.1,313.376h-35.31v-35.31c0-34.066-27.727-61.793-61.793-61.793S194.203,244,194.203,278.066
		v35.31h-35.31v-35.31c0-53.539,43.564-97.103,97.103-97.103s97.103,43.564,97.103,97.103V313.376z"/>
	<g>
		<path style="fill:#5C6887;" d="M388.401,163.307c-4.29,0-8.051-3.125-8.713-7.503c-0.733-4.82,2.578-9.322,7.397-10.055
			c22.872-3.469,45.815-0.141,46.777,0c4.82,0.715,8.148,5.199,7.442,10.019c-0.706,4.829-5.244,8.166-10.019,7.442
			c-0.221-0.026-21.389-3.072-41.551,0C389.293,163.281,388.843,163.307,388.401,163.307"/>
		<path style="fill:#5C6887;" d="M211.859,145.652c-4.882,0-8.828-3.955-8.828-8.828c0-34.074-27.727-61.793-61.793-61.793
			s-61.793,27.719-61.793,61.793c0,4.873-3.946,8.828-8.828,8.828c-4.882,0-8.828-3.955-8.828-8.828
			c0-43.802,35.637-79.448,79.448-79.448s79.448,35.646,79.448,79.448C220.686,141.697,216.74,145.652,211.859,145.652"/>
	</g>
</g>
</svg>