<?xml version="1.0" ?>
<!-- Uploaded to: SVG Repo, www.svgrepo.com, Generator: SVG Repo Mixer Tools -->
<svg width="800px" height="800px" viewBox="0 0 64 64" id="Layer_1" version="1.1" xml:space="preserve" xmlns="http://www.w3.org/2000/svg" xmlns:xlink="http://www.w3.org/1999/xlink">
<style type="text/css">
	.st0{fill:#B4E6DD;}
	.st1{fill:#80D4C4;}
	.st2{fill:#D2F0EA;}
	.st3{fill:#FFFFFF;}
	.st4{fill:#FBD872;}
	.st5{fill:#DB7767;}
	.st6{fill:#F38E7A;}
	.st7{fill:#F6AF62;}
	.st8{fill:#32A48E;}
	.st9{fill:#A38FD8;}
	.st10{fill:#7C64BD;}
	.st11{fill:#EAA157;}
	.st12{fill:#9681CF;}
	.st13{fill:#F9C46A;}
	.st14{fill:#CE6B61;}
</style>
<g>
<path class="st9" d="M47.26,20.72c-0.78,0-1.53,0.11-2.25,0.3C44.99,13.83,39.15,8,31.95,8c-5.74,0-10.61,3.71-12.36,8.86   c-0.29-0.02-0.59-0.04-0.89-0.04C12.79,16.81,8,21.6,8,27.51c0,5.91,4.79,10.7,10.7,10.7c3.74,0,24.65,0,28.56,0   c4.83,0,8.74-3.91,8.74-8.74C56,24.64,52.09,20.72,47.26,20.72z"/>
<g>
<g>
<path class="st3" d="M25.86,36.36v-4.09c0-3.39,2.76-6.14,6.14-6.14c3.39,0,6.14,2.76,6.14,6.14v4.09h4.07v-4.09     c0-5.63-4.58-10.22-10.22-10.22s-10.21,4.58-10.21,10.22v4.09H25.86z"/>
</g>
<path class="st6" d="M32,56L32,56c-6.93,0-12.55-5.62-12.55-12.55v-7.44h25.1v7.44C44.55,50.38,38.93,56,32,56z"/>
<path class="st5" d="M34.83,43.08c0-1.56-1.27-2.83-2.83-2.83c-1.56,0-2.83,1.27-2.83,2.83c0,0.98,0.5,1.85,1.27,2.36v3.35    c0,0.86,0.7,1.56,1.56,1.56c0.86,0,1.56-0.7,1.56-1.56v-3.35C34.33,44.93,34.83,44.06,34.83,43.08z"/>
</g>
</g>
</svg>