<?xml version="1.0" encoding="iso-8859-1"?>
<!-- Uploaded to: SVG Repo, www.svgrepo.com, Generator: SVG Repo Mixer Tools -->
<svg height="800px" width="800px" version="1.1" id="Layer_1" xmlns="http://www.w3.org/2000/svg" xmlns:xlink="http://www.w3.org/1999/xlink" 
	 viewBox="0 0 512 512" xml:space="preserve">
<path style="fill:#FFFFFF;" d="M94.608,362.084C46.848,362.084,8,323.228,8,275.476c0-42.176,30.248-78.032,71.928-85.248
	l7.344-1.272l-0.752-7.424c-0.408-3.952-0.608-7.92-0.608-11.792c0-63.104,51.336-114.44,114.44-114.44
	c48.464,0,91.824,30.792,107.888,76.608l2.632,7.52l7.528-2.608c6.904-2.4,13.992-3.608,21.08-3.608
	c29.928,0,55.648,20.352,62.544,49.496l1.456,6.16h13.904c47.76,0,86.608,38.848,86.608,86.608s-38.848,86.608-86.608,86.608
	L94.608,362.084L94.608,362.084z"/>
<path style="fill:#8AD5DD;" d="M200.344,63.3c45.072,0,85.4,28.632,100.344,71.256l5.28,15.048l15.064-5.224
	c6.056-2.096,12.256-3.168,18.448-3.168c26.208,0,48.728,17.824,54.768,43.336l2.912,12.312h12.656h7.576
	c43.344,0,78.608,35.264,78.608,78.608s-35.264,78.608-78.608,78.608H94.608C51.264,354.084,16,318.82,16,275.476
	c0-38.28,27.456-70.816,65.288-77.368l14.704-2.544l-1.52-14.848c-0.376-3.648-0.56-7.344-0.56-10.976
	C93.912,111.044,141.656,63.3,200.344,63.3 M200.344,47.3c-67.616,0-122.432,54.816-122.432,122.432
	c0,4.256,0.224,8.464,0.648,12.608C34.112,190.036,0,228.916,0,275.476c0,52.032,42.576,94.608,94.608,94.608h322.784
	c52.032,0,94.608-42.576,94.608-94.608s-42.576-94.608-94.608-94.608h-7.576c-7.544-31.896-36.136-55.656-70.336-55.656
	c-8.312,0-16.256,1.472-23.688,4.048C299.064,81.564,253.76,47.3,200.344,47.3L200.344,47.3z"/>
<circle style="fill:#DB2B42;" cx="256" cy="353.276" r="111.424"/>
<polygon style="fill:#FFFFFF;" points="233.816,292.1 297.088,353.268 233.816,414.436 214.912,395.34 258.432,353.268 
	214.912,311.196 "/>
</svg>