<?xml version="1.0" encoding="iso-8859-1"?>
<!-- Uploaded to: SVG Repo, www.svgrepo.com, Generator: SVG Repo Mixer Tools -->
<svg height="800px" width="800px" version="1.1" id="Layer_1" xmlns="http://www.w3.org/2000/svg" xmlns:xlink="http://www.w3.org/1999/xlink" 
	 viewBox="0 0 512 512" xml:space="preserve">
<polygon style="fill:#78B9EB;" points="369.694,377.042 256,180.12 142.308,377.042 112.747,359.975 256,111.853 399.254,359.975 
	"/>
<path style="fill:#AED5F3;" d="M386.844,168.397c0-24.642-16.472-47.085-40.054-54.577l-8.439-2.679l-0.427-8.844
	c-1.943-40.332-35.121-71.928-75.533-71.928c-36.045,0-67.251,25.658-74.201,61.008l-1.711,8.703l-8.757,1.412
	c-29.967,4.83-52.566,31.344-52.566,61.672c0,34.443,28.023,62.466,62.467,62.466h141.988
	C361.171,225.631,386.844,199.956,386.844,168.397z"/>
<path style="fill:#93C7EF;" d="M346.79,113.82l-8.439-2.679l-0.427-8.844c-1.943-40.332-35.121-71.928-75.533-71.928
	c-2.404,0-4.784,0.123-7.138,0.347v194.916h74.357c31.559,0,57.233-25.674,57.233-57.234
	C386.844,143.755,370.374,121.313,346.79,113.82z"/>
<polygon style="fill:#FFAD41;" points="128.601,322.342 105.845,288.209 0,288.209 0,481.631 238.933,481.631 238.933,322.342 "/>
<polygon style="fill:#FF9811;" points="128.601,322.342 130.844,481.631 238.933,481.631 238.933,322.342 "/>
<polygon style="fill:#FFAD41;" points="401.667,322.342 378.912,288.209 273.067,288.209 273.067,481.631 512,481.631 512,322.342 
	"/>
<polygon style="fill:#FF9811;" points="401.667,322.342 403.911,481.631 512,481.631 512,322.342 "/>
</svg>