<?xml version="1.0" encoding="iso-8859-1"?>
<!-- Uploaded to: SVG Repo, www.svgrepo.com, Generator: SVG Repo Mixer Tools -->
<svg height="800px" width="800px" version="1.1" id="Layer_1" xmlns="http://www.w3.org/2000/svg" xmlns:xlink="http://www.w3.org/1999/xlink" 
	 viewBox="0 0 392.544 392.544" xml:space="preserve">
<path style="fill:#FFFFFF;" d="M370.758,265.812c0.065-23.402-11.766-44.8-31.677-57.341c-4.461-2.78-6.335-8.404-4.331-13.317
	c6.788-16.873,8.792-34.651,5.948-52.622c-6.982-43.572-43.83-78.093-87.725-82.295c-29.156-2.715-57.471,7.24-78.287,27.604
	c-2.521,2.521-6.271,3.556-9.762,2.844c-6.465-1.293-13.059-1.939-19.653-1.939c-54.303,0-98.521,44.218-98.521,98.521
	c0,5.624,0.517,11.378,1.616,17.519c0.711,3.814-0.711,7.564-3.556,10.149c-16.614,14.545-24.824,35.556-22.626,57.471
	c3.168,31.806,29.608,57.665,61.414,60.186l222.319,0.129C341.538,331.558,370.629,301.497,370.758,265.812z"/>
<path style="fill:#194F82;" d="M357.958,195.089c5.818-18.036,7.24-37.172,4.267-56.048
	c-8.469-53.269-53.657-95.483-107.248-100.525c-33.616-3.168-66.457,7.628-91.41,29.802c-6.012-0.905-12.218-1.422-18.295-1.422
	c-66.392,0-120.307,54.044-120.307,120.307c0,5.107,0.388,10.214,1.099,15.451c-19.006,19.071-28.315,44.865-25.6,71.951
	c4.267,42.343,39.434,76.671,81.907,79.838c0.259,0,0.517,0,0.776,0l222.901,0.129l0,0c0.129,0,0.259,0,0.388,0
	c47.321-1.616,85.851-41.438,86.109-88.76C392.609,237.885,379.873,212.026,357.958,195.089z M83.599,332.657
	c-31.935-2.521-58.246-28.38-61.414-60.186c-2.133-21.915,6.012-42.99,22.626-57.471c2.844-2.521,4.267-6.335,3.556-10.15
	c-1.099-6.206-1.616-11.895-1.616-17.519c0-54.303,44.218-98.521,98.521-98.521c6.594,0,13.123,0.711,19.653,1.939
	c3.556,0.711,7.176-0.388,9.762-2.844c20.816-20.299,49.131-30.319,78.287-27.604c43.895,4.073,80.808,38.723,87.725,82.295
	c2.844,18.101,0.84,35.749-5.948,52.622c-2.004,4.848-0.129,10.537,4.331,13.317c19.911,12.541,31.806,33.939,31.677,57.341
	c-0.129,35.685-29.22,65.745-64.84,67.103L83.599,332.657z"/>
<path style="fill:#FFC10D;" d="M327.38,226.895l-0.065-0.065c-13.382-8.404-18.877-25.147-12.929-39.822v-0.065
	c5.301-13.123,6.853-26.958,4.655-41.051c-5.43-33.875-34.069-60.832-68.202-64c-2.457-0.259-5.042-0.388-7.499-0.388
	c-20.105,0-39.111,7.822-53.527,21.851l-0.065,0.065c-7.693,7.564-18.618,10.796-29.156,8.663h-0.065
	c-5.042-1.034-10.214-1.552-15.321-1.552c-42.343,0-76.735,34.457-76.735,76.735c0,4.267,0.453,8.727,1.293,13.705
	c2.069,11.248-1.939,22.756-10.537,30.319h-0.065c-11.184,9.891-16.743,24.048-15.321,38.917
	c2.069,21.269,19.523,38.465,40.727,40.598l220.832,0.129c23.467-1.034,43.378-21.657,43.442-45.253
	C348.972,249.845,340.956,235.364,327.38,226.895z"/>
<path style="fill:#194F82;" d="M303.203,161.15c-4.719-2.909-10.925-1.552-13.834,3.168l-10.99,17.455
	c-11.442-33.875-43.378-58.246-81.067-58.246c-47.321,0-85.721,38.465-85.721,85.721s38.465,85.721,85.721,85.721
	c5.56,0,10.02-4.461,10.02-10.02s-4.461-10.02-10.02-10.02c-36.137,0-65.616-29.414-65.616-65.616s29.414-65.616,65.616-65.616
	c29.026,0,53.721,19.006,62.255,45.253l-20.881-13.059c-4.719-2.909-10.925-1.552-13.834,3.168
	c-2.909,4.719-1.552,10.925,3.168,13.834l39.564,24.889c5.107,3.232,11.184,1.552,13.834-3.168l24.889-39.564
	C309.344,170.329,307.922,164.188,303.203,161.15z"/>
</svg>