<?xml version="1.0" encoding="utf-8"?><!-- Uploaded to: SVG Repo, www.svgrepo.com, Generator: SVG Repo Mixer Tools -->
<svg width="800px" height="800px" viewBox="0 0 24 24" fill="none" xmlns="http://www.w3.org/2000/svg">
<path fill-rule="evenodd" clip-rule="evenodd" d="M2 21C2 20.4477 2.44772 20 3 20H17C17.5523 20 18 20.4477 18 21C18 21.5523 17.5523 22 17 22H3C2.44772 22 2 21.5523 2 21Z" fill="#152C70"/>
<path fill-rule="evenodd" clip-rule="evenodd" d="M16.5714 6C16.5714 5.44772 17.0191 5 17.5714 5H18C20.2091 5 22 6.79086 22 9C22 11.2091 20.2091 13 18 13H17C16.4477 13 16 12.5523 16 12C16 11.4477 16.4477 11 17 11H18C19.1046 11 20 10.1046 20 9C20 7.89543 19.1046 7 18 7H17.5714C17.0191 7 16.5714 6.55228 16.5714 6Z" fill="#152C70"/>
<path d="M5.26316 2C3.4599 2 2.03534 3.52994 2.16382 5.32862L2.57509 11.0865C2.85334 14.9819 6.0947 18 10 18C13.9054 18 17.1467 14.9819 17.425 11.0865L17.8363 5.32862C17.9647 3.52994 16.5402 2 14.7369 2H5.26316Z" fill="#4296FF"/>
</svg>