<?xml version="1.0" encoding="iso-8859-1"?>
<!-- Uploaded to: SVG Repo, www.svgrepo.com, Generator: SVG Repo Mixer Tools -->
<svg version="1.1" id="Layer_1" xmlns="http://www.w3.org/2000/svg" xmlns:xlink="http://www.w3.org/1999/xlink" 
	 viewBox="0 0 511.987 511.987" xml:space="preserve">
<path style="fill:#DA4453;" d="M507.922,266.662c-15.594-53.327-104.715-18.844-104.715-18.844L383.676,384.65
	C383.676,384.65,538.796,372.339,507.922,266.662z M400.144,346.026l-2.438-51.311c0,0,72.857-45.116,72.842,3.938
	C470.549,330.933,400.144,346.026,400.144,346.026z"/>
<g>
	<path style="fill:#ED5564;" d="M476.86,472.46c-2.094-2.093-4.812-3.124-7.546-3.124l0,0H10.663l0,0
		c-2.734,0-5.453,1.031-7.546,3.124c-4.156,4.156-4.156,10.906,0,15.062c2.094,2.094,4.812,3.125,7.546,3.125h458.651
		c2.733,0,5.452-1.031,7.546-3.125C481.016,483.366,481.016,476.616,476.86,472.46z"/>
	<path style="fill:#ED5564;" d="M415.987,394.65c0,31.999-21.343,53.342-42.671,53.342c-21.327,0-234.673,0-255.984,0
		c-21.343,0-42.687-21.343-42.687-53.342s0-223.97,0-223.97h341.342C415.987,170.681,415.987,362.651,415.987,394.65z"/>
</g>
<rect x="74.643" y="213.334" style="fill:#DA4453;" width="341.34" height="21.328"/>
<g>
	<path style="fill:#E6E9ED;" d="M336.803,131.978c0-0.031-2.312-3.078-3.438-6.953c-1.297-4.562-0.5-7.859,2.703-11.062
		c8.655-8.703,11.515-20,8.062-31.812c-2.327-7.938-6.796-13.531-7.39-14.25v-0.016l-0.016-0.016l0,0
		c-1.953-2.359-4.922-3.859-8.219-3.859c-5.891,0-10.672,4.781-10.672,10.672c0,2.578,0.938,4.953,2.469,6.797l0,0
		c0.016,0.031,2.266,2.937,3.359,6.655c1.266,4.359,0.453,7.578-2.703,10.766c-8.656,8.688-11.531,20.046-8.094,31.999
		c2.328,8.094,6.844,13.844,7.344,14.469l0,0c1.953,2.422,4.938,3.968,8.297,3.968c5.891,0,10.672-4.765,10.672-10.655
		C339.178,136.135,338.287,133.806,336.803,131.978L336.803,131.978z"/>
	<path style="fill:#E6E9ED;" d="M261.656,46.684c-3.172-11.938-9.297-20.219-9.985-21.125h-0.031c-1.938-2.562-5-4.219-8.468-4.219
		c-5.891,0-10.656,4.781-10.656,10.672c0,2.406,0.797,4.625,2.141,6.406h-0.016c0.062,0.062,4.5,6.109,6.547,14.327
		c2.453,9.828,0.484,18.188-6.016,25.531c-11.375,12.89-15.015,28.702-10.484,45.717c3.172,11.953,9.296,20.234,9.984,21.141
		l0.031-0.016c1.938,2.562,5,4.218,8.469,4.218c5.89,0,10.656-4.765,10.656-10.655c0-2.438-0.812-4.672-2.188-6.453l0.031-0.016
		c-0.062-0.047-4.281-5.844-6.375-13.703c-2.672-10.062-0.75-18.608,5.875-26.108C262.547,79.527,266.187,63.715,261.656,46.684z"/>
	<path style="fill:#E6E9ED;" d="M173.455,82.152c-2.312-7.938-6.796-13.547-7.375-14.25v-0.016c-0.016,0-0.031-0.016-0.031-0.016
		l0,0c-1.953-2.359-4.906-3.859-8.203-3.859c-5.89,0-10.671,4.781-10.671,10.672c0,2.562,0.906,4.922,2.438,6.766l-0.031-0.031
		c0.016,0.016,2.484,3.155,3.531,7.171c1.094,4.156,0.25,7.234-2.828,10.312c-8.641,8.688-11.516,20.046-8.078,31.999
		c2.312,8.094,6.828,13.844,7.328,14.469h0.016c1.938,2.422,4.937,3.968,8.296,3.968c5.891,0,10.671-4.765,10.671-10.655
		c0-2.547-0.906-4.875-2.375-6.703l0,0c-0.016-0.031-2.312-3.078-3.438-6.953c-1.312-4.562-0.5-7.859,2.688-11.062
		C174.049,105.261,176.924,93.964,173.455,82.152z M149.612,81.465c0,0.016,0.016,0.016,0.016,0.016l0,0L149.612,81.465z"/>
</g>
<g>
	<path style="fill:#DA4453;" d="M109.769,178.212c4.172,4.171,10.937,4.171,15.093,0c2.094-2.078,3.125-4.812,3.125-7.531h-21.343
		C106.644,173.399,107.707,176.134,109.769,178.212z"/>
	<path style="fill:#DA4453;" d="M152.44,178.212c4.172,4.171,10.922,4.171,15.078,0c2.093-2.078,3.125-4.812,3.125-7.531h-21.312
		C149.331,173.399,150.362,176.134,152.44,178.212z"/>
	<path style="fill:#DA4453;" d="M195.111,178.212c4.156,4.171,10.906,4.171,15.078,0c2.078-2.078,3.125-4.812,3.125-7.531h-21.328
		C191.986,173.399,193.017,176.134,195.111,178.212z"/>
	<path style="fill:#DA4453;" d="M237.765,178.212c4.172,4.171,10.921,4.171,15.093,0c2.078-2.078,3.125-4.812,3.125-7.531H234.64
		C234.64,173.399,235.687,176.134,237.765,178.212z"/>
	<path style="fill:#DA4453;" d="M280.444,178.212c4.172,4.171,10.922,4.171,15.078,0c2.093-2.078,3.124-4.812,3.124-7.531H277.32
		C277.32,173.399,278.367,176.134,280.444,178.212z"/>
	<path style="fill:#DA4453;" d="M323.115,178.212c4.156,4.171,10.906,4.171,15.078,0c2.078-2.078,3.125-4.812,3.125-7.531H319.99
		C319.99,173.399,321.021,176.134,323.115,178.212z"/>
	<path style="fill:#DA4453;" d="M362.644,170.681c0,2.719,1.047,5.453,3.125,7.531c4.156,4.171,10.922,4.171,15.094,0
		c2.078-2.078,3.125-4.812,3.125-7.531H362.644z"/>
</g>
</svg>