<?xml version="1.0" encoding="utf-8"?>
<!-- Uploaded to: SVG Repo, www.svgrepo.com, Generator: SVG Repo Mixer Tools -->
<svg width="800px" height="800px" viewBox="0 0 1024 1024" class="icon"  version="1.1" xmlns="http://www.w3.org/2000/svg"><path d="M226.203549 17.114718h560.867882v107.018541H226.203549zM219.811305 239.399857l63.716241 657.988755 29.074401 99.801491 379.823029 3.299223 25.775179-18.76433 85.985995-742.325139H219.811305z" fill="#FFFFFF" /><path d="M181.457839 130.113101h659.844568v103.100713H181.457839z" fill="#4C66AF" /><path d="M508.493303 514.472561m-137.742554 0a137.742553 137.742553 0 1 0 275.485107 0 137.742553 137.742553 0 1 0-275.485107 0Z" fill="#EA5D5C" /><path d="M861.922549 134.030928a41.240285 41.240285 0 0 0-41.240285-41.240286V41.240285a41.240285 41.240285 0 0 0-41.240286-41.240285H243.318267a41.240285 41.240285 0 0 0-41.240285 41.240285v51.550357a41.240285 41.240285 0 0 0-41.240286 41.240286v123.720856h44.951912l70.933291 713.456939a61.860428 61.860428 0 0 0 61.860428 52.787565h346.830801a61.860428 61.860428 0 0 0 61.860428-52.787565l70.933291-713.456939h44.951911v-123.720856z m-156.919286 831.816558a20.620143 20.620143 0 0 1-20.620143 16.908517H337.964722a20.620143 20.620143 0 0 1-20.620142-16.908517l-70.108486-704.796479h527.463252zM243.318267 41.240285h536.123711v51.550357H243.318267V41.240285z m577.363997 175.271214H202.077982V144.340999h618.604282v72.1705z" fill="#3F4651" /><path d="M511.380123 670.979445a164.961142 164.961142 0 1 0-164.961142-164.961142 164.961142 164.961142 0 0 0 164.961142 164.961142z m0-288.681999a123.720856 123.720856 0 1 1-123.720857 123.720857 123.720856 123.720856 0 0 1 123.720857-123.720857z" fill="#3F4651" /></svg>