<?xml version="1.0" encoding="iso-8859-1"?>
<!-- Uploaded to: SVG Repo, www.svgrepo.com, Generator: SVG Repo Mixer Tools -->
<svg height="800px" width="800px" version="1.1" id="Layer_1" xmlns="http://www.w3.org/2000/svg" xmlns:xlink="http://www.w3.org/1999/xlink" 
	 viewBox="0 0 359.5 359.5" xml:space="preserve">
<path style="fill:#FFC10D;" d="M20.04,117.98c0,24.954,51.523,52.687,125.414,52.687c73.956,0,125.414-27.798,125.414-52.687
	s-51.523-52.687-125.414-52.687S20.04,93.091,20.04,117.98z"/>
<path style="fill:#FFFFFF;" d="M174.675,100.526c-11.507,0-19.782,2.909-23.402,5.495l0,0c-3.491,2.457-8.016,2.457-11.507,0
	c-3.556-2.521-11.83-5.495-23.402-5.495c-13.059,0-21.333,3.62-24.113,5.947c5.624,6.271,28.768,18.554,53.269,28.251
	c24.372-9.826,47.386-22.109,53.269-28.251C195.814,104.146,187.604,100.526,174.675,100.526z"/>
<path style="fill:#194F82;" d="M174.675,80.485c-11.055,0-21.269,2.069-29.156,5.818c-7.887-3.685-18.166-5.818-29.156-5.818
	c-25.988,0-44.8,10.99-44.8,26.117c0,14.093,23.725,30.19,70.4,48.162c2.78,0.905,5.107,0.84,7.176,0
	c46.675-18.166,70.335-34.392,70.335-48.162C219.475,91.54,200.663,80.485,174.675,80.485z M92.251,106.473
	c2.78-2.327,11.119-5.947,24.113-5.947c11.507,0,19.782,2.909,23.402,5.495c3.491,2.457,8.016,2.457,11.507,0l0,0
	c3.556-2.521,11.83-5.495,23.402-5.495c12.929,0,21.269,3.556,24.048,5.947c-5.883,6.271-28.897,18.554-53.269,28.251
	C120.954,125.091,97.875,112.679,92.251,106.473z"/>
<path style="fill:#FFFFFF;" d="M145.519,190.708c-51.846,0-96.453-12.929-122.182-32.776
	c12.929,78.028,62.772,136.404,122.182,136.404s109.253-58.311,122.182-136.404C241.972,177.778,197.301,190.708,145.519,190.708z"
	/>
<path style="fill:#194F82;" d="M315.281,108.025c-8.986,0-17.325,2.521-24.501,6.853c-3.168-39.24-65.81-69.624-145.261-69.624
	C63.935,45.253,0,77.253,0,117.98c0,108.283,65.228,196.267,145.455,196.267c33.487,0,64.323-15.386,88.889-41.115
	c42.796-1.228,71.564-21.01,88.242-37.818c23.208-23.273,37.042-54.303,36.913-83.071
	C359.564,127.871,339.717,108.025,315.281,108.025z M145.519,294.271c-59.41,0-109.253-58.311-122.182-136.404
	c25.729,19.846,70.335,32.776,122.182,32.776s96.453-12.929,122.182-32.776C254.707,235.96,204.865,294.271,145.519,294.271z
	 M270.933,117.98c0,24.954-51.523,52.687-125.414,52.687c-73.956,0-125.414-27.798-125.414-52.687s51.523-52.687,125.414-52.687
	S270.933,93.091,270.933,117.98z M308.493,221.285c-11.572,11.572-30.061,24.954-56.436,29.931
	c19.265-28.057,32.517-63.612,37.042-102.982C291.232,137.116,302.481,128,315.216,128c13.382,0,24.372,10.925,24.372,24.372
	C339.717,175.58,327.758,202.021,308.493,221.285z"/>
<path style="fill:#56ACE0;" d="M145.519,190.708c-38.465,0-73.05-7.111-98.78-18.941c15.127,59.216,54.238,102.529,98.78,102.529
	s83.588-43.378,98.78-102.529C218.505,183.596,184.048,190.708,145.519,190.708z"/>
</svg>