<?xml version="1.0" encoding="iso-8859-1"?>
<!-- Uploaded to: SVG Repo, www.svgrepo.com, Generator: SVG Repo Mixer Tools -->
<svg version="1.1" id="Layer_1" xmlns="http://www.w3.org/2000/svg" xmlns:xlink="http://www.w3.org/1999/xlink" 
	 viewBox="0 0 512 512" xml:space="preserve">
<circle style="fill:#FFC61B;" cx="256" cy="256" r="256"/>
<path style="fill:#EAA22F;" d="M179.786,320.858l-18.601,128.219l60.647,60.647C233.01,511.216,244.414,512,256,512
	c125.361,0,229.66-90.11,251.697-209.089L270.539,65.753L179.786,320.858z"/>
<rect x="199.111" y="279.273" style="fill:#273B7A;" width="113.778" height="10.343"/>
<rect x="255.431" y="279.273" style="fill:#121149;" width="57.458" height="10.343"/>
<g>
	<path style="fill:#273B7A;" d="M350.815,449.077c-2.857,0-5.172-2.315-5.172-5.172v-34.478c0-2.857,2.315-5.172,5.172-5.172
		s5.172,2.315,5.172,5.172v34.478C355.987,446.762,353.671,449.077,350.815,449.077z"/>
	<path style="fill:#273B7A;" d="M161.185,449.077c-2.857,0-5.172-2.315-5.172-5.172v-34.478c0-2.857,2.315-5.172,5.172-5.172
		s5.172,2.315,5.172,5.172v34.478C166.357,446.762,164.042,449.077,161.185,449.077z"/>
</g>
<path style="fill:#366695;" d="M367.582,398.586l-97.223-267.312c-2.22-6.104-8.187-9.752-14.358-9.318
	c-6.173-0.434-12.14,3.213-14.358,9.318l-97.223,267.312c-2.684,7.382,1.122,15.543,8.504,18.227
	c7.382,2.684,15.543-1.122,18.227-8.504L256,175.013l84.851,233.296c2.684,7.382,10.845,11.188,18.227,8.504l0,0
	C366.459,414.129,370.266,405.968,367.582,398.586z"/>
<g>
	<path style="fill:#273B7A;" d="M367.582,398.586l-97.223-267.312c-2.22-6.104-8.187-9.752-14.358-9.318
		c-0.193-0.014-0.381,0.012-0.574,0.007v54.629l0.574-1.579l84.851,233.296c2.684,7.382,10.845,11.188,18.227,8.504
		C366.459,414.129,370.266,405.968,367.582,398.586z"/>
	<path style="fill:#273B7A;" d="M256,157.737L256,157.737c-9.521,0-17.239-7.718-17.239-17.239V74.99
		c0-9.521,7.718-17.239,17.239-17.239l0,0c9.521,0,17.239,7.718,17.239,17.239v65.508C273.239,150.019,265.521,157.737,256,157.737z
		"/>
</g>
<path style="fill:#121149;" d="M256,57.751c-0.193,0-0.381,0.022-0.574,0.029v99.928c0.193,0.007,0.381,0.029,0.574,0.029
	c9.521,0,17.239-7.718,17.239-17.239V74.99C273.239,65.469,265.521,57.751,256,57.751z"/>
</svg>