<?xml version="1.0" encoding="iso-8859-1"?>

<!DOCTYPE svg PUBLIC "-//W3C//DTD SVG 1.1//EN" "http://www.w3.org/Graphics/SVG/1.1/DTD/svg11.dtd">
<!-- Uploaded to: SVG Repo, www.svgrepo.com, Generator: SVG Repo Mixer Tools -->
<svg height="800px" width="800px" version="1.1" id="_x36_" xmlns="http://www.w3.org/2000/svg" xmlns:xlink="http://www.w3.org/1999/xlink" 
	 viewBox="0 0 512 512"  xml:space="preserve">
<g>
	<g>
		<g>
			<path style="fill:#F1EBD9;" d="M418.09,279.79c-0.845,0.615-1.767,1.229-2.765,1.767c-0.768,0.461-1.536,0.922-2.305,1.306
				h-0.076c-34.412,16.976-124.435-0.076-159.461-10.676c-10.447-2.305-25.271-6.529-41.478-12.06
				c-2.996-0.999-5.991-1.997-9.064-3.149c-4.685-1.613-9.371-3.38-14.057-5.3c-0.307-0.153-0.614-0.23-0.922-0.384
				c-1.997-0.691-3.994-1.46-5.914-2.227c-24.119-9.985-47.623-22.045-61.987-34.873c-5.838-5.223-10.139-10.6-12.367-15.976
				c-7.988-19.511,13.442-31.186,37.869-38.637c1.075-0.307,2.15-0.614,3.226-0.922c16.438-4.608,33.643-7.451,43.859-9.371
				c0,0-28.19-34.181-11.137-50.465c26.116-25.118,63.37-3.918,93.019-15.055c0.999-0.384,1.997-0.768,2.996-1.229
				c0.307-0.154,0.538-0.308,0.845-0.461c13.519-6.759,24.657-24.964,32.568-37.177c4.455-6.836,7.912-11.829,10.139-11.829
				c0.077,0,0.077,0,0.077,0c0.077,0,0.153,0.077,0.307,0.077c2.996,0.768,2.535,11.906,2.996,25.271
				c0.461,13.288,1.843,28.958,8.68,38.713c5.761,8.296,14.133,13.903,23.197,18.665c2.842,1.536,5.761,2.919,8.68,4.378
				c3.61,1.767,7.22,3.457,10.754,5.223c4.839,2.458,9.448,5.147,13.673,8.219c0.845,0.615,1.613,1.229,2.457,1.843
				c0.768,0.615,1.536,1.229,2.228,1.92c0.768,0.615,1.459,1.229,2.151,1.997c0.615,0.615,1.152,1.152,1.69,1.767
				c2.073,2.381,3.994,4.993,5.53,7.911c0.384,0.691,0.768,1.459,1.075,2.228c0.461,0.845,0.845,1.69,1.152,2.611
				c0.537,1.306,0.999,2.765,1.383,4.225c6.068,22.352-36.255,38.022-36.255,38.022C390.669,213.195,447.509,257.822,418.09,279.79z
				"/>
			<path style="fill:#4E3F39;" d="M421.162,325.416v11.522l-0.998,2.996l-24.734,76.043c-8.68,10.754-19.28,19.817-31.262,26.577
				c-4.762,2.765-9.678,5.146-14.825,7.143c-8.296,3.226-17.052,5.53-26.116,6.606c-3.38,0.461-6.836,0.691-10.292,0.768H139.879
				c-3.456-0.077-6.913-0.307-10.293-0.768c-9.064-1.076-17.82-3.38-26.193-6.606c-5.069-1.997-10.062-4.301-14.748-7.066
				c-11.983-6.836-22.66-15.9-31.339-26.654l-0.307-0.845l-24.426-75.198l-0.999-2.996v-11.522c0-7.604,0.768-15.132,2.15-22.352
				c1.306-6.606,3.226-13.058,5.608-19.279c0.999-2.612,2.074-5.147,3.303-7.681c12.444-26.039,34.258-46.701,60.988-56.994
				c2.151-0.845,4.301-1.613,6.452-2.227c1.076-0.384,2.151-0.692,3.226-0.999c2.227-0.692,4.455-1.229,6.759-1.69
				c7.22-1.536,14.748-2.381,22.429-2.381h167.756c2.458,0,4.916,0.077,7.297,0.308c4.609,0.23,9.217,0.845,13.673,1.766
				c9.755,1.92,19.126,5.223,27.806,9.525c24.349,12.367,43.706,33.567,53.922,59.376l0.076,0.076
				c0.077,0.308,0.231,0.615,0.385,0.922c1.766,4.685,3.303,9.448,4.455,14.287c0.461,1.613,0.768,3.303,1.152,4.992
				C420.395,310.284,421.162,317.812,421.162,325.416z"/>
			<path style="fill:#FDFAF6;" d="M348.883,173.022c0.384,3.38-0.231,6.99-1.92,10.908c-4.302,9.832-15.132,19.356-29.419,28.19
				c-11.061,6.913-24.272,13.365-38.098,19.203c-19.894,8.526-41.248,15.746-59.683,21.046c-2.842,0.845-5.531,1.613-8.219,2.381
				c-1.843,0.461-3.687,0.999-5.454,1.459c-0.768,0.154-1.536,0.384-2.304,0.615c-0.307,0-0.538,0.077-0.845,0.153
				c-5.915,1.536-11.215,2.689-15.746,3.61c-30.648,8.526-99.394,20.816-144.559,15.516c-14.441-1.613-26.5-5.147-34.027-11.061
				c-31.339-24.503,31.339-71.512,53.307-89.563c0,0-45.473-17.974-38.329-42.016c11.291-38.329,60.988-35.795,81.727-64.291
				c15.209-20.97,7.605-67.518,14.287-69.13c6.606-1.613,22.659,42.937,46.317,54.536c32.184,15.823,74.891-8.833,103.542,19.894
				c2.766,2.765,4.378,5.914,5.07,9.294c4.225,18.896-18.358,45.088-18.358,45.088c5.223,1.152,12.136,2.458,19.894,4.225
				c1.767,0.384,3.687,0.768,5.607,1.229c2.304,0.538,4.609,1.152,6.99,1.766c0.154,0,0.231,0.077,0.384,0.077
				c11.983,2.996,24.579,6.836,35.103,11.829c10.6,4.916,19.126,10.984,22.813,18.435c0.922,1.843,1.613,3.764,1.843,5.761
				C348.883,172.484,348.883,172.715,348.883,173.022z"/>
			<path style="opacity:0.03;fill:#040000;" d="M301.797,88.837c4.685,16.975-14.748,39.558-19.587,44.935
				c0,0.077-0.077,0.077-0.077,0.077c-0.154,0.23-0.307,0.307-0.461,0.461c-0.077,0.154-0.154,0.23-0.231,0.307
				c-1.844-0.538-3.61-1.076-5.376-1.536c-7.143-1.997-13.519-3.61-18.358-4.993c0,0,25.962-26.654,20.662-46.01v-0.077
				c13.519-6.99,24.58-25.118,32.414-37.254c4.609-7.067,8.066-12.136,10.293-11.675c0.077,0,0.077,0,0.077,0
				c3.072,0.845,2.611,11.752,2.996,25.041c0.153,2.611,0.23,5.3,0.461,7.988C318.158,75.241,310.477,84.305,301.797,88.837z"/>
			<path style="opacity:0.1;fill:#040000;" d="M356.862,190.533c-16.243,31.653-104.445,56.658-151.534,65.349
				c9.354,3.561,18.614,6.768,27.272,9.537c-13.851-3.598-32.055-9.279-50.686-16.378c47.088-8.692,135.29-33.696,151.534-65.349
				c12.424-24.189-21.184-40.102-52.143-50.125C314.336,142.48,372.625,159.861,356.862,190.533z"/>
			<g>
				<polygon style="fill:#A5D080;" points="99.783,511.992 63.605,511.992 61.377,501.085 45.938,426.193 43.403,413.98 
					29.193,344.773 28.195,339.934 20.59,303.064 66.293,303.064 72.208,339.934 80.503,391.628 88.645,442.631 				"/>
				<polygon style="fill:#F4F4F5;" points="135.954,512 99.785,512 72.22,339.948 66.3,303.03 112.044,303.03 116.27,339.948 				
					"/>
				<polygon style="fill:#A5D080;" points="172.123,512 135.954,512 116.27,339.948 112.044,303.03 157.77,303.03 160.301,339.948 
									"/>
				<polygon style="fill:#F4F4F5;" points="208.311,512 172.123,512 160.301,339.948 157.77,303.03 203.514,303.03 204.37,339.948 
									"/>
				<polygon style="fill:#A5D080;" points="249.258,303.03 248.421,339.948 244.48,512 208.311,512 204.37,339.948 203.514,303.03 
									"/>
				<polygon style="fill:#F4F4F5;" points="295.003,303.03 292.471,339.948 280.649,512 244.48,512 248.421,339.948 249.258,303.03 
									"/>
				<polygon style="fill:#A5D080;" points="340.747,303.03 336.521,339.948 316.818,512 280.649,512 292.471,339.948 
					295.003,303.03 				"/>
				<polygon style="fill:#F4F4F5;" points="386.492,303.03 380.571,339.948 353.007,512 316.818,512 336.521,339.948 
					340.747,303.03 				"/>
				<polygon style="fill:#A5D080;" points="432.236,303.03 424.621,339.948 389.176,512 353.007,512 380.571,339.948 
					386.492,303.03 				"/>
			</g>
			<ellipse style="fill:#D63A61;" cx="316.824" cy="205.107" rx="46.322" ry="44.538"/>
			<path style="fill:#D63A61;" d="M331.04,180.703c0,0,35.398-32.907,43.914-35.386v8.847l-30.588,21.049L331.04,180.703z"/>
			<g>
				<path style="fill:#D63A61;" d="M150.145,159.214c-1.316-0.885-3.115-0.856-4.389,0.208l-4.833,4.035
					c-1.274,1.064-1.617,2.822-0.971,4.266c0.134,0.301,0.296,0.593,0.519,0.857c1.291,1.533,3.606,1.735,5.145,0.45l4.833-4.035
					c1.539-1.285,1.743-3.59,0.452-5.123C150.68,159.608,150.419,159.398,150.145,159.214z"/>
				<path style="opacity:0.1;fill:#040000;" d="M149.174,163.48l-4.833,4.035c-1.274,1.064-3.072,1.093-4.389,0.208
					c0.134,0.301,0.296,0.593,0.519,0.857c1.291,1.533,3.606,1.735,5.145,0.45l4.833-4.035c1.539-1.285,1.743-3.59,0.452-5.123
					c-0.222-0.264-0.483-0.473-0.757-0.658C150.791,160.659,150.449,162.417,149.174,163.48z"/>
			</g>
			<g>
				<path style="fill:#DD933A;" d="M109.498,207.315c-1.849-1.017-3.598-0.667-4.185,1.046l-2.224,6.496
					c-0.587,1.713,0.178,4.24,1.718,6.158c0.321,0.399,0.663,0.781,1.046,1.114c2.229,1.93,4.632,1.817,5.341-0.252l2.224-6.496
					c0.708-2.069-0.536-5.341-2.765-7.272C110.27,207.776,109.883,207.527,109.498,207.315z"/>
				<path style="opacity:0.1;fill:#040000;" d="M111.216,213.473l-2.224,6.496c-0.586,1.713-2.336,2.063-4.185,1.046
					c0.321,0.399,0.663,0.781,1.046,1.114c2.229,1.93,4.632,1.817,5.341-0.252l2.224-6.496c0.708-2.069-0.536-5.341-2.765-7.272
					c-0.384-0.333-0.771-0.582-1.156-0.794C111.039,209.233,111.803,211.76,111.216,213.473z"/>
			</g>
			<g>
				<path style="fill:#63C0AC;" d="M192.344,173.232c-0.693-1.648-2.232-2.638-3.82-2.279l-6.023,1.361
					c-1.588,0.359-2.717,1.952-2.859,3.788c-0.03,0.382-0.032,0.771,0.031,1.166c0.363,2.291,2.229,3.811,4.148,3.378l6.023-1.361
					c1.918-0.433,3.191-2.663,2.828-4.954C192.609,173.936,192.488,173.575,192.344,173.232z"/>
				<path style="opacity:0.1;fill:#040000;" d="M189.484,177.02l-6.023,1.361c-1.588,0.359-3.127-0.632-3.82-2.279
					c-0.03,0.382-0.032,0.771,0.031,1.166c0.363,2.291,2.229,3.811,4.148,3.378l6.023-1.361c1.918-0.433,3.191-2.663,2.828-4.954
					c-0.063-0.395-0.184-0.756-0.328-1.099C192.202,175.068,191.072,176.662,189.484,177.02z"/>
			</g>
			<g>
				<path style="fill:#63C0AC;" d="M220.412,105.393c1.277-1.468,1.624-3.507,0.695-4.979l-3.524-5.587
					c-0.929-1.473-2.838-1.91-4.603-1.217c-0.367,0.144-0.731,0.32-1.075,0.564c-2.001,1.421-2.719,4.04-1.597,5.819l3.524,5.587
					c1.122,1.78,3.678,2.073,5.678,0.652C219.855,105.987,220.147,105.698,220.412,105.393z"/>
				<path style="opacity:0.1;fill:#040000;" d="M215.809,104.176l-3.524-5.587c-0.929-1.473-0.582-3.512,0.695-4.98
					c-0.367,0.144-0.731,0.32-1.075,0.564c-2.001,1.421-2.719,4.04-1.597,5.819l3.524,5.587c1.122,1.78,3.678,2.073,5.678,0.652
					c0.345-0.245,0.636-0.534,0.902-0.84C218.647,106.085,216.738,105.649,215.809,104.176z"/>
			</g>
			<g>
				<path style="fill:#AD509A;" d="M255.689,155.457c-0.068-2.084-0.783-3.926-1.815-4.385l-3.912-1.742
					c-1.032-0.459-2.049,0.611-2.524,2.453c-0.099,0.383-0.182,0.788-0.229,1.233c-0.268,2.582,0.533,5.149,1.779,5.704l3.912,1.742
					c1.246,0.555,2.485-1.104,2.753-3.686C255.699,156.331,255.703,155.891,255.689,155.457z"/>
				<path style="opacity:0.1;fill:#040000;" d="M253.165,157.91l-3.912-1.742c-1.032-0.459-1.747-2.301-1.815-4.385
					c-0.099,0.383-0.182,0.788-0.229,1.233c-0.268,2.582,0.533,5.149,1.779,5.704l3.912,1.742c1.246,0.555,2.485-1.104,2.753-3.686
					c0.046-0.445,0.05-0.885,0.036-1.319C255.214,157.299,254.197,158.37,253.165,157.91z"/>
			</g>
			<g>
				<path style="fill:#D63A61;" d="M239.096,200.128c-1.554-0.679-3.48-0.39-4.678,0.839l-4.544,4.662
					c-1.198,1.229-1.286,3.006-0.361,4.331c0.192,0.276,0.413,0.539,0.693,0.766c1.63,1.319,4.148,1.183,5.595-0.302l4.544-4.663
					c1.447-1.485,1.298-3.779-0.332-5.098C239.733,200.438,239.42,200.27,239.096,200.128z"/>
				<path style="opacity:0.1;fill:#040000;" d="M238.735,204.46l-4.544,4.662c-1.198,1.229-3.124,1.518-4.678,0.839
					c0.192,0.276,0.413,0.539,0.693,0.766c1.63,1.319,4.148,1.183,5.595-0.302l4.544-4.663c1.447-1.485,1.298-3.779-0.332-5.098
					c-0.281-0.227-0.594-0.395-0.917-0.537C240.02,201.454,239.933,203.231,238.735,204.46z"/>
			</g>
			<g>
				<path style="fill:#D63A61;" d="M54.253,246.259c-1.268-0.882-3.114-0.996-4.517-0.158l-5.322,3.178
					c-1.403,0.838-1.915,2.36-1.384,3.683c0.11,0.275,0.25,0.545,0.453,0.795c1.183,1.451,3.538,1.809,5.233,0.797l5.321-3.178
					c1.695-1.012,2.114-3.027,0.931-4.478C54.764,246.648,54.517,246.443,54.253,246.259z"/>
				<path style="opacity:0.1;fill:#040000;" d="M52.868,249.942l-5.322,3.178c-1.403,0.838-3.249,0.724-4.517-0.158
					c0.11,0.275,0.25,0.545,0.453,0.795c1.183,1.451,3.538,1.809,5.233,0.797l5.321-3.178c1.695-1.012,2.114-3.027,0.931-4.478
					c-0.204-0.25-0.452-0.455-0.716-0.638C54.783,247.582,54.271,249.104,52.868,249.942z"/>
			</g>
			<g>
				<path style="fill:#D63A61;" d="M156.153,94.414c-0.096-1.906-1.279-3.603-3.001-4.043l-6.533-1.668
					c-1.723-0.44-3.434,0.519-4.244,2.193c-0.169,0.349-0.312,0.717-0.393,1.123c-0.469,2.355,0.849,4.716,2.93,5.248l6.533,1.668
					c2.081,0.531,4.168-0.961,4.637-3.316C156.163,95.213,156.173,94.811,156.153,94.414z"/>
				<path style="opacity:0.1;fill:#040000;" d="M151.909,96.608l-6.533-1.668c-1.723-0.44-2.905-2.137-3.001-4.043
					c-0.169,0.349-0.312,0.717-0.393,1.123c-0.469,2.355,0.849,4.716,2.93,5.248l6.533,1.668c2.081,0.531,4.168-0.961,4.637-3.316
					c0.081-0.406,0.091-0.808,0.071-1.205C155.343,96.089,153.631,97.047,151.909,96.608z"/>
			</g>
			<g>
				<path style="fill:#BDD646;" d="M91.386,131.417c-1.372-0.966-3.219-0.887-4.503,0.345l-4.871,4.673
					c-1.284,1.232-1.596,3.224-0.898,4.838c0.145,0.336,0.318,0.661,0.552,0.953c1.361,1.697,3.744,1.867,5.296,0.378l4.871-4.673
					c1.551-1.489,1.707-4.095,0.346-5.791C91.944,131.848,91.672,131.618,91.386,131.417z"/>
				<path style="opacity:0.1;fill:#040000;" d="M90.488,136.255l-4.871,4.674c-1.284,1.232-3.131,1.311-4.503,0.345
					c0.145,0.336,0.318,0.661,0.552,0.953c1.361,1.697,3.744,1.867,5.296,0.378l4.871-4.673c1.551-1.489,1.707-4.095,0.346-5.791
					c-0.234-0.292-0.507-0.522-0.792-0.723C92.083,133.031,91.772,135.023,90.488,136.255z"/>
			</g>
			<g>
				<path style="fill:#DD933A;" d="M240.601,271.608c-0.638-2.192-2.156-3.589-3.775-3.234l-6.142,1.346
					c-1.62,0.355-2.823,2.348-3.036,4.727c-0.045,0.495-0.061,1.001-0.013,1.518c0.279,3.006,2.108,5.115,4.064,4.686l6.142-1.346
					c1.956-0.429,3.329-3.239,3.05-6.246C240.842,272.542,240.734,272.064,240.601,271.608z"/>
				<path style="opacity:0.1;fill:#040000;" d="M237.565,276.335l-6.142,1.346c-1.619,0.355-3.137-1.042-3.775-3.234
					c-0.045,0.495-0.061,1.001-0.013,1.518c0.279,3.006,2.108,5.115,4.064,4.686l6.142-1.346c1.956-0.429,3.329-3.239,3.05-6.246
					c-0.048-0.518-0.157-0.996-0.289-1.452C240.387,273.987,239.184,275.98,237.565,276.335z"/>
			</g>
			<g>
				<path style="fill:#BDD646;" d="M367.504,257.832c-0.871-2.342-2.801-3.748-4.79-3.233l-7.544,1.952
					c-1.989,0.515-3.402,2.784-3.576,5.397c-0.036,0.544-0.038,1.097,0.041,1.658c0.458,3.259,2.799,5.417,5.202,4.795l7.544-1.952
					c2.403-0.622,3.994-3.797,3.535-7.056C367.838,258.833,367.686,258.319,367.504,257.832z"/>
				<path style="opacity:0.1;fill:#040000;" d="M363.928,263.23l-7.544,1.952c-1.989,0.515-3.918-0.891-4.79-3.233
					c-0.036,0.544-0.038,1.097,0.041,1.658c0.458,3.259,2.799,5.417,5.202,4.795l7.544-1.952c2.403-0.622,3.994-3.797,3.535-7.056
					c-0.079-0.561-0.231-1.075-0.412-1.562C367.33,260.445,365.917,262.715,363.928,263.23z"/>
			</g>
			<g>
				<path style="fill:#D63A61;" d="M307.836,123.504c-0.405-1.773-1.418-2.942-2.523-2.717l-4.189,0.856
					c-1.105,0.226-1.947,1.774-2.123,3.666c-0.037,0.394-0.055,0.797-0.029,1.212c0.151,2.41,1.366,4.159,2.701,3.886l4.189-0.856
					c1.334-0.273,2.303-2.468,2.152-4.878C307.988,124.258,307.921,123.873,307.836,123.504z"/>
				<path style="opacity:0.1;fill:#040000;" d="M305.713,127.17l-4.189,0.856c-1.105,0.226-2.118-0.944-2.523-2.717
					c-0.037,0.394-0.055,0.797-0.029,1.212c0.151,2.41,1.366,4.159,2.701,3.886l4.189-0.856c1.334-0.273,2.303-2.468,2.152-4.878
					c-0.026-0.415-0.094-0.801-0.178-1.17C307.661,125.396,306.818,126.945,305.713,127.17z"/>
			</g>
			<polygon style="fill:#F1EBD9;" points="432.223,303.064 424.619,339.934 28.195,339.934 20.59,303.064 			"/>
		</g>
		<path style="opacity:0.09;fill:#040000;" d="M432.223,303.064l-7.604,36.87l-35.41,172.058H63.605l-2.227-10.907l-15.439-74.891
			l190.185-190.186l24.195-24.196l10.37-10.369l53.768-53.768l31.876-31.877c2.842,1.536,5.761,2.919,8.68,4.378
			c3.61,1.767,7.22,3.457,10.754,5.223c4.839,2.458,9.448,5.147,13.673,8.219c0.845,0.615,1.613,1.229,2.457,1.843
			c0.768,0.615,1.536,1.229,2.228,1.92c0.768,0.615,1.459,1.229,2.151,1.997c0.615,0.615,1.152,1.152,1.69,1.767
			c2.073,2.381,3.994,4.993,5.53,7.911c0.384,0.691,0.768,1.459,1.075,2.228c0.461,0.845,0.845,1.69,1.152,2.611
			c0.537,1.306,0.999,2.765,1.383,4.225c6.068,22.352-36.255,38.022-36.255,38.022c19.818,17.052,76.658,61.68,47.239,83.648
			c-0.845,0.615-1.767,1.229-2.765,1.767c-0.768,0.384-1.536,0.845-2.381,1.229v0.076h0.076c0.077,0.308,0.231,0.615,0.385,0.922
			c1.766,4.685,3.303,9.448,4.455,14.287c0.384,1.69,0.768,3.303,1.076,4.992H432.223z"/>
	</g>
</g>
</svg>