<?xml version="1.0" encoding="iso-8859-1"?>
<!-- Uploaded to: SVG Repo, www.svgrepo.com, Generator: SVG Repo Mixer Tools -->
<svg version="1.1" id="Layer_1" xmlns="http://www.w3.org/2000/svg" xmlns:xlink="http://www.w3.org/1999/xlink" 
	 viewBox="0 0 512.011 512.011" xml:space="preserve">
<g>
	<rect x="239.078" y="91.691" style="fill:#9F7953;" width="33.855" height="60.506"/>
</g>
<rect x="256.006" y="91.691" style="fill:#896746;" width="16.927" height="60.506"/>
<rect x="112.122" y="260.254" style="fill:#FF3D63;" width="287.767" height="251.757"/>
<path style="fill:#FFB64C;" d="M387.146,187.431c-35.286-33.635-81.859-52.158-131.141-52.158s-95.854,18.523-131.141,52.158
	c-35.507,33.845-55.062,78.636-55.062,126.122v3.362c0,38.991,32.906,70.711,73.352,70.711c22.663,0,42.959-9.96,56.425-25.576
	c13.466,15.616,33.762,25.576,56.425,25.576s42.959-9.96,56.425-25.576c13.466,15.616,33.762,25.576,56.425,25.576
	c40.447,0,73.352-31.72,73.352-70.711v-3.362C442.208,266.067,422.653,221.276,387.146,187.431z"/>
<rect x="256.006" y="260.254" style="fill:#FF0536;" width="143.884" height="251.757"/>
<path style="fill:#FF9800;" d="M387.146,187.431c-35.286-33.635-81.859-52.158-131.141-52.158v252.352
	c22.663,0,42.959-9.96,56.425-25.576c13.466,15.616,33.762,25.576,56.425,25.576c40.447,0,73.352-31.72,73.352-70.711v-3.362
	C442.208,266.067,422.653,221.276,387.146,187.431z"/>
<path style="fill:#FF623F;" d="M283.891,23.082c-8.726-8.793-17.412-15.286-17.776-15.557L256.006,0l-10.109,7.525
	c-0.366,0.272-9.051,6.764-17.776,15.557c-13.983,14.092-20.781,26.639-20.781,38.359c0,26.016,21.832,47.181,48.667,47.181
	s48.667-21.165,48.667-47.181C304.672,49.723,297.874,37.174,283.891,23.082z"/>
<path style="fill:#FF4F19;" d="M283.891,23.082c-8.726-8.793-17.412-15.286-17.776-15.557L256.006,0v108.623
	c26.835,0,48.667-21.165,48.667-47.181C304.672,49.723,297.874,37.174,283.891,23.082z"/>
</svg>