<?xml version="1.0" encoding="iso-8859-1"?>
<!-- Uploaded to: SVG Repo, www.svgrepo.com, Generator: SVG Repo Mixer Tools -->
<svg version="1.1" id="Layer_1" xmlns="http://www.w3.org/2000/svg" xmlns:xlink="http://www.w3.org/1999/xlink" 
	 viewBox="0 0 512 512" xml:space="preserve">
<path style="fill:#F9DCA4;" d="M449.952,282.048l-6.618,41.587l-24.325,152.714c-2.616,16.454-16.816,28.568-33.486,28.568H126.479
	c-16.671,0-30.871-12.114-33.486-28.568L68.656,323.635l-6.63-41.587l92.202-111.031l226.618,39.779L449.952,282.048z"/>
<g>
	<path style="fill:#E7C080;" d="M449.957,282.049l-6.618,41.587c-6.449,1.483-13.163,2.266-20.058,2.266
		c-29.846,0-56.233-14.754-72.313-37.356c-24.904,23.168-58.282,37.356-94.975,37.356s-70.071-14.188-94.975-37.356
		c-16.08,22.602-42.467,37.356-72.313,37.356c-6.895,0-13.609-0.784-20.046-2.266l-6.63-41.587l92.202-111.031l226.618,39.779
		L449.957,282.049z"/>
	<path style="fill:#E7C080;" d="M157.678,504.918h-31.206c-16.667,0-30.863-12.113-33.485-28.573L58.054,257.052l73.419-20.012
		L157.678,504.918z"/>
</g>
<g>
	<polygon style="fill:#D5A03C;" points="386.861,264.967 363.392,504.917 345.226,504.917 368.876,263.207 	"/>
	<polygon style="fill:#D5A03C;" points="166.764,504.917 148.599,504.917 125.117,264.967 143.114,263.207 	"/>
	<rect x="246.965" y="277.077" style="fill:#D5A03C;" width="18.081" height="227.835"/>
</g>
<path style="fill:#EC589B;" d="M512,197.417c0,48.988-39.718,88.706-88.719,88.706c-29.846,0-56.233-14.754-72.313-37.356
	c-24.904,23.168-58.282,37.356-94.975,37.356s-70.071-14.188-94.975-37.356c-16.08,22.602-42.467,37.356-72.313,37.356
	C39.718,286.123,0,246.405,0,197.417c0-42.877,30.413-78.641,70.83-86.91c5.774-1.181,11.753-1.808,17.876-1.808
	c11.102,0,21.722,2.061,31.522,5.786C134.741,52.924,189.997,7.082,255.994,7.082S377.247,52.924,391.76,114.484
	c9.8-3.725,20.42-5.786,31.522-5.786c4.4,0,8.727,0.325,12.958,0.94C479.092,115.907,512,152.816,512,197.417z"/>
<g>
	<path style="fill:#D3468D;" d="M436.24,109.639c-34.39,4.484-68.576,48.446-68.576,48.446c0-30.738,24.096-43.6,24.096-43.6
		c9.8-3.725,20.42-5.786,31.522-5.786C427.681,108.698,432.009,109.024,436.24,109.639z"/>
	<path style="fill:#D3468D;" d="M88.706,286.123C39.718,286.123,0,246.405,0,197.417c0-42.877,30.413-78.641,70.83-86.91
		C70.83,110.506-22.095,202.636,88.706,286.123z"/>
	<path style="fill:#D3468D;" d="M175.93,163.786l-55.702-49.301C134.741,52.924,189.998,7.082,255.994,7.082
		C255.994,7.082,155.691,54.913,175.93,163.786z"/>
</g>
</svg>