<?xml version="1.0" encoding="iso-8859-1"?>
<!-- Uploaded to: SVG Repo, www.svgrepo.com, Generator: SVG Repo Mixer Tools -->
<svg version="1.1" id="Layer_1" xmlns="http://www.w3.org/2000/svg" xmlns:xlink="http://www.w3.org/1999/xlink" 
	 viewBox="0 0 508 508" xml:space="preserve">
<path style="fill:#FFFFFF;" d="M225.8,83.85H42.3c-7.8,0-14.1,6.3-14.1,14.1v312.1c0,7.8,6.3,14.1,14.1,14.1h183.4
	c7.8,0,14.1-6.3,14.1-14.1V97.95C239.9,90.25,233.6,83.85,225.8,83.85z"/>
<path style="fill:#194F82;" d="M465.7,211.95h-49.4c-7.8,0-14.1-6.3-14.1-14.1v-59.4c0-23.3-19-42.3-42.3-42.3H268
	c-1-22.5-19.5-40.5-42.2-40.5h-35.9v-41.5c0-7.8-6.3-14.1-14.1-14.1H92.3c-7.8,0-14.1,6.3-14.1,14.1v41.5H42.3
	C19,55.65,0,74.65,0,97.95v312.1c0,23.3,19,42.3,42.3,42.3h14.2v41.5c0,7.8,6.3,14.1,14.1,14.1h126.9c7.8,0,14.1-6.3,14.1-14.1
	v-41.5h14.2c23.3,0,42.3-19,42.3-42.3v-6.7h197.6c23.3,0,42.3-19,42.3-42.3v-106.7C508,230.95,489,211.95,465.7,211.95z
	 M106.4,28.25h55.3v27.4h-55.3C106.4,55.65,106.4,28.25,106.4,28.25z M183.4,479.85H84.7v-27.4h98.6v27.4H183.4z M239.9,410.15
	c0,7.8-6.3,14.1-14.1,14.1H42.3c-7.8,0-14.1-6.3-14.1-14.1V97.95c0-7.8,6.3-14.1,14.1-14.1h183.4c7.8,0,14.1,6.3,14.1,14.1v312.2
	H239.9z M479.8,361.15c0,7.8-6.3,14.1-14.1,14.1H268.1v-250.9h91.7c7.8,0,14.1,6.3,14.1,14.1v59.4c0,23.3,19,42.3,42.3,42.3h49.4
	c7.8,0,14.1,6.3,14.1,14.1v106.9H479.8z"/>
<path style="fill:#56ACE0;" d="M56.4,112.15v43h60.2c7.8,0,14.1,6.3,14.1,14.1s-6.3,14.1-14.1,14.1H56.4v36.7h17.9
	c7.8,0,14.1,6.3,14.1,14.1s-6.3,14.1-14.1,14.1H56.4v147.8h155.2v-283.9H56.4z"/>
<path style="fill:#194F82;" d="M183.4,116.35c-7.8,0-14.1,6.3-14.1,14.1v247.3c0,7.8,6.3,14.1,14.1,14.1s14.1-6.3,14.1-14.1v-247.3
	C197.5,122.65,191.2,116.35,183.4,116.35z"/>
<g>
	<rect x="106.4" y="28.25" style="fill:#FFFFFF;" width="55.3" height="27.4"/>
	<rect x="84.7" y="452.45" style="fill:#FFFFFF;" width="98.6" height="27.4"/>
</g>
<path style="fill:#FFC10D;" d="M465.7,240.25h-49.4c-23.3,0-42.3-19-42.3-42.3v-59.4c0-7.8-6.3-14.1-14.1-14.1h-91.7v250.9h197.6
	c7.8,0,14.1-6.3,14.1-14.1v-106.9C479.8,246.55,473.4,240.25,465.7,240.25z"/>
<g>
	<path style="fill:#194F82;" d="M335,328.05h-21.3c-7.8,0-14.1,6.3-14.1,14.1c0,7.8,6.3,14.1,14.1,14.1H335
		c7.8,0,14.1-6.3,14.1-14.1C349.1,334.35,342.8,328.05,335,328.05z"/>
	<path style="fill:#194F82;" d="M434.2,328.05h-21.3c-7.8,0-14.1,6.3-14.1,14.1c0,7.8,6.3,14.1,14.1,14.1h21.3
		c7.8,0,14.1-6.3,14.1-14.1C448.3,334.35,442,328.05,434.2,328.05z"/>
	<path style="fill:#194F82;" d="M335,143.25h-21.3c-7.8,0-14.1,6.3-14.1,14.1s6.3,14.1,14.1,14.1H335c7.8,0,14.1-6.3,14.1-14.1
		S342.8,143.25,335,143.25z"/>
</g>
</svg>