<?xml version="1.0" encoding="iso-8859-1"?>
<!-- Uploaded to: SVG Repo, www.svgrepo.com, Generator: SVG Repo Mixer Tools -->
<svg height="800px" width="800px" version="1.1" id="Layer_1" xmlns="http://www.w3.org/2000/svg" xmlns:xlink="http://www.w3.org/1999/xlink" 
	 viewBox="0 0 392.598 392.598" xml:space="preserve">
<path style="fill:#FFC10D;" d="M370.747,196.299c0,96.194-78.287,174.481-174.481,174.481S21.786,292.493,21.786,196.299
	S100.073,21.818,196.267,21.818S370.747,100.105,370.747,196.299z"/>
<path style="fill:#FFFFFF;" d="M217.277,196.17c0-11.572-9.438-20.945-20.945-20.945c-11.572,0-20.945,9.438-20.945,20.945
	c0,11.572,9.438,20.945,20.945,20.945C207.838,217.115,217.277,207.741,217.277,196.17z"/>
<g>
	<path style="fill:#194F82;" d="M292.784,189.64c27.281,0,49.519-22.174,49.519-49.519s-22.174-49.519-49.519-49.519
		c-27.281,0-49.519,22.174-49.519,49.519S265.503,189.64,292.784,189.64z M292.784,112.453c15.321,0,27.669,12.412,27.669,27.669
		c0,15.192-12.412,27.669-27.669,27.669c-15.321,0-27.669-12.412-27.669-27.669C265.115,124.929,277.463,112.453,292.784,112.453z"
		/>
	<path style="fill:#194F82;" d="M343.855,249.632c0-27.281-22.174-49.519-49.519-49.519c-27.281,0-49.519,22.174-49.519,49.519
		c0,27.345,22.303,49.455,49.584,49.455S343.855,276.913,343.855,249.632z M294.4,277.301c-15.321,0-27.669-12.412-27.669-27.669
		c0-15.257,12.412-27.669,27.669-27.669c15.321,0,27.669,12.412,27.669,27.669C322.069,264.889,309.657,277.301,294.4,277.301z"/>
	<path style="fill:#194F82;" d="M99.749,202.958c-27.281,0-49.519,22.174-49.519,49.519s22.174,49.519,49.519,49.519
		c27.281,0,49.519-22.174,49.519-49.519S127.03,202.958,99.749,202.958z M99.749,280.145c-15.321,0-27.669-12.412-27.669-27.669
		c0-15.257,12.412-27.669,27.669-27.669s27.669,12.412,27.669,27.669C127.418,267.733,115.071,280.145,99.749,280.145z"/>
	<path style="fill:#194F82;" d="M98.133,192.485c27.281,0,49.519-22.174,49.519-49.519s-22.238-49.455-49.519-49.455
		s-49.519,22.174-49.519,49.519S70.853,192.485,98.133,192.485z M98.133,115.297c15.321,0,27.669,12.412,27.669,27.669
		s-12.412,27.669-27.669,27.669s-27.669-12.347-27.669-27.669S82.812,115.297,98.133,115.297z"/>
	<path style="fill:#194F82;" d="M196.267,153.503c-23.596,0-42.796,19.135-42.796,42.796s19.135,42.796,42.796,42.796
		s42.796-19.135,42.796-42.796S219.863,153.503,196.267,153.503z M196.267,217.244c-11.572,0-20.945-9.438-20.945-20.945
		c0-11.572,9.438-20.945,20.945-20.945c11.572,0,20.945,9.438,20.945,20.945C217.212,207.871,207.838,217.244,196.267,217.244z"/>
	<path style="fill:#194F82;" d="M381.673,370.78h-95.677c63.224-32.711,106.537-98.586,106.537-174.481
		c0-108.283-87.984-196.267-196.267-196.267S0,88.016,0,196.299s87.984,196.267,196.267,196.267c2.651,0,185.406,0,185.406,0
		c6.012,0,10.925-4.848,10.925-10.925C392.533,375.628,387.685,370.78,381.673,370.78z M21.786,196.299
		c0-96.194,78.287-174.481,174.481-174.481s174.481,78.287,174.481,174.481S292.461,370.78,196.267,370.78
		S21.786,292.493,21.786,196.299z"/>
	<path style="fill:#194F82;" d="M196.267,134.174c27.281,0,49.519-22.174,49.519-49.519s-22.238-49.519-49.519-49.519
		s-49.519,22.174-49.519,49.519S168.986,134.174,196.267,134.174z M196.267,56.986c15.321,0,27.669,12.412,27.669,27.669
		s-12.412,27.669-27.669,27.669c-15.192,0-27.669-12.412-27.669-27.669S180.945,56.986,196.267,56.986z"/>
	<path style="fill:#194F82;" d="M196.267,258.424c-27.281,0-49.519,22.174-49.519,49.519c0,27.345,22.174,49.519,49.519,49.519
		c27.281,0,49.519-22.174,49.519-49.519C245.786,280.598,223.547,258.424,196.267,258.424z M196.267,335.612
		c-15.321,0-27.669-12.412-27.669-27.669c0-15.321,12.412-27.669,27.669-27.669c15.192,0,27.669,12.412,27.669,27.669
		C223.935,323.265,211.588,335.612,196.267,335.612z"/>
</g>
<circle style="fill:#56ACE0;" cx="292.784" cy="140.121" r="27.669"/>
<g>
	<circle style="fill:#FFFFFF;" cx="196.267" cy="84.655" r="27.669"/>
	<circle style="fill:#FFFFFF;" cx="98.133" cy="143.03" r="27.669"/>
</g>
<circle style="fill:#56ACE0;" cx="99.749" cy="252.477" r="27.669"/>
<g>
	<circle style="fill:#FFFFFF;" cx="196.267" cy="307.943" r="27.669"/>
	<circle style="fill:#FFFFFF;" cx="294.335" cy="249.568" r="27.669"/>
</g>
</svg>