<?xml version="1.0" encoding="utf-8"?>
<!-- Uploaded to: SVG Repo, www.svgrepo.com, Generator: SVG Repo Mixer Tools -->
<svg width="800px" height="800px" viewBox="0 0 1024 1024" class="icon"  version="1.1" xmlns="http://www.w3.org/2000/svg"><path d="M960 512c0 249.408-203.2 448-448 448-244.778667 0-448-198.592-448-448S262.592 64 512 64s448 198.592 448 448" fill="#2196F3" /><path d="M507.52 718.08c0-8.96-4.48-13.44-13.44-17.92-26.88-8.96-53.76-8.96-76.16-31.381333-4.48-8.96-4.48-17.92-8.96-26.88-8.96-8.96-31.36-13.44-44.8-17.92h-89.6c-13.44-4.48-22.4-22.4-31.36-35.84 0-4.48 0-13.461333-8.96-13.461334-8.96-4.458667-17.92 4.501333-26.88 0-4.48-4.458667-4.48-8.96-4.48-13.418666 0-13.461333 8.96-26.901333 17.92-35.861334 13.44-8.96 26.88 4.48 40.32 4.48 4.48 0 4.48 0 8.96 4.48 13.44 4.48 17.92 22.4 17.92 35.861334v8.96c0 4.48 4.48 4.48 8.96 4.48 4.48-22.4 4.48-44.821333 8.96-67.2 0-26.88 26.88-53.781333 49.28-62.72 8.96-4.458667 13.44 4.501333 22.4 0 26.88-8.96 94.08-35.84 80.64-71.658667-8.96-31.381333-35.84-62.698667-71.68-58.24-8.96 4.501333-13.44 8.96-22.4 13.461333-13.44 8.96-40.32 35.84-53.76 35.84-22.4-4.48-22.4-35.84-17.92-49.301333 4.48-17.92 44.8-76.138667 71.68-67.178667l17.92 17.92c8.96 4.48 22.4 4.48 35.84 4.48 4.48 0 8.96 0 13.44-4.48 4.48-4.48 4.48-4.48 4.48-8.96 0-13.44-13.44-26.901333-22.4-35.861333s-22.4-17.92-35.84-22.378667c-44.8-13.461333-116.48 4.458667-152.32 35.84-35.84 31.36-62.72 85.12-80.64 129.92-8.96 26.88-17.92 62.698667-22.4 94.08-4.48 22.4-8.96 40.32 4.48 62.698667 13.44 26.88 40.32 53.781333 67.2 71.68 17.92 13.44 53.76 13.44 71.68 35.84 13.44 17.941333 8.96 40.32 8.96 62.72 0 26.88 17.92 49.28 26.88 71.658667 4.48 13.461333 8.96 31.381333 13.44 44.821333 0 4.48 4.48 31.36 4.48 35.84 26.88 13.44 49.28 26.901333 80.64 35.861333 4.48 0 22.4-26.901333 22.4-31.381333 13.44-13.44 22.4-31.36 35.84-40.32 8.96-4.48 17.92-8.96 26.88-17.941333 8.96-8.96 13.44-26.88 17.92-40.32 4.48-8.938667 8.96-26.858667 4.48-40.298667M516.48 305.92c4.48 0 8.96-4.48 17.92-8.96 13.44-8.96 26.901333-22.4 40.32-31.36 13.461333-8.96 26.901333-22.4 35.861333-31.36 13.44-8.96 22.4-26.88 26.88-40.341333 4.48-8.96 17.941333-26.88 13.44-40.32-4.48-8.96-26.88-13.44-35.84-17.92C579.2 126.698667 547.84 122.24 512 122.24c-13.44 0-31.36 4.458667-35.84 17.92-4.48 22.4 13.44 17.92 31.36 22.4 0 0 4.48 35.84 4.48 40.32 4.48 22.421333-8.96 35.84-8.96 58.24 0 13.44 0 35.84 8.96 44.8h4.48zM892.8 619.52c4.501333-8.96 4.501333-22.4 8.96-31.36 4.501333-22.421333 4.501333-44.8 4.501333-67.2 0-44.8-4.501333-89.578667-17.92-129.92-8.96-13.44-13.461333-26.88-17.941333-40.341333-8.96-22.378667-22.4-44.8-40.32-62.698667-17.92-22.4-40.341333-85.12-80.64-67.2-13.44 4.501333-22.4 22.421333-31.36 31.381333l-26.88 40.32c-4.501333 4.48-8.96 13.44-4.501333 17.92 0 4.48 4.501333 4.48 8.96 4.48 8.96 4.501333 13.461333 4.501333 22.421333 8.96 4.48 0 8.96 4.501333 4.48 8.96 0 0 0 4.501333-4.48 4.501334-22.421333 22.4-44.8 40.32-67.2 62.698666-4.48 4.48-8.96 13.44-8.96 17.92s4.48 4.48 4.48 8.96c0 4.501333-4.48 4.501333-8.96 8.96-8.96 4.501333-17.92 8.96-22.4 13.461334-4.48 8.96 0 22.4-4.48 31.36-4.48 22.4-17.941333 40.32-26.901333 62.72-8.96 13.418667-13.418667 26.88-22.378667 40.32 0 17.92-4.501333 31.36 4.458667 44.8 22.421333 31.36 62.72 13.44 94.08 26.901333 8.96 4.458667 17.92 4.458667 22.421333 13.418667 13.418667 13.461333 13.418667 35.861333 17.92 49.301333 4.458667 17.92 8.96 35.84 17.92 53.76 4.48 22.421333 13.44 44.821333 17.92 62.72 40.341333-31.36 76.16-67.178667 103.04-112 26.88-31.424 40.341333-67.242667 53.76-103.104" fill="#CDDC39" /></svg>