<?xml version="1.0" ?>
<!DOCTYPE svg  PUBLIC '-//W3C//DTD SVG 1.1//EN'  'http://www.w3.org/Graphics/SVG/1.1/DTD/svg11.dtd'>
<!-- Uploaded to: SVG Repo, www.svgrepo.com, Generator: SVG Repo Mixer Tools -->
<svg width="800px" height="800px" viewBox="0 0 32 32" enable-background="new 0 0 32 32" version="1.1" xml:space="preserve" xmlns="http://www.w3.org/2000/svg" xmlns:xlink="http://www.w3.org/1999/xlink">
<g id="Security02"/>
<g id="Security03"/>
<g id="Security04"/>
<g id="Security05"/>
<g id="Security06"/>
<g id="Security07"/>
<g id="Security08"/>
<g id="Security09"/>
<g id="Security10"/>
<g id="Security11"/>
<g id="Security12"/>
<g id="Security13"/>
<g id="Security14">
<g>
<g>
<path d="M23,17H9c-0.5522,0-1-0.4478-1-1V9c0-4.4111,3.5889-8,8-8s8,3.5889,8,8v7C24,16.5522,23.5527,17,23,17z      M10,15h12V9c0-3.3086-2.6914-6-6-6s-6,2.6914-6,6V15z" fill="#FFC10A"/>
</g>
</g>
<g>
<g>
<path d="M27,16v6c0,4.96-4.04,9-9,9h-4c-4.96,0-9-4.04-9-9v-6c0-0.55,0.45-1,1-1h20C26.55,15,27,15.45,27,16z" fill="#2197F3"/>
</g>
</g>
<path d="M19,21c0,1.3-0.84,2.4-2,2.82V26c0,0.55-0.45,1-1,1s-1-0.45-1-1v-2.18c-1.16-0.42-2-1.52-2-2.82   c0-1.65,1.35-3,3-3S19,19.35,19,21z" fill="#FFFFFF"/>
</g>
<g id="Security15"/>
<g id="Security16"/>
<g id="Security17"/>
<g id="Security18"/>
<g id="Security19"/>
<g id="Security20"/>
<g id="Security21"/>
</svg>