<?xml version="1.0" ?>
<!DOCTYPE svg  PUBLIC '-//W3C//DTD SVG 1.1//EN'  'http://www.w3.org/Graphics/SVG/1.1/DTD/svg11.dtd'>
<!-- Uploaded to: SVG Repo, www.svgrepo.com, Generator: SVG Repo Mixer Tools -->
<svg width="800px" height="800px" viewBox="0 0 32 32" enable-background="new 0 0 32 32" version="1.1" xml:space="preserve" xmlns="http://www.w3.org/2000/svg" xmlns:xlink="http://www.w3.org/1999/xlink">
<g id="Security02"/>
<g id="Security03"/>
<g id="Security04"/>
<g id="Security05"/>
<g id="Security06"/>
<g id="Security07"/>
<g id="Security08"/>
<g id="Security09"/>
<g id="Security10"/>
<g id="Security11"/>
<g id="Security12">
<g>
<path d="M19,16.42V24h1c0.55,0,1,0.45,1,1v3c0,0.38-0.21,0.73-0.55,0.89l-4,2C16.3,30.97,16.15,31,16,31    c-0.26,0-0.51-0.1-0.71-0.29l-2-2C13.11,28.52,13,28.27,13,28V16.42C9.98,15.21,8,12.31,8,9c0-4.41,3.59-8,8-8s8,3.59,8,8    C24,12.31,22.02,15.21,19,16.42z" fill="#2197F3"/>
</g>
<g>
<path d="M19,9c0,1.65-1.35,3-3,3s-3-1.35-3-3c0-1.65,1.35-3,3-3S19,7.35,19,9z" fill="#FFC10A"/>
</g>
</g>
<g id="Security13"/>
<g id="Security14"/>
<g id="Security15"/>
<g id="Security16"/>
<g id="Security17"/>
<g id="Security18"/>
<g id="Security19"/>
<g id="Security20"/>
<g id="Security21"/>
</svg>