<?xml version="1.0" encoding="iso-8859-1"?>
<!-- Uploaded to: SVG Repo, www.svgrepo.com, Generator: SVG Repo Mixer Tools -->
<svg version="1.1" id="Layer_1" xmlns="http://www.w3.org/2000/svg" xmlns:xlink="http://www.w3.org/1999/xlink" 
	 viewBox="0 0 512 512" xml:space="preserve">
<path d="M413.376,325.784V66.496c-0.032-6.208-5.072-11.232-11.28-11.248H48.912c-6.208,0.016-11.24,5.04-11.272,11.248v259.296
	h375.736V325.784z"/>
<g>
	<rect y="325.792" style="fill:#E21B1B;" width="450.96" height="7.52"/>
	<polygon style="fill:#E21B1B;" points="428.416,348.344 22.552,348.344 0,333.312 450.968,333.312 	"/>
</g>
<g style="opacity:0.7;">
	<path style="fill:#FFFFFF;" d="M263.392,325.792h-75.816c0.664,4.288,4.32,7.464,8.656,7.52h58.488
		C259.056,333.264,262.728,330.088,263.392,325.792z"/>
</g>
<rect x="52.456" y="70.04" style="fill:#FFFFFF;" width="346.08" height="255.752"/>
<circle style="fill:#A2A9AA;" cx="225.2" cy="62.656" r="2.568"/>
<g style="opacity:0.15;">
	<polygon style="fill:#FFFFFF;" points="37.64,207.752 37.64,55.224 218.872,55.224 	"/>
</g>
<path d="M503.552,456.776H373.76c-4.664-0.016-8.432-3.784-8.448-8.448v-259.16c0.016-4.664,3.784-8.432,8.448-8.448h129.792
	c4.664,0.016,8.432,3.784,8.448,8.448v259.16C511.984,452.992,508.216,456.768,503.552,456.776z"/>
<rect x="372.84" y="203.448" style="fill:#E21B1B;" width="131.64" height="223.312"/>
<g>
	<circle style="fill:#AAAAAA;" cx="445.448" cy="188.024" r="2.224"/>
	<path style="fill:#AAAAAA;" d="M459.624,198.328h-28.352c-0.92,0-1.672-0.752-1.672-1.672v-1.112c0-0.92,0.752-1.672,1.672-1.672
		h28.36c0.92,0,1.672,0.752,1.672,1.672v1.112C461.296,197.576,460.552,198.328,459.624,198.328z"/>
	<circle style="fill:#AAAAAA;" cx="422.912" cy="196.104" r="2.224"/>
</g>
<g style="opacity:0.15;">
	<polygon style="fill:#FFFFFF;" points="372.84,296.824 372.84,203.448 483.776,203.448 	"/>
</g>
<circle style="fill:#AAAAAA;" cx="438.656" cy="441.76" r="11.032"/>
<path style="fill:#FFFFFF;" d="M438.656,447.016c-2.904,0-5.264-2.36-5.264-5.264c0-2.904,2.36-5.264,5.264-5.264
	c2.904,0,5.264,2.36,5.264,5.264S441.56,447.016,438.656,447.016L438.656,447.016z M438.656,437.928
	c-2.112,0-3.824,1.712-3.824,3.824s1.712,3.824,3.824,3.824s3.824-1.712,3.824-3.824v-0.008c-0.008-2.104-1.72-3.808-3.824-3.808
	V437.928z"/>
</svg>