<?xml version="1.0" encoding="iso-8859-1"?>
<!-- Uploaded to: SVG Repo, www.svgrepo.com, Generator: SVG Repo Mixer Tools -->
<svg version="1.1" id="Layer_1" xmlns="http://www.w3.org/2000/svg" xmlns:xlink="http://www.w3.org/1999/xlink" 
	 viewBox="0 0 512 512" xml:space="preserve">
<g>
	<path style="fill:#E21B1B;" d="M413.376,325.792V66.496c-0.008-6.232-5.048-11.28-11.28-11.296H48.912
		c-6.224,0.016-11.264,5.072-11.272,11.296v259.296H413.376z"/>
	<rect y="325.8" style="fill:#E21B1B;" width="450.96" height="7.52"/>
</g>
<polygon style="fill:#C40606;" points="428.416,348.344 22.552,348.344 0,333.312 450.968,333.312 "/>
<g style="opacity:0.7;">
	<path style="fill:#FFFFFF;" d="M263.392,325.8h-75.816c0.664,4.288,4.32,7.464,8.656,7.52h58.488
		C259.056,333.272,262.728,330.088,263.392,325.8z"/>
</g>
<rect x="52.456" y="70.048" width="346.08" height="255.752"/>
<circle style="fill:#A2A9AA;" cx="225.2" cy="62.664" r="2.568"/>
<g style="opacity:0.15;">
	<polygon style="fill:#FFFFFF;" points="37.64,207.752 37.64,55.216 218.872,55.216 	"/>
</g>
<path d="M503.552,456.8H373.76c-4.664-0.016-8.432-3.784-8.448-8.448V189.176c0.008-4.664,3.784-8.44,8.448-8.456h129.792
	c4.664,0.016,8.44,3.792,8.448,8.456v259.152C512,453,508.224,456.784,503.552,456.8z"/>
<rect x="372.84" y="203.448" style="fill:#E21B1B;" width="131.64" height="223.312"/>
<g>
	<circle style="fill:#AAAAAA;" cx="445.448" cy="188.024" r="2.224"/>
	<path style="fill:#AAAAAA;" d="M459.624,198.32h-28.352c-0.92,0-1.672-0.752-1.672-1.672v-1.112c0-0.92,0.752-1.672,1.672-1.672
		h28.36c0.92,0,1.672,0.752,1.672,1.672v1.112C461.296,197.576,460.552,198.32,459.624,198.32z"/>
	<circle style="fill:#AAAAAA;" cx="422.912" cy="196.096" r="2.224"/>
</g>
<g style="opacity:0.15;">
	<polygon style="fill:#FFFFFF;" points="372.84,296.816 372.84,203.448 483.776,203.448 	"/>
</g>
<circle style="fill:#AAAAAA;" cx="438.656" cy="441.76" r="11.032"/>
<path style="fill:#FFFFFF;" d="M438.656,447.024c-2.904,0-5.264-2.36-5.264-5.264c0-2.904,2.36-5.264,5.264-5.264
	c2.904,0,5.264,2.36,5.264,5.264S441.56,447.024,438.656,447.024L438.656,447.024z M438.656,437.936
	c-2.112,0-3.824,1.712-3.824,3.824s1.712,3.824,3.824,3.824s3.824-1.712,3.824-3.824v-0.008
	C442.472,439.64,440.768,437.936,438.656,437.936z"/>
</svg>