<?xml version="1.0" encoding="iso-8859-1"?>

<!DOCTYPE svg PUBLIC "-//W3C//DTD SVG 1.1//EN" "http://www.w3.org/Graphics/SVG/1.1/DTD/svg11.dtd">
<!-- Uploaded to: SVG Repo, www.svgrepo.com, Generator: SVG Repo Mixer Tools -->
<svg height="800px" width="800px" version="1.1" id="_x34_" xmlns="http://www.w3.org/2000/svg" xmlns:xlink="http://www.w3.org/1999/xlink" 
	 viewBox="0 0 512 512"  xml:space="preserve">
<g>
	<path style="fill:#1D1E1E;" d="M453.166,9.634v255.394c0,5.271-4.363,9.634-9.634,9.634H68.469c-5.272,0-9.634-4.363-9.634-9.634
		V9.634C58.835,4.302,63.197,0,68.469,0h375.063C448.803,0,453.166,4.302,453.166,9.634z"/>
	<polygon style="fill:#9F9E9F;" points="231.451,60.172 231.454,60.185 231.454,60.172 	"/>
	<polygon style="opacity:0.3;fill:#F4F4F5;" points="231.454,63.523 232.25,63.523 231.454,60.185 	"/>
	<g>
		<path style="fill:#282828;" d="M435.973,30.841v219.851c0,7.167-5.878,13.004-13.094,13.004H86.623
			c-0.99,0-1.921-0.115-2.852-0.347c-5.877-1.271-10.242-6.473-10.242-12.657V30.841c0-7.166,5.877-13.004,13.094-13.004h336.256
			C430.095,17.837,435.973,23.674,435.973,30.841z"/>
		<path style="fill:#333333;" d="M378.126,17.837L130.968,263.349h-55.17c-1.222,0-2.269-1.04-2.269-2.312V30.841
			c0-7.166,5.877-13.004,13.094-13.004H378.126z"/>
	</g>
	<path style="fill:#C8C7C7;" d="M512,252.728l-0.788,2.848l-3.393,11.997c0,3.938-4.726,7.089-10.543,7.089H14.724
		c-5.817,0-10.543-3.151-10.543-7.089l-2.666-9.392l-1.454-5.211L0,252.728H512z"/>
	<path style="fill:#666767;" d="M329.112,252.733L329.112,252.733c0,3.905-3.166,7.071-7.071,7.071H189.959
		c-3.905,0-7.071-3.166-7.071-7.071l0,0H329.112z"/>
	<path style="opacity:0.5;fill:#F4F4F5;" d="M512,252.728v2.848H330.952c0,3.878-4.847,7.029-10.846,7.029H191.894
		c-5.999,0-10.846-3.151-10.846-7.029H0v-2.848h182.866c0,0.616,0.204,1.165,0.352,1.733c1.154,3.085,5.273,5.356,10.252,5.356
		h125.061c4.979,0,9.098-2.271,10.251-5.356c0.147-0.569,0.352-1.117,0.352-1.733H512z"/>
	<path style="opacity:0.1;fill:#FFFFFF;" d="M268.967,252.728l-8.362,7.089l-3.332,2.787l-4.241,3.575l-9.997,8.483H14.724
		c-5.817,0-10.543-3.151-10.543-7.089l-2.666-9.392l-1.454-5.211L0,252.728H268.967z"/>
</g>
</svg>