<?xml version="1.0" encoding="iso-8859-1"?>
<!-- Uploaded to: SVG Repo, www.svgrepo.com, Generator: SVG Repo Mixer Tools -->
<svg version="1.1" id="Layer_1" xmlns="http://www.w3.org/2000/svg" xmlns:xlink="http://www.w3.org/1999/xlink" 
	 viewBox="0 0 512 512" xml:space="preserve">
<path d="M469.32,396.792V102.4c0-7.04-5.76-12.8-12.8-12.8H55.536c-7.04,0-12.8,5.76-12.8,12.8v294.392
	C42.736,396.792,470.384,396.792,469.32,396.792z"/>
<rect y="396.8" style="fill:#D8D8D8;" width="512" height="8.536"/>
<polygon style="fill:#BCBCBC;" points="486.4,422.4 25.6,422.4 0,405.328 512,405.328 "/>
<g style="opacity:0.7;">
	<path style="fill:#FFFFFF;" d="M299.04,396.8h-86.08c0.816,4.792,4.824,8.536,9.832,8.536H289.2
		C294.216,405.328,298.224,401.592,299.04,396.8z"/>
</g>
<g style="opacity:0.12;">
	<rect x="56.24" y="107.2" style="fill:#FFFFFF;" width="16" height="16"/>
	<rect x="91.072" y="107.2" style="fill:#FFFFFF;" width="16" height="16"/>
	<rect x="125.944" y="107.2" style="fill:#FFFFFF;" width="16" height="16"/>
	<rect x="160.8" y="107.2" style="fill:#FFFFFF;" width="16" height="16"/>
	<rect x="195.688" y="107.2" style="fill:#FFFFFF;" width="16" height="16"/>
	<rect x="230.56" y="107.2" style="fill:#FFFFFF;" width="16" height="16"/>
	<rect x="265.44" y="107.2" style="fill:#FFFFFF;" width="16" height="16"/>
	<rect x="300.312" y="107.2" style="fill:#FFFFFF;" width="16" height="16"/>
	<rect x="335.184" y="107.2" style="fill:#FFFFFF;" width="16" height="16"/>
	<rect x="370.08" y="107.2" style="fill:#FFFFFF;" width="16" height="16"/>
	<rect x="404.928" y="107.2" style="fill:#FFFFFF;" width="16" height="16"/>
	<rect x="439.8" y="107.2" style="fill:#FFFFFF;" width="16" height="16"/>
	<rect x="56.24" y="139.2" style="fill:#FFFFFF;" width="16" height="16"/>
	<rect x="91.072" y="139.2" style="fill:#FFFFFF;" width="16" height="16"/>
	<rect x="125.944" y="139.2" style="fill:#FFFFFF;" width="16" height="16"/>
	<rect x="160.8" y="139.2" style="fill:#FFFFFF;" width="16" height="16"/>
	<rect x="195.688" y="139.2" style="fill:#FFFFFF;" width="16" height="16"/>
	<rect x="230.56" y="139.2" style="fill:#FFFFFF;" width="16" height="16"/>
	<rect x="265.44" y="139.2" style="fill:#FFFFFF;" width="16" height="16"/>
	<rect x="300.312" y="139.2" style="fill:#FFFFFF;" width="16" height="16"/>
	<rect x="335.184" y="139.2" style="fill:#FFFFFF;" width="16" height="16"/>
	<rect x="370.08" y="139.2" style="fill:#FFFFFF;" width="16" height="16"/>
	<rect x="404.928" y="139.2" style="fill:#FFFFFF;" width="16" height="16"/>
	<rect x="439.8" y="139.2" style="fill:#FFFFFF;" width="16" height="16"/>
	<rect x="56.24" y="171.2" style="fill:#FFFFFF;" width="16" height="16"/>
	<rect x="91.072" y="171.2" style="fill:#FFFFFF;" width="16" height="16"/>
	<rect x="125.944" y="171.2" style="fill:#FFFFFF;" width="16" height="16"/>
	<rect x="160.8" y="171.2" style="fill:#FFFFFF;" width="16" height="16"/>
	<rect x="195.688" y="171.2" style="fill:#FFFFFF;" width="16" height="16"/>
	<rect x="230.56" y="171.2" style="fill:#FFFFFF;" width="16" height="16"/>
	<rect x="265.44" y="171.2" style="fill:#FFFFFF;" width="16" height="16"/>
	<rect x="300.312" y="171.2" style="fill:#FFFFFF;" width="16" height="16"/>
	<rect x="335.184" y="171.2" style="fill:#FFFFFF;" width="16" height="16"/>
	<rect x="370.08" y="171.2" style="fill:#FFFFFF;" width="16" height="16"/>
	<rect x="404.928" y="171.2" style="fill:#FFFFFF;" width="16" height="16"/>
	<rect x="439.8" y="171.2" style="fill:#FFFFFF;" width="16" height="16"/>
	<rect x="56.24" y="203.2" style="fill:#FFFFFF;" width="16" height="16"/>
	<rect x="91.072" y="203.2" style="fill:#FFFFFF;" width="16" height="16"/>
	<rect x="125.944" y="203.2" style="fill:#FFFFFF;" width="16" height="16"/>
	<rect x="160.8" y="203.2" style="fill:#FFFFFF;" width="16" height="16"/>
	<rect x="195.688" y="203.2" style="fill:#FFFFFF;" width="16" height="16"/>
	<rect x="230.56" y="203.2" style="fill:#FFFFFF;" width="16" height="16"/>
	<rect x="265.44" y="203.2" style="fill:#FFFFFF;" width="16" height="16"/>
	<rect x="300.312" y="203.2" style="fill:#FFFFFF;" width="16" height="16"/>
	<rect x="335.184" y="203.2" style="fill:#FFFFFF;" width="16" height="16"/>
	<rect x="370.08" y="203.2" style="fill:#FFFFFF;" width="16" height="16"/>
	<rect x="404.928" y="203.2" style="fill:#FFFFFF;" width="16" height="16"/>
	<rect x="439.8" y="203.2" style="fill:#FFFFFF;" width="16" height="16"/>
	<rect x="56.24" y="235.2" style="fill:#FFFFFF;" width="16" height="16"/>
	<rect x="91.072" y="235.2" style="fill:#FFFFFF;" width="16" height="16"/>
	<rect x="125.944" y="235.2" style="fill:#FFFFFF;" width="16" height="16"/>
	<rect x="160.8" y="235.2" style="fill:#FFFFFF;" width="16" height="16"/>
	<rect x="195.688" y="235.2" style="fill:#FFFFFF;" width="16" height="16"/>
	<rect x="230.56" y="235.2" style="fill:#FFFFFF;" width="16" height="16"/>
	<rect x="265.44" y="235.2" style="fill:#FFFFFF;" width="16" height="16"/>
	<rect x="300.312" y="235.2" style="fill:#FFFFFF;" width="16" height="16"/>
	<rect x="335.184" y="235.2" style="fill:#FFFFFF;" width="16" height="16"/>
	<rect x="370.08" y="235.2" style="fill:#FFFFFF;" width="16" height="16"/>
	<rect x="404.928" y="235.2" style="fill:#FFFFFF;" width="16" height="16"/>
	<rect x="439.8" y="235.2" style="fill:#FFFFFF;" width="16" height="16"/>
	<rect x="56.24" y="267.2" style="fill:#FFFFFF;" width="16" height="16"/>
	<rect x="91.072" y="267.2" style="fill:#FFFFFF;" width="16" height="16"/>
	<rect x="125.944" y="267.2" style="fill:#FFFFFF;" width="16" height="16"/>
	<rect x="160.8" y="267.2" style="fill:#FFFFFF;" width="16" height="16"/>
	<rect x="195.688" y="267.2" style="fill:#FFFFFF;" width="16" height="16"/>
	<rect x="230.56" y="267.2" style="fill:#FFFFFF;" width="16" height="16"/>
	<rect x="265.44" y="267.2" style="fill:#FFFFFF;" width="16" height="16"/>
	<rect x="300.312" y="267.2" style="fill:#FFFFFF;" width="16" height="16"/>
	<rect x="335.184" y="267.2" style="fill:#FFFFFF;" width="16" height="16"/>
	<rect x="370.08" y="267.2" style="fill:#FFFFFF;" width="16" height="16"/>
	<rect x="404.928" y="267.2" style="fill:#FFFFFF;" width="16" height="16"/>
	<rect x="439.8" y="267.2" style="fill:#FFFFFF;" width="16" height="16"/>
	<rect x="56.24" y="299.2" style="fill:#FFFFFF;" width="16" height="16"/>
	<rect x="91.072" y="299.2" style="fill:#FFFFFF;" width="16" height="16"/>
	<rect x="125.944" y="299.2" style="fill:#FFFFFF;" width="16" height="16"/>
	<rect x="160.8" y="299.2" style="fill:#FFFFFF;" width="16" height="16"/>
	<rect x="195.688" y="299.2" style="fill:#FFFFFF;" width="16" height="16"/>
	<rect x="230.56" y="299.2" style="fill:#FFFFFF;" width="16" height="16"/>
	<rect x="265.44" y="299.2" style="fill:#FFFFFF;" width="16" height="16"/>
	<rect x="300.312" y="299.2" style="fill:#FFFFFF;" width="16" height="16"/>
	<rect x="335.184" y="299.2" style="fill:#FFFFFF;" width="16" height="16"/>
	<rect x="370.08" y="299.2" style="fill:#FFFFFF;" width="16" height="16"/>
	<rect x="404.928" y="299.2" style="fill:#FFFFFF;" width="16" height="16"/>
	<rect x="439.8" y="299.2" style="fill:#FFFFFF;" width="16" height="16"/>
	<rect x="56.24" y="331.2" style="fill:#FFFFFF;" width="16" height="16"/>
	<rect x="91.072" y="331.2" style="fill:#FFFFFF;" width="16" height="16"/>
	<rect x="125.944" y="331.2" style="fill:#FFFFFF;" width="16" height="16"/>
	<rect x="160.8" y="331.2" style="fill:#FFFFFF;" width="16" height="16"/>
	<rect x="195.688" y="331.2" style="fill:#FFFFFF;" width="16" height="16"/>
	<rect x="230.56" y="331.2" style="fill:#FFFFFF;" width="16" height="16"/>
	<rect x="265.44" y="331.2" style="fill:#FFFFFF;" width="16" height="16"/>
	<rect x="300.312" y="331.2" style="fill:#FFFFFF;" width="16" height="16"/>
	<rect x="335.184" y="331.2" style="fill:#FFFFFF;" width="16" height="16"/>
	<rect x="370.08" y="331.2" style="fill:#FFFFFF;" width="16" height="16"/>
	<rect x="404.928" y="331.2" style="fill:#FFFFFF;" width="16" height="16"/>
	<rect x="439.8" y="331.2" style="fill:#FFFFFF;" width="16" height="16"/>
	<rect x="56.24" y="363.2" style="fill:#FFFFFF;" width="16" height="16"/>
	<rect x="91.072" y="363.2" style="fill:#FFFFFF;" width="16" height="16"/>
	<rect x="125.944" y="363.2" style="fill:#FFFFFF;" width="16" height="16"/>
	<rect x="160.8" y="363.2" style="fill:#FFFFFF;" width="16" height="16"/>
	<rect x="195.688" y="363.2" style="fill:#FFFFFF;" width="16" height="16"/>
	<rect x="230.56" y="363.2" style="fill:#FFFFFF;" width="16" height="16"/>
	<rect x="265.44" y="363.2" style="fill:#FFFFFF;" width="16" height="16"/>
	<rect x="300.312" y="363.2" style="fill:#FFFFFF;" width="16" height="16"/>
	<rect x="335.184" y="363.2" style="fill:#FFFFFF;" width="16" height="16"/>
	<rect x="370.08" y="363.2" style="fill:#FFFFFF;" width="16" height="16"/>
	<rect x="404.928" y="363.2" style="fill:#FFFFFF;" width="16" height="16"/>
	<rect x="439.8" y="363.2" style="fill:#FFFFFF;" width="16" height="16"/>
</g>
<g>
	<rect x="152" y="334.864" style="fill:#E21B1B;" width="64" height="8"/>
	<path style="fill:#E21B1B;" d="M348.104,304.936H163.896c-12.664,0-23.024-10.36-23.024-23.024v-122.64
		c0-12.664,10.36-23.024,23.024-23.024h184.208c12.664,0,23.024,10.36,23.024,23.024v122.64
		C371.128,294.576,360.768,304.936,348.104,304.936z"/>
</g>
<g>
	<polygon style="fill:#FFFFFF;" points="224.808,174.568 304.52,220.592 224.808,266.616 	"/>
	<rect x="207.936" y="334.864" style="fill:#FFFFFF;" width="152.08" height="8"/>
	<circle style="fill:#FFFFFF;" cx="220.976" cy="338.88" r="15.088"/>
</g>
<path style="fill:#E21B1B;" d="M220.976,327.776c6.112,0,11.088,4.976,11.088,11.088s-4.976,11.088-11.088,11.088
	s-11.088-4.976-11.088-11.088S214.864,327.776,220.976,327.776 M220.976,319.776c-10.544,0-19.088,8.544-19.088,19.088
	s8.544,19.088,19.088,19.088c10.544,0,19.088-8.544,19.088-19.088S231.52,319.776,220.976,319.776L220.976,319.776z"/>
</svg>