<?xml version="1.0" encoding="iso-8859-1"?>
<!-- Uploaded to: SVG Repo, www.svgrepo.com, Generator: SVG Repo Mixer Tools -->
<svg version="1.1" id="Layer_1" xmlns="http://www.w3.org/2000/svg" xmlns:xlink="http://www.w3.org/1999/xlink" 
	 viewBox="0 0 512 512" xml:space="preserve">
<circle style="fill:#E6F3FF;" cx="256" cy="256" r="256"/>
<path style="fill:#CFDBE6;" d="M312.365,505.759C426.63,480.084,512,378.018,512,256c0-1.798-0.031-3.589-0.067-5.379
	l-114.85-114.85l-84.971,71.883l-78.741-78.741l-31.191,68.525l55.911,55.913l-39.586,10.406l-59.914,17.475l105.556,104.748
	l-50.095,21.992L312.365,505.759z"/>
<path style="fill:#FFD15D;" d="M98.283,184.184c0-43.553,35.306-78.858,78.858-78.858S256,140.631,256,184.184
	c0-43.553,35.306-78.858,78.858-78.858s78.858,35.306,78.858,78.858C413.717,259.591,256,349.786,256,349.786
	S98.283,263.839,98.283,184.184z"/>
<g>
	<path style="fill:#F9B54C;" d="M413.715,184.184c0-43.553-35.306-78.858-78.858-78.858c-43.546,0-78.846,35.295-78.858,78.838
		v165.623C256.022,349.772,413.715,259.584,413.715,184.184z"/>
	<polygon style="fill:#F9B54C;" points="265.049,341.333 251.258,341.333 206.438,199.111 220.229,199.111 	"/>
</g>
<polygon style="fill:#F4A200;" points="246.951,341.333 260.742,341.333 305.564,199.111 291.773,199.111 "/>
<path style="fill:#FD8469;" d="M256,425.41L256,425.41c-32.847,0-59.475-26.627-59.475-59.475v-55.668h118.949v55.668
	C315.475,398.782,288.846,425.41,256,425.41z"/>
<path style="fill:#FC6F58;" d="M256,310.267V425.41c32.847,0,59.475-26.627,59.475-59.475v-55.668H256z"/>
<rect x="200.835" y="193.939" style="fill:#F4A200;" width="110.33" height="13.791"/>
<rect x="256" y="193.939" style="fill:#E29205;" width="55.165" height="13.791"/>
<g>
	<path style="fill:#F1543F;" d="M315.906,333.145h-91.367c-3.332,0-6.034-2.701-6.034-6.034l0,0c0-3.332,2.701-6.034,6.034-6.034
		h91.367c3.332,0,6.034,2.701,6.034,6.034l0,0C321.939,330.443,319.238,333.145,315.906,333.145z"/>
	<path style="fill:#F1543F;" d="M315.906,381.845h-91.367c-3.332,0-6.034-2.701-6.034-6.034l0,0c0-3.332,2.701-6.034,6.034-6.034
		h91.367c3.332,0,6.034,2.701,6.034,6.034l0,0C321.939,379.144,319.238,381.845,315.906,381.845z"/>
	<path style="fill:#F1543F;" d="M284.444,357.495h-91.367c-3.332,0-6.034-2.701-6.034-6.034l0,0c0-3.332,2.701-6.034,6.034-6.034
		h91.367c3.332,0,6.034,2.701,6.034,6.034l0,0C290.478,354.794,287.777,357.495,284.444,357.495z"/>
</g>
<g>
	<path style="fill:#D83E20;" d="M315.906,321.077H256v12.067h59.906c3.332,0,6.034-2.701,6.034-6.034
		S319.238,321.077,315.906,321.077z"/>
	<path style="fill:#D83E20;" d="M315.906,369.778H256v12.067h59.906c3.332,0,6.034-2.701,6.034-6.034
		S319.238,369.778,315.906,369.778z"/>
	<path style="fill:#D83E20;" d="M284.444,345.428H256v12.067h28.444c3.332,0,6.034-2.701,6.034-6.034
		S287.777,345.428,284.444,345.428z"/>
</g>
</svg>