<?xml version="1.0" encoding="utf-8"?>
<!-- Uploaded to: SVG Repo, www.svgrepo.com, Generator: SVG Repo Mixer Tools -->
<svg version="1.1" id="Uploaded to svgrepo.com" xmlns="http://www.w3.org/2000/svg" xmlns:xlink="http://www.w3.org/1999/xlink" 
	 width="800px" height="800px" viewBox="0 0 64 64" xml:space="preserve">
<style type="text/css">
	.fandom_een{fill:#FF786E;}
	.fandom_twee{fill:#BE5652;}
	.fandom_vijftien{fill:#3A3A3A;}
	.fandom_zeventien{fill:#666666;}
	.fandom_negentien{fill:#CCCCCC;}
	.st0{fill:#6BC4D2;}
	.st1{fill:#508D9B;}
	.st2{fill:#4B322A;}
	.st3{fill:#EFEAE0;}
	.st4{fill:#644638;}
	.st5{fill:#8579A3;}
	.st6{fill:#685683;}
	.st7{fill:#4D4D4D;}
	.st8{fill:#AA9991;}
	.st9{fill:#00B3AA;}
	.st10{fill:#018273;}
	.st11{fill:#FFC865;}
	.st12{fill:#BE9148;}
	.st13{fill:#808080;}
	.st14{fill:#FFFAFA;}
</style>
<g>
	<g>
		<path class="fandom_een" d="M32,7C18.193,7,7,18.193,7,32h50C57,18.193,45.807,7,32,7z"/>
		<path class="fandom_twee" d="M32,57c13.807,0,25-11.193,25-25H7C7,45.807,18.193,57,32,57z"/>
	</g>
	<g>
		<path class="fandom_vijftien" d="M59.577,19.979L44.021,4.423c-1.562-1.562-4.095-1.562-5.657,0L4.423,38.364
			c-1.562,1.562-1.562,4.095,0,5.657l15.556,15.556c1.562,1.562,4.095,1.562,5.657,0l33.941-33.941
			C61.139,24.074,61.139,21.541,59.577,19.979z M56.749,25.636L28.464,53.92c-0.391,0.391-1.024,0.391-1.414,0L10.08,36.95
			c-0.391-0.391-0.391-1.024,0-1.414L38.364,7.251c0.391-0.391,1.024-0.391,1.414,0l16.971,16.971
			C57.139,24.612,57.139,25.245,56.749,25.636z"/>
		<path class="fandom_negentien" d="M29.879,24.222l-2.828-2.828l4.243-4.243l2.828,2.828L29.879,24.222z M38.364,24.222
			l-2.828-2.828l-4.243,4.243l2.828,2.828L38.364,24.222z M42.607,28.464l-2.828-2.828l-4.243,4.243l2.828,2.828L42.607,28.464z
			 M46.849,32.707l-2.828-2.828l-4.243,4.243l2.828,2.828L46.849,32.707z"/>
		<path class="fandom_zeventien" d="M44.021,4.423c1.028,1.028,15.556,15.556,15.556,15.556c1.562,1.562,1.562,4.095,0,5.657
			L25.636,59.577c-0.781,0.781-1.805,1.172-2.828,1.172s-2.047-0.391-2.828-1.172L4.423,44.021c-1.562-1.562-1.562-4.095,0-5.657
			L38.364,4.423c0.781-0.781,1.805-1.172,2.828-1.172S43.409,3.811,44.021,4.423z M41.192,1.251c-1.603,0-3.109,0.624-4.243,1.757
			L3.009,36.95c-2.339,2.339-2.339,6.146,0,8.485l15.556,15.556c1.133,1.133,2.64,1.757,4.243,1.757s3.109-0.624,4.243-1.757
			L60.991,27.05c2.339-2.339,2.339-6.146,0-8.485L45.435,3.009C44.302,1.875,42.795,1.251,41.192,1.251L41.192,1.251z
			 M56.749,24.222L39.778,7.251c-0.391-0.391-1.024-0.391-1.414,0L10.08,35.536c-0.391,0.391-0.391,1.024,0,1.414L27.05,53.92
			c0.391,0.391,1.024,0.391,1.414,0l28.284-28.284C57.139,25.245,57.139,24.612,56.749,24.222z M27.05,21.393l4.243-4.243
			l2.828,2.828l-4.243,4.243L27.05,21.393z M31.293,25.636l4.243-4.243l2.828,2.828l-4.243,4.243L31.293,25.636z M35.536,29.879
			l4.243-4.243l2.828,2.828l-4.243,4.243L35.536,29.879z M42.607,36.95l-2.828-2.828l4.243-4.243l2.828,2.828L42.607,36.95z
			 M17.268,46.732c-0.976-0.976-2.559-0.976-3.536,0c-0.976,0.976-0.976,2.559,0,3.536c0.976,0.976,2.559,0.976,3.536,0
			C18.244,49.291,18.244,47.709,17.268,46.732z"/>
	</g>
</g>
</svg>