<?xml version="1.0" encoding="iso-8859-1"?>
<!-- Uploaded to: SVG Repo, www.svgrepo.com, Generator: SVG Repo Mixer Tools -->
<svg height="800px" width="800px" version="1.1" id="Layer_1" xmlns="http://www.w3.org/2000/svg" xmlns:xlink="http://www.w3.org/1999/xlink" 
	 viewBox="0 0 496.2 496.2" xml:space="preserve">
<path style="fill:#32BEA6;" d="M496.2,248.1C496.2,111.1,385.1,0,248.1,0S0,111.1,0,248.1s111.1,248.1,248.1,248.1
	S496.2,385.1,496.2,248.1z"/>
<g>
	<path style="fill:#B9EFBD;" d="M372.1,326.4c0,68.5-55.5,87.7-124,87.7s-124-19.3-124-87.7c0-68.5,55.5-160.2,124-160.2
		S372.1,258,372.1,326.4z"/>
	<polygon style="fill:#B9EFBD;" points="245.3,161.9 248.8,161.9 265.5,161.9 305.5,112 305.5,92.9 277.9,92.9 277.9,82 248.8,82 
		245.3,82 216.2,82 216.2,92.9 188.6,92.9 188.6,112 228.6,161.9 	"/>
</g>
<g>
	<polygon style="fill:#1B935C;" points="277.9,92.9 251.9,156.9 293.9,92.9 	"/>
	<polygon style="fill:#1B935C;" points="216.2,92.9 242.4,156.9 200.4,92.9 	"/>
	<polygon style="fill:#1B935C;" points="228.9,194 245.7,176.5 218.5,194 	"/>
	<polygon style="fill:#1B935C;" points="268.6,194 251.8,176.5 278.9,194 	"/>
	<path style="fill:#1B935C;" d="M271.7,166.9c0,3-2.4,5.4-5.4,5.4h-37.2c-3,0-5.4-2.4-5.4-5.4l0,0c0-3,2.4-5.4,5.4-5.4h37.2
		C269.3,161.5,271.7,163.9,271.7,166.9L271.7,166.9z"/>
	<polygon style="fill:#1B935C;" points="243.1,82 251.9,82 246.9,154.3 	"/>
	<path style="fill:#1B935C;" d="M293.3,260.9c0,8.6-9.8,14.8-10.4,14c-7.3-8.5-19.8-14.8-32.5-14.8c-12.9,0-20.8,5.8-20.8,14.4
		c0,10,10.6,12.7,25.4,16c17.7,3.8,40.9,11,40.9,36.1c0,19.4-13.5,32.9-36,36.3v7.5c0,8.8-3.5,13.1-11.1,13.1h-1
		c-8.1,0-11-4-11-13.1v-7.1c-23.3-2.5-36.5-13.1-36.5-23.8c0-8.3,9.2-14.2,10-13.5c7.3,8.8,21.5,16.1,36.5,16.1
		c13.7,0,21.5-5.8,21.5-14.4c0-10.6-11.9-13.5-26-16.7c-16.9-3.7-39.2-10.4-39.2-35.8c0-18.5,13.1-31.7,33.8-35.6v-7.1
		c0-8.8,3.3-13.1,11-13.1h1.2c7.9,0,11,4,11,13.1v6.5C281.6,241.4,293.3,251,293.3,260.9z"/>
</g>
</svg>