<?xml version="1.0" encoding="iso-8859-1"?>
<!-- Uploaded to: SVG Repo, www.svgrepo.com, Generator: SVG Repo Mixer Tools -->
<svg version="1.1" id="Layer_1" xmlns="http://www.w3.org/2000/svg" xmlns:xlink="http://www.w3.org/1999/xlink" 
	 viewBox="0 0 512 512" xml:space="preserve">
<rect y="112.219" style="fill:#75EF84;" width="512" height="287.566"/>
<rect y="112.219" style="fill:#B7FFB9;" width="256" height="287.566"/>
<circle style="fill:#75EF84;" cx="77.667" cy="255.997" r="24.871"/>
<g>
	<circle style="fill:#3AB94B;" cx="434.333" cy="255.997" r="24.871"/>
	<path style="fill:#3AB94B;" d="M0,112.215v287.563h512V112.215H0z M31.347,316.008V195.985
		c26.828-4.426,47.996-25.596,52.423-52.423h103.044c-37.692,23.243-62.819,64.902-62.819,112.435s25.128,89.191,62.819,112.435
		H83.769C79.343,341.604,58.175,320.435,31.347,316.008z M480.653,316.008c-26.828,4.426-47.996,25.596-52.423,52.423H325.187
		c37.692-23.243,62.819-64.902,62.819-112.435s-25.128-89.191-62.819-112.435h103.044c4.426,26.828,25.596,47.996,52.423,52.423
		V316.008z"/>
</g>
<path style="fill:#75EF84;" d="M256,112.215H0v287.563h256V112.215z M83.769,368.432c-4.426-26.828-25.596-47.996-52.423-52.423
	V195.985c26.828-4.426,47.996-25.596,52.423-52.423h103.044c-37.692,23.243-62.819,64.902-62.819,112.435
	s25.128,89.191,62.819,112.435H83.769V368.432z"/>
<path style="fill:#B7FFB9;" d="M301.485,251.928c-8.122-5.419-18.114-8.949-29.812-10.57V194.18
	c4.987,1.065,9.18,2.689,12.417,4.847c3.846,2.566,8.262,6.872,8.262,17.481h31.347c0-18.802-7.681-33.864-22.214-43.559
	c-8.122-5.418-18.114-8.949-29.812-10.57v-18.818h-31.347v18.818c-11.698,1.622-21.69,5.152-29.812,10.57
	c-14.532,9.695-22.213,24.757-22.213,43.559c0,18.801,7.681,33.863,22.213,43.558c8.122,5.419,18.114,8.949,29.812,10.57v47.178
	c-4.987-1.065-9.18-2.689-12.417-4.847c-3.846-2.566-8.262-6.872-8.262-17.481h-31.347c0,18.802,7.681,33.864,22.213,43.559
	c8.122,5.418,18.114,8.948,29.812,10.57v18.818h31.347v-18.818c11.698-1.622,21.69-5.152,29.812-10.57
	c14.532-9.695,22.214-24.757,22.214-43.559C323.699,276.685,316.018,261.623,301.485,251.928z M227.911,233.989
	c-3.847-2.566-8.263-6.872-8.263-17.481c0-10.609,4.416-14.915,8.262-17.481c3.236-2.159,7.429-3.781,12.417-4.847v44.656
	C235.339,237.771,231.146,236.147,227.911,233.989z M284.09,312.967c-3.236,2.159-7.429,3.781-12.417,4.847v-44.656
	c4.987,1.065,9.18,2.689,12.415,4.846c3.847,2.566,8.263,6.872,8.263,17.481C292.352,306.095,287.936,310.401,284.09,312.967z"/>
</svg>