<?xml version="1.0" encoding="iso-8859-1"?>
<!-- Uploaded to: SVG Repo, www.svgrepo.com, Generator: SVG Repo Mixer Tools -->
<svg height="800px" width="800px" version="1.1" id="Layer_1" xmlns="http://www.w3.org/2000/svg" xmlns:xlink="http://www.w3.org/1999/xlink" 
	 viewBox="0 0 504.116 504.116" xml:space="preserve">
<path style="fill:#FF7F00;" d="M134.72,117.587c-4.427,0-8.027-3.6-8.027-8.042V97.304c0-2.119-1.725-3.836-3.828-3.836H91.704
	c-2.119,0-3.828,1.717-3.828,3.836c0,4.435-3.6,8.042-8.042,8.042c-4.435,0-8.034-3.6-8.034-8.042
	c0-10.98,4.49-19.913,15.462-19.913h35.612c10.973,0,19.897,8.932,19.897,19.913v12.241
	C142.763,113.995,139.171,117.587,134.72,117.587z"/>
<g>
	<path style="fill:#FF5B00;" d="M73.745,102.401c1.473,1.764,3.6,2.954,6.073,2.954c4.443,0,8.042-3.6,8.042-8.042
		c0-2.119,1.717-3.836,3.828-3.836h-4.443C80.338,93.476,76.014,97.029,73.745,102.401z"/>
	<path style="fill:#FF5B00;" d="M134.72,117.587c4.001,0,7.152-2.954,7.79-6.758c-1.268-9.76-9.555-17.353-19.645-17.353
		c2.111,0,3.828,1.717,3.828,3.836v12.241C126.694,113.995,130.286,117.587,134.72,117.587z"/>
</g>
<path style="fill:#FF7F00;" d="M134.72,114.57c-4.427,0-8.027,3.608-8.027,8.042v12.249c0,2.111-1.725,3.828-3.828,3.828H91.704
	c-2.119,0-3.828-1.717-3.828-3.828c0-4.443-3.6-8.042-8.042-8.042c-4.435,0-8.034,3.592-8.034,8.042
	c0,10.973,4.49,19.905,15.462,19.905h35.612c10.973,0,19.897-8.932,19.897-19.905v-12.249
	C142.763,118.178,139.171,114.57,134.72,114.57z"/>
<g>
	<path style="fill:#FF5B00;" d="M73.745,129.765c1.473-1.764,3.6-2.946,6.081-2.946c4.443,0,8.042,3.592,8.042,8.042
		c0,2.111,1.717,3.828,3.828,3.828h-4.443C80.338,138.682,76.014,135.129,73.745,129.765z"/>
	<path style="fill:#FF5B00;" d="M134.72,114.57c4.001,0,7.152,2.954,7.79,6.758c-1.268,9.767-9.555,17.353-19.645,17.353
		c2.111,0,3.828-1.717,3.828-3.828v-12.249C126.694,118.178,130.286,114.57,134.72,114.57z"/>
</g>
<path style="fill:#6EAFAF;" d="M334.259,187.188c2.347,2.355,2.347,6.176,0,8.523l0,0c-2.355,2.355-6.176,2.355-8.523,0
	l-71.05-71.042c-2.347-2.355-2.347-6.176,0-8.531l0,0c2.355-2.347,6.168-2.347,8.523,0L334.259,187.188z"/>
<path style="fill:#7BC6C6;" d="M244.58,110.057c3.324,0,6.026,2.702,6.026,6.026l0,0c0,3.324-2.718,6.034-6.026,6.026
	l-100.478,0.008c-3.324,0-6.026-2.702-6.034-6.026l0,0c0.008-3.324,2.71-6.026,6.034-6.026L244.58,110.057z"/>
<path style="fill:#6EAFAF;" d="M244.58,116.414l-100.478,0.008c-2.135,0-3.907,1.166-4.986,2.844
	c1.079,1.67,2.851,2.844,4.986,2.844l100.478-0.008c2.127,0,3.915-1.166,4.986-2.844
	C248.495,117.595,246.699,116.422,244.58,116.414z"/>
<path style="fill:#7BC6C6;" d="M454.712,100.376c0.008-7.593,2.71-13.761,6.034-13.761l0,0c3.324,0,6.034,6.183,6.026,13.761
	l0.008,229.337c-0.008,7.585-2.71,13.753-6.026,13.769l0,0c-3.332-0.016-6.034-6.183-6.034-13.769L454.712,100.376z"/>
<path style="fill:#6EAFAF;" d="M461.077,100.376l0.008,229.337c-0.008,4.86,1.166,8.925,2.836,11.382
	c1.67-2.458,2.836-6.522,2.844-11.382l-0.008-229.337c0-4.86-1.166-8.94-2.844-11.382
	C462.259,91.436,461.077,95.516,461.077,100.376z"/>
<g>
	<path style="fill:#18456D;" d="M180.438,178.539c0,5.27-4.269,9.547-9.547,9.547h-44.197c-5.278,0-9.547-4.269-9.547-9.547l0,0
		c0-5.27,4.269-9.539,9.547-9.539h44.197C176.169,168.992,180.438,173.269,180.438,178.539L180.438,178.539z"/>
	<path style="fill:#18456D;" d="M167.213,167.456c0,3.072-2.489,5.561-5.561,5.561h-25.726c-3.072,0-5.569-2.489-5.569-5.561l0,0
		c0-3.072,2.497-5.561,5.569-5.561h25.726C164.723,161.895,167.213,164.384,167.213,167.456L167.213,167.456z"/>
</g>
<path style="fill:#FF7F00;" d="M470.285,314.786c0,28.782-23.331,52.122-52.122,52.122H249.148
	c-28.782,0-52.129-23.339-52.129-52.122l0,0c0-28.798,7.27-52.137,36.061-52.137h185.084
	C446.954,262.649,470.285,285.988,470.285,314.786L470.285,314.786z"/>
<path style="fill:#FFA300;" d="M412.965,256.481c0,6.183-5.01,4.955-11.193,4.955H250.078c-6.191,0-11.201-5.018-11.201-11.185
	v-44.048c0-6.176,5.01-11.185,11.201-11.185h151.694c6.183,0,11.193,5.01,11.193,11.185V256.481z"/>
<path style="fill:#FF7F00;" d="M412.965,264.523c0,6.168-5.01,4.939-11.193,4.939H250.078c-6.191,0-11.201-5.018-11.201-11.185
	v-44.04c0-6.176,5.01-11.185,11.201-11.185h151.694c6.183,0,11.193,5.01,11.193,11.185V264.523z"/>
<path style="fill:#FF5B00;" d="M418.163,366.908c28.79,0,52.122-23.339,52.122-52.122c0-7.648-1.686-14.895-4.647-21.433
	c-9.507-10.216-23.04-16.628-38.101-16.628H242.453c-28.79,0-36.061,23.324-36.061,52.122c0,7.648,1.694,14.879,4.647,21.417
	c9.515,10.216,23.048,16.644,38.109,16.644H418.163z"/>
<path style="fill:#91D8DB;" d="M240.216,298.694c0,39.889-32.343,72.231-72.239,72.231h-38.368
	c-39.889,0-72.239-32.335-72.239-72.231v-48.538c0-39.897,32.343-72.231,72.239-72.231h38.368c39.889,0,72.239,32.335,72.239,72.231
	V298.694z"/>
<g>
	<path style="fill:#6EAFAF;" d="M209.504,229.132c-2.765,14.494-16.754,23.993-31.232,21.236l-20.543-3.915
		c-14.501-2.757-15.494-15.108-12.729-29.601l0,0c2.765-14.486,16.723-23.993,31.201-21.236l12.06,2.3
		C202.73,200.673,212.261,214.647,209.504,229.132L209.504,229.132z"/>
	<path style="fill:#6EAFAF;" d="M208.393,319.016c0,14.612-11.847,26.459-26.459,26.459l0,0c-14.612,0-26.459-11.847-26.459-26.459
		v-46.198c0-14.612,11.847-26.466,26.459-26.466l0,0c14.612,0,26.459,11.847,26.459,26.466V319.016z"/>
	<path style="fill:#6EAFAF;" d="M232.497,307.248c0,8.877-7.192,16.077-16.077,16.077l0,0c-8.877,0-16.069-7.2-16.069-16.077
		v-28.073c0-8.877,7.192-16.077,16.069-16.077l0,0c8.885,0,16.077,7.2,16.077,16.077L232.497,307.248L232.497,307.248z"/>
	<path style="fill:#6EAFAF;" d="M179.43,301.86c0,5.679-4.616,10.295-10.295,10.295h-45.214c-5.679,0-10.295-4.616-10.295-10.295
		l0,0c0-5.695,4.616-10.311,10.295-10.311h45.214C174.814,291.557,179.43,296.173,179.43,301.86L179.43,301.86z"/>
</g>
<path style="fill:#A0EAEA;" d="M57.369,298.694v-48.538c0-39.897,32.343-72.231,72.239-72.231h38.368"/>
<path style="fill:#6EAFAF;" d="M100.905,326.405c0,12.012-9.752,21.756-21.772,21.756l0,0c-12.012,0-21.764-9.736-21.764-21.756
	v-17.432c0-12.012,9.744-21.756,21.764-21.756l0,0c12.012,0,21.772,9.736,21.772,21.756V326.405z"/>
<path style="fill:#25618E;" d="M504.116,411.121c0,8.877-7.184,16.061-16.069,16.061H32.588c-38.857,0-32.146-7.184-32.146-16.061
	l16.077-87.079c0-8.877,7.192-16.077,16.069-16.077h455.459c8.885,0,16.069,7.2,16.069,16.077V411.121z"/>
<path style="fill:#18456D;" d="M504.116,411.121c0,8.877-7.184,16.061-16.069,16.061H32.588c-38.857,0-16.069-7.184-16.069-16.061
	v-87.072c0-8.877,7.192-8.042,16.069-8.042l455.459-8.034c8.885,0,16.069,7.2,16.069,16.077V411.121z"/>
<path style="fill:#FFA300;" d="M118.431,371.019c0,7.412-5.994,13.43-13.422,13.43l0,0c-7.428,0-13.422-6.018-13.422-13.43v-18.645
	c0-7.412,5.994-13.414,13.422-13.414l0,0c7.428,0,13.422,6.002,13.422,13.414C118.431,352.375,118.431,371.019,118.431,371.019z"/>
<path style="fill:#FF7F00;" d="M105.009,338.952L105.009,338.952c7.428,0,13.422,6.002,13.422,13.414v18.645
	c0,7.412-5.994,13.43-13.422,13.43l0,0c-7.428,0-13.422-6.018-13.422-13.43"/>
<circle style="fill:#B4E7ED;" cx="105.016" cy="411.475" r="53.705"/>
<path style="fill:#7BC6C6;" d="M158.713,411.475c0,29.664-24.056,53.705-53.705,53.705s-53.697-24.048-53.697-53.705"/>
<path style="fill:#91D8DB;" d="M105.009,357.786c29.657,0,53.705,24.048,53.705,53.689c0,29.664-24.056,53.705-53.705,53.705"/>
<circle style="fill:#349DD1;" cx="105.016" cy="411.475" r="33.942"/>
<path style="fill:#1F76BF;" d="M129.017,387.474c13.249,13.265,13.249,34.753,0,48.002c-13.257,13.265-34.745,13.265-48.01,0"/>
<path style="fill:#1E87C1;" d="M81.008,387.474c13.265-13.249,34.753-13.249,48.01,0c13.249,13.265,13.249,34.753,0,48.002"/>
<path style="fill:#FFA300;" d="M268.344,371.019c0,7.412-5.994,13.43-13.422,13.43l0,0c-7.42,0-13.414-6.018-13.414-13.43v-18.645
	c0-7.412,5.994-13.414,13.414-13.414l0,0c7.428,0,13.422,6.002,13.422,13.414V371.019z"/>
<path style="fill:#FF7F00;" d="M254.922,338.952L254.922,338.952c7.428,0,13.422,6.002,13.422,13.414v18.645
	c0,7.412-5.994,13.43-13.422,13.43l0,0c-7.42,0-13.414-6.018-13.414-13.43"/>
<circle style="fill:#B4E7ED;" cx="254.93" cy="411.475" r="53.705"/>
<path style="fill:#7BC6C6;" d="M308.635,411.475c0,29.664-24.056,53.705-53.705,53.705s-53.697-24.048-53.697-53.705"/>
<path style="fill:#91D8DB;" d="M254.922,357.786c29.657,0,53.705,24.048,53.705,53.689c0,29.664-24.056,53.705-53.705,53.705"/>
<circle style="fill:#349DD1;" cx="254.93" cy="411.475" r="33.942"/>
<path style="fill:#1F76BF;" d="M278.931,387.474c13.249,13.265,13.249,34.753,0,48.002c-13.257,13.265-34.737,13.265-48.01,0"/>
<path style="fill:#1E87C1;" d="M230.921,387.474c13.273-13.249,34.753-13.249,48.01,0c13.249,13.265,13.249,34.753,0,48.002"/>
<path style="fill:#FFA300;" d="M418.266,371.019c0,7.412-5.994,13.43-13.414,13.43l0,0c-7.436,0-13.422-6.018-13.422-13.43v-18.645
	c0-7.412,5.986-13.414,13.422-13.414l0,0c7.42,0,13.414,6.002,13.414,13.414V371.019z"/>
<path style="fill:#FF7F00;" d="M404.844,338.952L404.844,338.952c7.42,0,13.414,6.002,13.414,13.414v18.645
	c0,7.412-5.994,13.43-13.414,13.43l0,0c-7.436,0-13.422-6.018-13.422-13.43"/>
<circle style="fill:#B4E7ED;" cx="404.844" cy="411.475" r="53.705"/>
<path style="fill:#7BC6C6;" d="M458.548,411.475c0,29.664-24.048,53.705-53.697,53.705s-53.705-24.048-53.705-53.705"/>
<path style="fill:#91D8DB;" d="M404.844,357.786c29.657,0,53.697,24.048,53.697,53.689c0,29.664-24.048,53.705-53.697,53.705"/>
<circle style="fill:#349DD1;" cx="404.844" cy="411.475" r="33.942"/>
<path style="fill:#1F76BF;" d="M428.845,387.474c13.249,13.265,13.249,34.753,0,48.002c-13.249,13.265-34.737,13.265-48.01,0"/>
<path style="fill:#1E87C1;" d="M380.843,387.474c13.273-13.249,34.761-13.249,48.01,0c13.249,13.265,13.249,34.753,0,48.002"/>
<polygon style="fill:#25618E;" points="23.884,342.143 70.76,342.143 25.223,360.212 "/>
<path style="fill:#FFA300;" d="M27.901,380.306c0,2.213-1.804,4.017-4.017,4.017l0,0c-2.221,0-4.033-1.804-4.033-4.017v-34.154
	c0-2.229,1.804-4.017,4.033-4.017l0,0c2.213,0,4.017,1.788,4.017,4.017V380.306z"/>
<g>
	<path style="fill:#25618E;" d="M196.011,330.075c0,1.481-1.189,2.678-2.662,2.678h-23.465c-1.473,0-2.67-1.197-2.67-2.678l0,0
		c0-1.481,1.197-2.678,2.67-2.678h23.465C194.813,327.397,196.011,328.602,196.011,330.075L196.011,330.075z"/>
	<path style="fill:#25618E;" d="M196.011,344.136c0,1.481-1.189,2.678-2.662,2.678h-23.465c-1.473,0-2.67-1.197-2.67-2.678l0,0
		c0-1.481,1.197-2.678,2.67-2.678h23.465C194.813,341.465,196.011,342.663,196.011,344.136L196.011,344.136z"/>
	<path style="fill:#25618E;" d="M196.011,358.204c0,1.481-1.189,2.678-2.662,2.678h-23.465c-1.473,0-2.67-1.197-2.67-2.678l0,0
		c0-1.481,1.197-2.678,2.67-2.678h23.465C194.813,355.526,196.011,356.723,196.011,358.204L196.011,358.204z"/>
	<path style="fill:#25618E;" d="M475.129,330.075c0,1.481-1.182,2.678-2.67,2.678h-23.442c-1.481,0-2.686-1.197-2.686-2.678l0,0
		c0-1.481,1.197-2.678,2.686-2.678h23.442C473.948,327.397,475.129,328.602,475.129,330.075L475.129,330.075z"/>
	<path style="fill:#25618E;" d="M475.129,344.136c0,1.481-1.182,2.678-2.67,2.678h-23.442c-1.481,0-2.686-1.197-2.686-2.678l0,0
		c0-1.481,1.197-2.678,2.686-2.678h23.442C473.948,341.465,475.129,342.663,475.129,344.136L475.129,344.136z"/>
	<path style="fill:#25618E;" d="M475.129,358.204c0,1.481-1.182,2.678-2.67,2.678h-23.442c-1.481,0-2.686-1.197-2.686-2.678l0,0
		c0-1.481,1.197-2.678,2.686-2.678h23.442C473.948,355.526,475.129,356.723,475.129,358.204L475.129,358.204z"/>
</g>
<g>
	<path style="fill:#6EAFAF;" d="M123.11,288.477c3.009,3.017,3.009,7.893,0,10.894l0,0c-3.017,3.017-7.885,3.017-10.894,0
		L88.065,275.22c-3.009-3.001-3.017-7.877,0-10.894l0,0c3.009-3.001,7.893-3.017,10.902,0L123.11,288.477z"/>
	<path style="fill:#6EAFAF;" d="M97.809,284.444c1.434-1.434,3.757-1.434,5.191,0l0,0c1.434,1.434,1.434,3.757,0,5.183
		l-11.508,11.508c-1.441,1.434-3.765,1.434-5.191,0l0,0c-1.434-1.434-1.434-3.757,0-5.183L97.809,284.444z"/>
</g>
<g>
	<path style="fill:#FF5B00;" d="M282.917,220.232c0,1.111-0.89,2.009-2.009,2.009h-23.607c-1.118,0-2.016-0.898-2.016-2.009l0,0
		c0-1.111,0.898-2.009,2.016-2.009h23.607C282.027,218.223,282.917,219.121,282.917,220.232L282.917,220.232z"/>
	<path style="fill:#FF5B00;" d="M282.917,232.283c0,1.111-0.89,2.009-2.009,2.009h-23.607c-1.118,0-2.016-0.898-2.016-2.009l0,0
		c0-1.111,0.898-2.009,2.016-2.009h23.607C282.027,230.275,282.917,231.173,282.917,232.283L282.917,232.283z"/>
	<path style="fill:#FF5B00;" d="M282.917,244.343c0,1.111-0.89,2.009-2.009,2.009h-23.607c-1.118,0-2.016-0.898-2.016-2.009l0,0
		c0-1.111,0.898-2.009,2.016-2.009h23.607C282.027,242.334,282.917,243.232,282.917,244.343L282.917,244.343z"/>
	<path style="fill:#FF5B00;" d="M282.917,256.402c0,1.111-0.89,2.001-2.009,2.001h-23.607c-1.118,0-2.016-0.89-2.016-2.001l0,0
		c0-1.111,0.898-2.009,2.016-2.009h23.607C282.027,254.386,282.917,255.292,282.917,256.402L282.917,256.402z"/>
	<circle style="fill:#FF5B00;" cx="319.56" cy="242.689" r="16.408"/>
	<path style="fill:#FF5B00;" d="M389.586,242.665c0,1.851-1.497,3.348-3.348,3.348h-55.603c-1.843,0-3.356-1.497-3.356-3.348l0,0
		c0-1.843,1.505-3.348,3.356-3.348h55.603C388.089,239.317,389.586,240.822,389.586,242.665L389.586,242.665z"/>
</g>
<circle style="fill:#25618E;" cx="331.32" cy="194.088" r="19.424"/>
<path style="fill:#18456D;" d="M345.058,180.374c7.593,7.585,7.593,19.881,0,27.467c-7.585,7.593-19.873,7.593-27.467,0"/>
<circle style="fill:#25618E;" cx="254.623" cy="116.083" r="14.21"/>
<path style="fill:#18456D;" d="M264.674,106.032c5.553,5.553,5.553,14.549,0,20.102c-5.561,5.553-14.541,5.553-20.094,0"/>
<circle style="fill:#25618E;" cx="460.746" cy="194.482" r="14.21"/>
<path style="fill:#18456D;" d="M470.797,184.399c5.553,5.553,5.553,14.549,0,20.102c-5.561,5.553-14.541,5.553-20.094,0"/>
<path style="fill:#25618E;" d="M137.052,101.881c7.869,0,14.218,6.357,14.218,14.21c0,7.861-6.341,14.21-14.202,14.21
	c-7.861,0.008-14.218-6.357-14.21-14.218C122.873,108.23,129.222,101.873,137.052,101.881z"/>
<g>
	<path style="fill:#18456D;" d="M137.052,101.881c7.869,0,14.218,6.357,14.218,14.21c0,7.861-6.341,14.21-14.202,14.21"/>
	<path style="fill:#18456D;" d="M368.822,61.126c0-6.751,5.467-8.003,12.225-8.003l15.888,4.892c6.758,0,12.233,5.474,12.233,12.225
		v17.534c0,6.743-5.467,12.225-12.233,12.225l-15.888,4.884c-6.751,0-12.225-1.245-12.225-8.003L368.822,61.126L368.822,61.126z"/>
	<path style="fill:#18456D;" d="M392.453,51.728c0-7.066,5.719-12.792,12.784-12.792h86.095c7.05,0,12.784,1.497,12.784,8.562v63
		c0,7.066-5.742,8.562-12.784,8.562h-86.095c-7.066,0-12.784-5.727-12.784-12.792L392.453,51.728L392.453,51.728z"/>
</g>
<path style="fill:#25618E;" d="M392.453,51.728v54.548c0,7.066,1.489,12.792,8.562,12.792h90.317c5.081,0,9.444-3.001,11.508-7.302
	l-72.83-72.822h-28.995C393.95,38.944,392.453,44.663,392.453,51.728z"/>
<path style="fill:#6EAFAF;" d="M381.047,104.882l2.45-0.756V53.879l-2.45-0.756c-0.701,0-1.378,0.102-2.04,0.205v51.342
	C379.669,104.787,380.346,104.882,381.047,104.882z"/>
</svg>