<?xml version="1.0" encoding="iso-8859-1"?>
<!-- Uploaded to: SVG Repo, www.svgrepo.com, Generator: SVG Repo Mixer Tools -->
<svg height="800px" width="800px" version="1.1" id="Layer_1" xmlns="http://www.w3.org/2000/svg" xmlns:xlink="http://www.w3.org/1999/xlink" 
	 viewBox="0 0 512 512" xml:space="preserve">
<path style="fill:#77604B;" d="M508.815,486.588L384.712,283.51c-6.507-10.645-21.993-10.645-28.498,0l-53.704,87.882
	l84.649,140.597h107.409C507.617,511.989,515.578,497.682,508.815,486.588z"/>
<path style="fill:#957856;" d="M384.005,511.989H16.716c-13.021,0-21.036-14.358-14.246-25.376l98.613-161.385l17.694-28.938
	l47.525,42.517l22.26-22.26c3.339-3.339,7.569-4.897,11.799-4.897c4.341,0,8.57,1.558,11.799,4.897l21.815,21.815l46.3-44.854
	l17.809,29.161l100.17,163.945C405.04,497.632,397.026,511.989,384.005,511.989z"/>
<path style="fill:#816952;" d="M384.005,511.989H200.36V311.65c4.341,0,8.57,1.558,11.799,4.897l21.815,21.815l46.3-44.854
	l17.809,29.161l100.17,163.945C405.04,497.632,397.026,511.989,384.005,511.989z"/>
<path style="fill:#FFB655;" d="M445.22,133.57c-36.825,0-66.78-29.955-66.78-66.78s29.955-66.78,66.78-66.78S512,29.966,512,66.79
	S482.044,133.57,445.22,133.57z"/>
<path style="fill:#96C8EF;" d="M192.013,54.77c-7.567-11.575-19.477-18.698-33.39-20.479c-11.575-20.923-33.724-34.28-58.098-34.28
	h-0.334c-24.262,0.111-46.078,13.467-57.763,34.28c-13.912,1.781-25.711,8.904-33.39,20.479
	c-10.24,15.582-11.13,37.174-2.116,53.758c8.57,15.916,24.376,25.042,43.518,25.042h100.17c19.144,0,35.058-9.127,43.628-25.042
	C203.143,91.833,202.251,70.241,192.013,54.77z"/>
<path style="fill:#5AAAE7;" d="M194.238,108.528c-8.57,15.916-24.486,25.042-43.628,25.042H100.19V0.01h0.334
	c24.374,0,46.522,13.356,58.098,34.28c13.912,1.781,25.823,8.904,33.39,20.479C202.251,70.241,203.143,91.833,194.238,108.528z"/>
<path style="fill:#96C8EF;" d="M470.27,88.16c-7.567-11.575-19.477-18.698-33.39-20.479c-11.575-20.923-33.724-34.28-58.099-34.28
	h-0.334c-24.262,0.111-46.078,13.467-57.763,34.28c-13.912,1.781-25.711,8.904-33.39,20.479
	c-10.24,15.582-11.13,37.174-2.116,53.758c8.57,15.916,24.376,25.042,43.518,25.042h100.17c19.144,0,35.058-9.127,43.628-25.042
	C481.4,125.223,480.51,103.63,470.27,88.16z"/>
<path style="fill:#5AAAE7;" d="M472.496,141.918c-8.57,15.916-24.486,25.042-43.628,25.042h-50.419V33.4h0.334
	c24.374,0,46.522,13.356,58.098,34.28c13.912,1.781,25.823,8.904,33.39,20.479C480.51,103.63,481.4,125.223,472.496,141.918z"/>
<path style="fill:#E7ECFD;" d="M298.081,322.668l-52.756,51.087c-6.456,6.344-16.918,6.234-23.374-0.223L200.36,351.94
	l-21.591,21.592c-6.234,6.233-16.251,6.567-22.929,0.668l-54.758-48.972l17.694-28.938l67.336-110.187
	c3.005-5.008,8.459-8.014,14.246-8.014s11.241,3.005,14.246,8.014l65.666,107.404L298.081,322.668z"/>
<path style="fill:#DAE0F0;" d="M298.081,322.668l-52.756,51.087c-6.456,6.344-16.918,6.234-23.374-0.223L200.36,351.94V178.09
	c5.788,0,11.241,3.005,14.246,8.014l65.666,107.404L298.081,322.668z"/>
</svg>