<?xml version="1.0" ?>
<!-- Uploaded to: SVG Repo, www.svgrepo.com, Generator: SVG Repo Mixer Tools -->
<svg width="800px" height="800px" viewBox="0 0 512 512" id="Layer_1" version="1.1" xml:space="preserve" xmlns="http://www.w3.org/2000/svg" xmlns:xlink="http://www.w3.org/1999/xlink">
<style type="text/css">
	.st0{fill:#3B4652;}
	.st1{fill:#2B79C2;}
</style>
<g>
<path class="st0" d="M438.2,341.1c-0.5,0-1.1,0.1-1.7,0.1c-2.7,0-5.5-0.4-8.3-1.2c-3.6-1-7.4-2.7-11.5-5.2   c-1.8-1.1-3.2-2.2-4.5-3.2c-0.6-0.5-1.4-1.1-1.9-1.4c-0.1,0-0.3,0-0.5,0c-1.3,0-2.9,0.2-4,0.4c-2.5,0.4-5.2,1.1-8.1,1.9   c-4.6,1.3-9.9,2.7-15.8,3c-0.6,0-1.2,0-1.8,0c-18,0-27.7-14.4-31.4-19.8c-1.1-1.7-4-6-5.8-6.7c-0.1,0-0.3-0.1-0.5-0.1   c-1.9,0-5.4,1.8-8.7,5.1c-1.9,2-3.8,4.4-5.8,6.9c-3.8,4.8-8.2,10.3-14.2,14.8c-7.7,5.7-17.1,8.7-27.2,8.7   c-10.9,0-21.2-3.5-29.4-9.5c-10.3,7.5-23,11.7-35.9,11.7c-2.1,0-4.2-0.1-6.3-0.3c-6.9-0.2-13.3-2.2-19-4c-2.1-0.7-4.1-1.3-5.8-1.7   c-0.8-0.2-1.6-0.3-2.5-0.3c-2.3,0-5.1,0.6-8.4,1.3c-1.2,0.3-2.5,0.6-3.8,0.8c-2.6,0.5-5.7,1.1-9.3,1.1c-1.1,0-2.2-0.1-3.2-0.2   c-8.8-1-15.2-5.9-19.9-9.5c-0.7-0.5-1.4-1.1-2.1-1.6c-1.6-1.2-3.1-1.7-5.1-1.7c-3.2,0-7.4,1.2-11.8,2.4c-1.1,0.3-2.1,0.6-3.2,0.9   c-2.6,3.1-6.9,11.8-9.3,16.8c-2.8,5.7-5.2,10.7-7.8,14.2l-17.8,24.3l-1.3-5.3l-22.1,47.7c-5.9,12.9,3.4,27.5,17.6,27.5h100.9   c-0.3-0.4-0.7-0.9-1.1-1.4c-5.6-7-12.5-15.7-12.6-27.2c0-4.8,1.1-9,2.2-12.8c1.5-5.4,3.3-12.1,7.3-17.3c2.3-3.1,6.7-3.7,9.8-1.3   c3.1,2.3,3.7,6.7,1.3,9.8c-2.4,3.1-3.7,8.1-4.9,12.5c-0.8,3.1-1.7,6.2-1.7,9.1c0.1,6.7,4.9,12.7,9.5,18.6c2.4,3,4.8,6.2,6.4,10.1   h70c-7.4-27.7-13.9-55.7-19.3-83.6c-0.8-4.2-1.8-9.4-1.6-14.9c0.2-6.4,2.3-12.1,5.7-16c2.5-2.9,6.9-3.6,9.9-1.2   c3.3,2.6,3.5,7.3,0.7,10.3c-1.3,1.4-2.2,4.3-2.3,7.5c-0.1,3.8,0.7,8,1.4,11.6c5.6,28.8,12.3,57.8,20.1,86.3h109.9   c-0.5-2.2-0.7-4.5-0.6-6.9c0.2-4.5,1.6-8.4,2.8-11.9c0.6-1.7,1.2-3.3,1.5-4.8c1.7-6.9,0.5-15.5-3.4-23.4   c-3.8-7.7-9.5-14.2-15.1-20.6c-2.5-2.9-2.3-7.3,0.7-9.9c2.9-2.6,7.3-2.3,9.9,0.7c5.9,6.7,12.5,14.3,17.1,23.6   c5.4,10.9,7,22.9,4.5,33c-0.6,2.2-1.3,4.2-1.9,6.1c-1,2.9-1.9,5.4-2,7.8c-0.1,2,0.3,4.1,1,6.3h52.6c13.9,0,23.3-14.2,17.9-26.9   L438.2,341.1z"/>
<path class="st1" d="M115.2,320.9c0.9-0.3,0,0,0.9-0.2c11.6-3,22.4-7.4,33.1,0.4c4.7,3.5,9.4,7.8,15.2,8.4c2.7,0.3,5.5-0.2,8.2-0.8   c7.3-1.5,13.7-3.5,20.9-1.7c6.9,1.8,15.1,5.3,22.3,5.3c15.6,1.9,32-4.7,41.9-17c9.5,15.5,33.1,20.1,47.7,9.2   c7.3-5.4,12-13.6,18.3-20.1c6.3-6.5,15.8-11.7,24.3-8.4c5.5,2.1,9.1,7.1,12.4,12c5,7.5,11.1,14.1,20.8,13.6   c7.8-0.4,15-3.7,22.7-4.8c3.3-0.5,7.3-0.9,10.5,0c3.7,1,6.5,4.2,9.7,6.1c2.5,1.5,5.2,2.9,8,3.7c1.9,0.5,3.7,0.8,5.6,0.6   c0.9-0.1,1.8-0.3,2.7-0.5c-3.4-13-6.8-26-10.2-39l-28.9-74.4c-2.1-7.9-27.9-53.3-45.3-89.3c-8-16.5-16-20.2-26.7-5.3   c-22.3,31-45.1,61.1-48.7,70c-4.2,10.5-12.4,24.9-18,34.7c-5.6,9.7-16.9,17.9-16.3,29c0.2,2.5,0.5,5.1-0.7,7.4   c-0.5,1-1.3,1.8-2.3,2.2c-2.3,0.9-4.1-0.5-5.8-1.9c-20.8-17.8-30.7-39.9-45.1-63.1c-2.6-4.2-5.5-8.8-10.2-10.3   c-5.7-1.9-12,1.6-15.5,6.5c-3.5,4.8-13.2,11.8-15.3,17.4c-5.5,14.9-15.2,27.9-25.1,40.3c-9.9,12.4-20.4,24.7-27.7,38.8   c-7.3,14.1-10.1,51.5-6.4,67C97.8,349.1,106.5,323.4,115.2,320.9z"/>
<path class="st0" d="M441.9,162.2c14.2,0,25.7-11.5,25.7-25.7s-11.5-25.7-25.7-25.7c-14.2,0-25.7,11.5-25.7,25.7   S427.7,162.2,441.9,162.2z M441.9,124.8c6.5,0,11.7,5.3,11.7,11.7c0,6.5-5.3,11.7-11.7,11.7c-6.5,0-11.7-5.3-11.7-11.7   C430.2,130,435.4,124.8,441.9,124.8z"/>
<path class="st0" d="M75.4,223c0-14.2-11.5-25.7-25.7-25.7C35.5,197.3,24,208.8,24,223c0,14.2,11.5,25.7,25.7,25.7   C63.9,248.7,75.4,237.2,75.4,223z M38,223c0-6.5,5.3-11.7,11.7-11.7c6.5,0,11.7,5.3,11.7,11.7c0,6.5-5.3,11.7-11.7,11.7   C43.3,234.7,38,229.5,38,223z"/>
<path class="st0" d="M227.7,135c11.2,0,20.4-9.1,20.4-20.4c0-11.2-9.1-20.4-20.4-20.4c-11.2,0-20.4,9.1-20.4,20.4   C207.3,125.9,216.5,135,227.7,135z M227.7,108.3c3.5,0,6.4,2.9,6.4,6.4c0,3.5-2.9,6.4-6.4,6.4c-3.5,0-6.4-2.9-6.4-6.4   C221.3,111.1,224.2,108.3,227.7,108.3z"/>
<path class="st0" d="M68.4,97.7c11.2,0,20.4-9.1,20.4-20.4c0-11.2-9.1-20.4-20.4-20.4c-11.2,0-20.4,9.1-20.4,20.4   C48.1,88.6,57.2,97.7,68.4,97.7z M68.4,71c3.5,0,6.4,2.9,6.4,6.4c0,3.5-2.9,6.4-6.4,6.4c-3.5,0-6.4-2.9-6.4-6.4   C62.1,73.9,64.9,71,68.4,71z"/>
<path class="st0" d="M325.4,62.6c0.2,0.4,0.4,0.8,0.6,1.2c0.3,0.4,0.6,0.7,0.9,1.1c0.3,0.3,0.7,0.6,1.1,0.9   c0.4,0.3,0.8,0.5,1.2,0.7c0.4,0.2,0.9,0.3,1.3,0.4c0.5,0.1,0.9,0.1,1.4,0.1c0.5,0,0.9,0,1.4-0.1c0.5-0.1,0.9-0.2,1.3-0.4   c0.4-0.2,0.8-0.4,1.2-0.7c0.4-0.3,0.7-0.5,1.1-0.9c0.3-0.3,0.6-0.7,0.9-1.1c0.3-0.4,0.5-0.8,0.6-1.2c0.2-0.4,0.3-0.9,0.4-1.3   c0.1-0.5,0.1-0.9,0.1-1.4c0-0.5,0-0.9-0.1-1.4c-0.1-0.5-0.2-0.9-0.4-1.3c-0.2-0.4-0.4-0.8-0.6-1.2c-0.3-0.4-0.5-0.8-0.9-1.1   c-0.3-0.3-0.7-0.6-1.1-0.9c-0.4-0.3-0.8-0.5-1.2-0.6c-0.4-0.2-0.9-0.3-1.3-0.4c-0.9-0.2-1.8-0.2-2.7,0c-0.4,0.1-0.9,0.2-1.3,0.4   c-0.4,0.2-0.8,0.4-1.2,0.6c-0.4,0.3-0.7,0.5-1.1,0.9c-0.3,0.3-0.6,0.7-0.9,1.1c-0.3,0.4-0.5,0.8-0.6,1.2c-0.2,0.4-0.3,0.9-0.4,1.3   c-0.1,0.5-0.1,0.9-0.1,1.4c0,0.5,0,0.9,0.1,1.4C325.1,61.8,325.2,62.2,325.4,62.6z"/>
<path class="st0" d="M465.1,229.8c-0.4,0.1-0.9,0.2-1.3,0.4c-0.4,0.2-0.8,0.4-1.2,0.6c-0.4,0.3-0.7,0.5-1.1,0.9   c-0.3,0.3-0.6,0.7-0.9,1.1c-0.3,0.4-0.5,0.8-0.6,1.2c-0.2,0.4-0.3,0.9-0.4,1.3c-0.1,0.5-0.1,0.9-0.1,1.4c0,0.5,0,0.9,0.1,1.4   c0.1,0.4,0.2,0.9,0.4,1.3c0.2,0.4,0.4,0.8,0.6,1.2s0.6,0.7,0.9,1.1c0.3,0.3,0.7,0.6,1.1,0.9c0.4,0.3,0.8,0.5,1.2,0.6   c0.4,0.2,0.9,0.3,1.3,0.4c0.5,0.1,0.9,0.1,1.4,0.1c1.8,0,3.6-0.8,4.9-2c0.3-0.3,0.6-0.7,0.9-1.1s0.5-0.8,0.6-1.2   c0.2-0.4,0.3-0.9,0.4-1.3c0.1-0.5,0.1-0.9,0.1-1.4c0-0.5-0.1-0.9-0.1-1.4c-0.1-0.4-0.2-0.9-0.4-1.3c-0.2-0.4-0.4-0.8-0.6-1.2   c-0.3-0.4-0.5-0.7-0.9-1.1c-0.3-0.3-0.7-0.6-1.1-0.9c-0.4-0.3-0.8-0.5-1.2-0.6c-0.4-0.2-0.9-0.3-1.3-0.4   C467,229.6,466,229.6,465.1,229.8z"/>
<path class="st0" d="M113.3,161c0.4,0.3,0.8,0.5,1.2,0.6c0.4,0.2,0.9,0.3,1.3,0.4c0.5,0.1,0.9,0.1,1.4,0.1c0.4,0,0.9,0,1.4-0.1   c0.5-0.1,0.9-0.2,1.3-0.4c0.4-0.2,0.8-0.4,1.2-0.6c0.4-0.3,0.7-0.5,1.1-0.9c1.3-1.3,2.1-3.1,2.1-5c0-1.8-0.8-3.7-2.1-5   c-0.3-0.3-0.7-0.6-1.1-0.9c-0.4-0.3-0.8-0.5-1.2-0.6c-0.4-0.2-0.9-0.3-1.3-0.4c-0.9-0.2-1.8-0.2-2.7,0c-0.5,0.1-0.9,0.2-1.3,0.4   c-0.4,0.2-0.8,0.4-1.2,0.6s-0.7,0.5-1.1,0.9c-1.3,1.3-2,3.1-2,5c0,1.8,0.7,3.6,2,5C112.5,160.5,112.9,160.8,113.3,161z"/>
<path class="st0" d="M138.7,74c0.2,0.4,0.4,0.8,0.6,1.2c0.3,0.4,0.5,0.7,0.9,1.1c1.3,1.3,3.1,2,5,2c0.4,0,0.9,0,1.4-0.1   c0.5-0.1,0.9-0.2,1.3-0.4c0.4-0.2,0.8-0.4,1.2-0.6c0.4-0.3,0.7-0.6,1.1-0.9c0.3-0.3,0.6-0.7,0.9-1.1c0.3-0.4,0.5-0.8,0.6-1.2   c0.2-0.4,0.3-0.9,0.4-1.3c0.1-0.5,0.1-0.9,0.1-1.4c0-0.5-0.1-0.9-0.1-1.4c-0.1-0.5-0.2-0.9-0.4-1.3c-0.2-0.4-0.4-0.8-0.6-1.2   c-0.3-0.4-0.5-0.7-0.9-1.1c-0.3-0.3-0.7-0.6-1.1-0.9c-0.4-0.3-0.8-0.5-1.2-0.6c-0.4-0.2-0.9-0.3-1.3-0.4c-2.3-0.5-4.7,0.3-6.3,1.9   c-0.3,0.3-0.6,0.7-0.9,1.1c-0.3,0.4-0.5,0.8-0.6,1.2c-0.2,0.4-0.3,0.9-0.4,1.3c-0.1,0.5-0.1,0.9-0.1,1.4c0,0.5,0,0.9,0.1,1.4   C138.4,73.1,138.5,73.5,138.7,74z"/>
</g>
</svg>