<?xml version="1.0" encoding="iso-8859-1"?>
<!-- Uploaded to: SVG Repo, www.svgrepo.com, Generator: SVG Repo Mixer Tools -->
<svg version="1.1" id="Layer_1" xmlns="http://www.w3.org/2000/svg" xmlns:xlink="http://www.w3.org/1999/xlink" 
	 viewBox="0 0 512 512" xml:space="preserve">
<path style="fill:#25B6D2;" d="M256,62.448c0,0-128-68.72-256,0.304V448c0,0,126.496-68.512,256,0c129.504-68.512,256,0,256,0
	V62.752C384-6.272,256,62.448,256,62.448z"/>
<g>
	<g>
		<rect x="240" y="16" style="fill:#FFFFFF;" width="32" height="480"/>
	</g>
</g>
<g>
	<path style="fill:#FFFFFF;" d="M185.52,234.576h-28.672l-11.392-29.648H93.28l-10.768,29.648H54.56l50.832-130.512h27.872
		L185.52,234.576z M136.992,182.944l-17.984-48.432l-17.632,48.432H136.992z"/>
	<path style="fill:#FFFFFF;" d="M337.28,217.04h52.16c10.336,0,18.032,0.432,23.104,1.296s9.616,2.656,13.616,5.392
		c4.016,2.72,7.36,6.352,10.016,10.912c2.672,4.544,4.016,9.632,4.016,15.264c0,6.112-1.664,11.712-4.944,16.832
		c-3.296,5.104-7.76,8.944-13.408,11.488c7.952,2.32,14.064,6.272,18.336,11.84c4.272,5.584,6.4,12.144,6.4,19.664
		c0,5.936-1.376,11.696-4.144,17.312c-2.752,5.616-6.528,10.096-11.296,13.44c-4.784,3.36-10.672,5.424-17.664,6.192
		c-4.4,0.48-15.008,0.784-31.776,0.896H337.28V217.04z M363.632,238.768v30.176h17.264c10.272,0,16.656-0.144,19.136-0.432
		c4.512-0.528,8.064-2.096,10.64-4.672s3.872-5.984,3.872-10.208c0-4.032-1.104-7.312-3.344-9.84
		c-2.224-2.512-5.536-4.048-9.92-4.592c-2.608-0.288-10.128-0.448-22.512-0.448h-15.136V238.768z M363.632,290.672v34.896h24.384
		c9.504,0,15.52-0.272,18.08-0.8c3.904-0.72,7.104-2.448,9.568-5.216c2.464-2.752,3.696-6.448,3.696-11.072
		c0-3.92-0.96-7.232-2.864-9.968c-1.888-2.736-4.64-4.72-8.24-5.968s-11.376-1.856-23.36-1.856h-21.264V290.672z"/>
</g>
</svg>