<?xml version="1.0" encoding="utf-8"?>
<!-- Uploaded to: SVG Repo, www.svgrepo.com, Generator: SVG Repo Mixer Tools -->
<svg width="800px" height="800px" viewBox="0 0 1024 1024" class="icon"  version="1.1" xmlns="http://www.w3.org/2000/svg"><path d="M582.4 384c0 14.08-11.52 25.6-25.6 25.6l-384 409.6c-14.08 0-25.6-11.52-25.6-25.6V192c0-14.08 11.52-25.6 25.6-25.6h230.4c14.08 0 25.6 11.52 25.6 25.6l153.6 192z" fill="#D3AC51" /><path d="M177.92 832h-5.12c-21.76 0-38.4-16.64-38.4-38.4V192c0-21.76 16.64-38.4 38.4-38.4h230.4c19.2 0 35.84 14.08 38.4 33.28l153.6 192v5.12c0 19.2-14.08 34.56-32 38.4L177.92 832z m-5.12-652.8c-7.68 0-12.8 5.12-12.8 12.8v601.6c0 5.12 3.84 10.24 7.68 11.52L550.4 396.8h5.12c5.12 0 10.24-3.84 12.8-8.96l-153.6-190.72V192c0-7.68-5.12-12.8-12.8-12.8H172.8z" fill="#231C1C" /><path d="M864 793.6c0 14.08-11.52 25.6-25.6 25.6h-665.6c-14.08 0-25.6-11.52-25.6-25.6l64-512c0-14.08 11.52-25.6 25.6-25.6h678.4c14.08 0 25.6 11.52 25.6 25.6l-76.8 512z" fill="#FAC546" /><path d="M838.4 832h-665.6c-21.76 0-38.4-16.64-38.4-38.4v-1.28l64-510.72c0-20.48 17.92-37.12 38.4-37.12h678.4c21.76 0 38.4 16.64 38.4 38.4v1.28l-76.8 510.72c-1.28 20.48-17.92 37.12-38.4 37.12z m-678.4-37.12c0 6.4 6.4 11.52 12.8 11.52h665.6c7.68 0 12.8-5.12 12.8-12.8v-1.28l76.8-510.72c0-6.4-6.4-11.52-12.8-11.52h-678.4c-7.68 0-12.8 5.12-12.8 12.8v1.28l-64 510.72z" fill="#231C1C" /></svg>