<?xml version="1.0" encoding="iso-8859-1"?>
<!-- Uploaded to: SVG Repo, www.svgrepo.com, Generator: SVG Repo Mixer Tools -->
<svg height="800px" width="800px" version="1.1" id="Layer_1" xmlns="http://www.w3.org/2000/svg" xmlns:xlink="http://www.w3.org/1999/xlink" 
	 viewBox="0 0 511.999 511.999" xml:space="preserve">
<g>
	<path style="fill:#FDBF00;" d="M255.01,245.07c-0.181,0-0.889,0-1.071,0c-81.526,0-162.691,170.762-110.238,195.247
		c22.905,10.692,46.827,9.279,66.51,4.294c14.488-3.669,29.378-5.479,44.264-5.434c14.886-0.044,29.777,1.764,44.264,5.434
		c19.683,4.985,43.605,6.398,66.51-4.294C417.7,415.833,336.534,245.07,255.01,245.07z"/>
	<path style="fill:#FDBF00;" d="M109.504,151.153c14.069,31.253,67.674,82.64,98.926,68.571
		c31.253-14.069,28.318-88.269,14.248-119.52c-14.069-31.253-50.81-45.182-82.062-31.112S95.435,119.901,109.504,151.153z"/>
</g>
<path style="fill:#EAB200;" d="M23.754,302.932c24.451,16.234,86.739,29.03,102.973,4.579s-19.735-76.889-44.186-93.123
	s-57.432-9.572-73.666,14.879S-0.697,286.698,23.754,302.932z"/>
<g>
	<path style="fill:#FDBF00;" d="M23.754,302.932c24.451,16.234,86.739,29.03,102.973,4.579s-19.735-76.889-44.186-93.123
		s-57.432-9.572-73.666,14.879S-0.697,286.698,23.754,302.932z"/>
	<path style="fill:#FDBF00;" d="M402.495,151.153c-14.069,31.253-67.674,82.64-98.926,68.571
		c-31.253-14.069-28.318-88.269-14.248-119.52c14.069-31.251,50.81-45.182,82.062-31.112S416.564,119.901,402.495,151.153z"/>
	<path style="fill:#FDBF00;" d="M488.246,302.932c-24.451,16.234-86.739,29.03-102.973,4.579
		c-16.234-24.451,19.735-76.889,44.186-93.123c24.451-16.234,57.432-9.572,73.666,14.879
		C519.358,253.717,512.697,286.698,488.246,302.932z"/>
</g>
<g>
	<path style="fill:#EFB000;" d="M255.01,245.07c-0.181,0-0.889,0-1.071,0c-3.722,0-7.445,0.359-11.153,1.042
		c77.507,14.252,149.143,170.839,99.085,194.204c-8.675,4.049-17.496,6.359-26.177,7.4c15.709,1.745,32.9,0.374,49.555-7.4
		C417.7,415.833,336.534,245.07,255.01,245.07z"/>
	<path style="fill:#EFB000;" d="M222.677,100.202c-12.042-26.749-40.693-40.789-68.296-35.463
		c19.164,3.687,36.299,16.316,44.918,35.463c14.069,31.252,17.004,105.451-14.248,119.52c-0.3,0.135-0.605,0.252-0.91,0.375
		c8.773,2.627,17.118,2.852,24.287-0.375C239.681,205.654,236.748,131.455,222.677,100.202z"/>
	<path style="fill:#EFB000;" d="M82.541,214.386c-12.572-8.347-27.396-10.626-41.043-7.561c6.131,1.385,12.119,3.878,17.667,7.561
		c24.451,16.234,60.419,68.672,44.186,93.123c-4.952,7.459-14.192,11.446-25.335,12.933c20.77,2.233,40.554-0.647,48.711-12.933
		C142.96,283.06,106.991,230.62,82.541,214.386z"/>
	<path style="fill:#EFB000;" d="M371.383,69.091c-12.105-5.45-25.028-6.682-37.143-4.351c4.646,0.897,9.264,2.324,13.766,4.351
		c31.253,14.069,45.182,50.81,31.111,82.062c-10.842,24.084-45.162,60.118-74.639,68.946c31.371,12.698,84.082-37.995,98.016-68.946
		C416.564,119.901,402.635,83.161,371.383,69.091z"/>
	<path style="fill:#EFB000;" d="M503.124,229.266c-12.55-18.903-35.11-27.161-56-22.44c12.893,2.896,24.736,10.562,32.623,22.44
		c16.234,24.451,9.572,57.432-14.879,73.666c-12.165,8.077-33.696,15.3-54.262,17.511c25.383,3.387,60.646-6.23,77.638-17.511
		C512.697,286.698,519.358,253.717,503.124,229.266z"/>
</g>
</svg>