<svg xmlns="http://www.w3.org/2000/svg" width="400" height="400" id="pine"><path fill="#0B4870" d="m248.11 193.881-30.222 30.58v13.87c0 .211 0 .392-.034.604v151.409h-35.432V218.791l-.124-.094V110.328c0-9.953 7.826-17.78 17.778-17.78 9.955 0 17.812 7.828 17.812 17.78v63.649l5.31-4.974c6.767-7.13 18.111-7.13 24.912 0 7.096 6.736 7.096 18.113 0 24.878z"></path><path fill="#2A94F4" d="m299.589 293.895-30.171-56.84-9.491-17.879-9.49-17.878-35.624-67.111a16.783 16.783 0 0 0-29.648-.001L95.658 302.807a16.79 16.79 0 0 0 .44 16.518 16.785 16.785 0 0 0 14.382 8.133H289.517c9.269 0 16.784-7.511 16.784-16.781a16.72 16.72 0 0 0-2.382-8.624l-4.33-8.158z"></path><path fill="#2A94F4" d="m288.654 221.177-26.859-50.6-8.448-15.916-8.448-15.916-31.712-59.742a14.937 14.937 0 0 0-13.195-7.936 14.942 14.942 0 0 0-13.197 7.935l-79.68 150.107a14.938 14.938 0 0 0 13.196 21.945H279.688c8.251 0 14.941-6.687 14.941-14.938 0-2.807-.776-5.434-2.121-7.676l-3.854-7.263z"></path><path fill="#2A94F4" d="m281.657 147.917-24.738-46.605-7.782-14.659-7.781-14.66-29.21-55.026a13.76 13.76 0 0 0-24.309-.001l-73.391 138.26a13.769 13.769 0 0 0 .361 13.544 13.762 13.762 0 0 0 11.793 6.668h146.798c7.6 0 13.762-6.159 13.762-13.76 0-2.585-.714-5.005-1.953-7.07l-3.55-6.691z"></path></svg>