<?xml version="1.0" encoding="iso-8859-1"?>
<!-- Uploaded to: SVG Repo, www.svgrepo.com, Generator: SVG Repo Mixer Tools -->
<svg height="800px" width="800px" version="1.1" id="Layer_1" xmlns="http://www.w3.org/2000/svg" xmlns:xlink="http://www.w3.org/1999/xlink" 
	 viewBox="0 0 512 512" xml:space="preserve">
<path style="fill:#8CD2FF;" d="M126.912,298.752c13.45-18.205,36.614-28.775,61.887-23.918c24.143,4.64,43.633,24.051,48.333,48.182
	c7.711,39.577-22.389,74.225-60.579,74.225c-20.483,0-38.595-9.991-49.824-25.348c-4.759-6.509-12.662-9.962-20.726-9.962l0,0
	c-14.665,0-26.554,11.889-26.554,26.553v105.862c0,9.751,7.904,17.655,17.655,17.655h317.793c9.751,0,17.655-7.904,17.655-17.655
	V176.552c0-9.751-7.904-17.655-17.655-17.655H309.037c-14.665,0-26.553-11.89-26.553-26.554v-0.024
	c0-8.168,3.645-16.033,10.214-20.886c15.778-11.658,25.822-30.612,25.056-51.912c-1.159-32.239-28.445-58.975-60.701-59.511
	c-34.61-0.575-62.845,27.307-62.845,61.784c0,20.483,9.991,38.595,25.348,49.824c6.509,4.759,9.962,12.662,9.962,20.726l0,0
	c0,14.665-11.889,26.554-26.553,26.554H97.105c-9.751,0-17.655,7.904-17.655,17.655v106.432c0,14.349,11.633,25.982,25.982,25.982
	h0.486C114.197,308.964,122.059,305.321,126.912,298.752z"/>
<path style="fill:#69BEFF;" d="M316.116,239.284c-9.899-24.716-33.493-40.682-60.11-40.682c-26.622,0-50.217,15.974-60.109,40.694
	l-12.877,32.194c-0.334,0.835-0.542,1.702-0.743,2.568c2.164,0.194,4.322,0.352,6.522,0.776
	c24.143,4.64,43.633,24.051,48.333,48.182c7.711,39.577-22.389,74.225-60.579,74.225c-14.464,0-27.687-5.054-38.197-13.388
	c-0.439,0.751-0.879,1.504-1.207,2.322l-13.811,34.528c-4.687,11.717-4.531,24.559,0.439,36.161
	c4.972,11.604,14.166,20.575,25.888,25.261c5.603,2.249,11.512,3.393,17.54,3.393c19.431,0,36.653-11.665,43.876-29.718
	l5.877-14.692h78.088l5.877,14.691c7.222,18.05,24.446,29.713,43.88,29.713c6.033,0,11.938-1.141,17.554-3.392
	c11.706-4.681,20.9-13.652,25.873-25.255c4.971-11.601,5.127-24.442,0.439-36.161L316.116,239.284z"/>
<path style="fill:#FFC855;" d="M299.723,245.84c-7.197-17.971-24.359-29.583-43.718-29.583c-19.358,0-36.521,11.613-43.718,29.598
	l-12.876,32.192c19.069,7.548,33.735,24.51,37.721,44.969c1.197,6.147,1.386,12.147,0.871,17.944l18.002-45.006l27.32,68.3H231.21
	c-10.358,19.609-30.937,32.986-54.657,32.986c-8.151,0-15.896-1.638-23.011-4.51l-13.811,34.528
	c-6.07,15.175,1.308,32.402,16.49,38.472c15.16,6.084,32.394-1.301,38.472-16.49l10.316-25.79h101.994l10.316,25.79
	c4.631,11.576,15.745,18.614,27.488,18.614c3.656,0,7.378-0.679,10.984-2.124c15.181-6.069,22.56-23.297,16.49-38.472
	L299.723,245.84z"/>
<g>
	<path style="fill:#FFAF4B;" d="M181.439,396.964c-1.62,0.127-3.234,0.276-4.886,0.276c-8.151,0-15.896-1.638-23.011-4.51
		l-13.811,34.528c-6.07,15.175,1.308,32.402,16.49,38.472c8.776,3.522,18.184,2.418,25.783-1.986
		c-12.509-7.249-18.208-22.669-12.683-36.486L181.439,396.964z"/>
	<path style="fill:#FFAF4B;" d="M270.801,218.67c-4.687-1.54-9.653-2.413-14.796-2.413c-19.358,0-36.521,11.613-43.718,29.598
		l-12.876,32.192c8.909,3.527,16.782,9.129,23.117,16.185l19.35-48.377C247.164,232.648,257.845,222.93,270.801,218.67z"/>
	<path style="fill:#FFAF4B;" d="M346.909,449.24l-6.595-16.487c-2.248-5.619-7.689-9.303-13.74-9.303h-19.571l10.316,25.79
		c4.632,11.576,15.745,18.614,27.488,18.614c3.657,0,7.378-0.68,10.984-2.124c1.394-0.557,2.646-1.301,3.904-2.036
		C354.136,460.492,349.479,455.66,346.909,449.24z"/>
	<path style="fill:#FFAF4B;" d="M275.576,295.954h-19.571l27.32,68.301h14.898c7.038,0,11.85-7.107,9.236-13.642l-18.142-45.356
		C287.07,299.638,281.628,295.954,275.576,295.954z"/>
</g>
</svg>