<?xml version="1.0" encoding="utf-8"?>
<!-- Uploaded to: SVG Repo, www.svgrepo.com, Generator: SVG Repo Mixer Tools -->
<svg width="800px" height="800px" viewBox="0 -18 1060 1060" class="icon"  version="1.1" xmlns="http://www.w3.org/2000/svg"><path d="M778.869382 900.026841l-78.925431 104.541579a51.232297 51.232297 0 0 1-69.232834 10.384926l-173.082085-132.234713a155.773876 155.773876 0 0 1-12.46191 20.077522 161.312503 161.312503 0 0 1-225.699038 28.385462 161.312503 161.312503 0 0 1-34.616417-225.006711 155.773876 155.773876 0 0 1 15.231223-18.000537L20.76985 553.862672a51.232297 51.232297 0 0 1-10.384925-69.232834l75.463789-103.849251a168.235786 168.235786 0 0 0 26.308477 24.231492 161.312503 161.312503 0 0 0 225.699039-28.385462 161.312503 161.312503 0 0 0-34.616417-225.006711 168.235786 168.235786 0 0 0-30.462447-18.000536L357.933751 20.76985a51.232297 51.232297 0 0 1 69.232834-10.384925L603.017984 138.465668a161.312503 161.312503 0 0 1 222.929725-24.231492 161.312503 161.312503 0 0 1 38.078059 220.85274L1038.492509 468.013957a51.232297 51.232297 0 0 1 10.384925 69.232834L969.259675 646.634669a168.928115 168.928115 0 0 0-20.76985-18.692865 158.54319 158.54319 0 1 0-191.082622 253.392172 168.928115 168.928115 0 0 0 21.462179 18.692865z" fill="#5D9CEC" /><path d="M547.631716 249.238202a172.389757 167.543458 0 1 0 344.779514 0 172.389757 167.543458 0 1 0-344.779514 0Z" fill="#FFCE54" /></svg>