<?xml version="1.0" encoding="iso-8859-1"?>
<!-- Uploaded to: SVG Repo, www.svgrepo.com, Generator: SVG Repo Mixer Tools -->
<svg height="800px" width="800px" version="1.1" id="Layer_1" xmlns="http://www.w3.org/2000/svg" xmlns:xlink="http://www.w3.org/1999/xlink" 
	 viewBox="0 0 496.158 496.158" xml:space="preserve">
<path style="fill:#334D5C;" d="M248.082,0.003C111.07,0.003,0,111.063,0,248.085c0,137.001,111.07,248.07,248.082,248.07
	c137.006,0,248.076-111.069,248.076-248.07C496.158,111.062,385.088,0.003,248.082,0.003z"/>
<g>
	<polygon style="fill:#DBBB00;" points="125.641,125.369 107.83,124.741 102.234,108.363 96.639,124.741 78.828,125.369 
		93.181,135.384 87.768,152.885 102.234,141.962 116.7,152.885 111.288,135.384 	"/>
	<polygon style="fill:#DBBB00;" points="107.917,129.392 110.985,117.752 101.289,124.886 90.766,118.385 94.956,129.798 
		85.119,137.809 97.669,137.339 101.849,149.183 105.681,137.088 117.835,136.786 	"/>
	<polygon style="fill:#DBBB00;" points="227.058,394.959 209.248,394.331 203.652,377.954 198.057,394.331 180.246,394.959 
		194.599,404.974 189.186,422.476 203.652,411.552 218.118,422.476 212.706,404.974 	"/>
	<polygon style="fill:#DBBB00;" points="209.335,398.984 212.403,387.343 202.707,394.477 192.183,387.976 196.374,399.388 
		186.537,407.4 199.087,406.93 203.267,418.773 207.099,406.679 219.253,406.376 	"/>
	<polygon style="fill:#DBBB00;" points="419.104,162.054 401.294,161.426 395.698,145.048 390.102,161.426 372.292,162.054 
		386.644,172.069 381.232,189.57 395.698,178.647 410.164,189.57 404.752,172.069 	"/>
	<polygon style="fill:#DBBB00;" points="401.381,166.078 404.449,154.437 394.753,161.571 384.229,155.07 388.42,166.483 
		378.583,174.495 391.133,174.024 395.312,185.868 399.144,173.773 411.299,173.471 	"/>
</g>
<path style="fill:#E17A2D;" d="M113.614,247.315c-16.16,0-81.608,11.736-81.608,11.736s65.882,11.929,81.608,11.929
	c8.09,0,8.415-5.934,8.403-11.859C122.006,253.214,121.681,247.315,113.614,247.315z"/>
<path style="fill:#F4E028;" d="M113.327,250.743c-11.479,0-57.964,8.336-57.964,8.336s46.794,8.473,57.964,8.473
	c5.738,0,4.894-4.202,4.894-8.405C118.221,254.945,119.065,250.743,113.327,250.743z"/>
<path style="fill:#FFFFFF;" d="M111.882,254.099c-6.896,0-34.824,5.008-34.824,5.008s28.113,5.09,34.824,5.09
	c3.447,0,1.457-2.525,1.457-5.05C113.339,256.623,115.329,254.099,111.882,254.099z"/>
<path style="fill:#DFEADC;" d="M330.176,196.719c-16.869-2.727-38-3.667-54,1.333s-34.334,17.333-41.334,24.333l-93.519,5.388
	l-9.647-5.638c-0.79,6.056-0.105,18.793-0.105,25.728c0,36.949,0.521,50.689,0.521,50.689s4.567-4.496,10.833-4.083
	c15.834,1.042,46.467,5.917,74.977,5.917c63.033,0,99.619,4.8,150.44-1.5c60.5-7.5,81.086-30.5,81.086-37.5
	C449.428,254.398,402.342,208.386,330.176,196.719z"/>
<path style="fill:#9FC9BF;" d="M446.723,256.362c-7.295,9.722-30.16,19.713-78.381,25.691c-50.821,6.3-87.407,1.5-150.44,1.5
	c-40.625,0-82.745-7.207-82.745-7.207l-2.908,22.821c0,0,3.957-5.179,10.442-4.329c15.632,2.051,46.498,5.547,75.211,5.547
	c63.033,0,99.619,4.8,150.44-1.5c60.5-7.5,81.086-30.5,81.086-37.5C449.428,260.409,448.505,258.666,446.723,256.362z"/>
<path style="fill:#878E8C;" d="M141.084,227.634l-9.408-5.498c-0.79,6.056-0.105,18.793-0.105,25.728
	c0,36.949,0.521,50.689,0.521,50.689s3.888-3.813,9.404-4.086C145.442,264.774,142.507,237.763,141.084,227.634z"/>
<path style="fill:#EA6307;" d="M234.86,220.993c-1.069-17.884-11.008-31.425-19.156-39.636
	c-10.928-11.008-23.297-17.318-31.229-19.551c-5.954-1.676-10.451-1.446-12.666,0.646c-1.799,1.702-2.57,3.642-2.422,6.108
	c0.178,2.977,1.645,6.455,3.674,11.269c3.804,9.018,9.551,22.646,10.839,44.208c0.029,0.494,0.053,0.981,0.077,1.468l50.946-3.042
	C234.908,221.974,234.888,221.485,234.86,220.993z"/>
<path style="fill:#686868;" d="M398.764,220.009c-24.565,20.44-70.864,10.131-70.864,10.131s-3.589-10.465,3.526-22.425
	c2.625-4.411,5.627-7.77,7.246-9.438c-1.576-0.321-3.164-0.63-4.767-0.919c-1.831,1.885-5.239,5.694-8.219,10.701
	c-8.059,13.544-3.993,25.396-3.993,25.396s52.653,11.725,80.428-11.621C401.019,221.223,399.898,220.614,398.764,220.009z"/>
<path style="fill:#969696;" d="M338.672,198.278c-1.619,1.668-4.621,5.027-7.246,9.438c-7.115,11.96-3.526,22.425-3.526,22.425
	s46.299,10.309,70.864-10.131C382.077,211.101,361.785,202.986,338.672,198.278z"/>
<path style="fill:#EA6307;" d="M184.34,289.339c-0.212,9.29-5.003,15.42-8.197,19.507c-1.659,2.121-2.857,3.653-2.857,4.863l0,0
	c0,0.937,0.725,1.625,2.28,2.164c1.99,0.69,5.975,0.634,11.525-0.163c8.22-1.181,20.958-4.213,32.053-9.184
	c8.255-3.699,18.051-9.646,18.577-17.187H184.34z"/>
<path style="fill:#CE5800;" d="M414.492,229.255c-8.109,14.529-17.585,37.623-15.588,63.819
	c37.078-9.931,50.523-26.032,50.523-31.688C449.428,257.762,436.756,243.639,414.492,229.255z"/>
<path style="fill:#EA6307;" d="M418.478,231.894c-7.35,12.228-17.532,34.429-14.216,59.656
	c33.024-9.981,45.165-24.789,45.165-30.164C449.428,257.984,438.262,245.33,418.478,231.894z"/>
<ellipse style="fill:#9EAFAA;" cx="131.679" cy="260.759" rx="5.525" ry="38.625"/>
<ellipse style="fill:#818785;" cx="131.679" cy="260.759" rx="3.166" ry="15.481"/>
<path style="fill:#696B6A;" d="M131.676,245.28c-1.749,0-1.749,30.962,0,30.962c1.746,0,3.166-6.931,3.166-15.481
	C134.842,252.212,133.422,245.28,131.676,245.28z"/>
</svg>