<?xml version="1.0" encoding="iso-8859-1"?>
<!-- Uploaded to: SVG Repo, www.svgrepo.com, Generator: SVG Repo Mixer Tools -->
<svg version="1.1" id="Layer_1" xmlns="http://www.w3.org/2000/svg" xmlns:xlink="http://www.w3.org/1999/xlink" 
	 viewBox="0 0 512.001 512.001" xml:space="preserve">
<rect x="67.018" y="435.986" style="fill:#B0B0B0;" width="33.281" height="76.015"/>
<rect x="411.703" y="435.986" style="fill:#6F6F6F;" width="33.281" height="76.015"/>
<polygon style="fill:#D7D7D7;" points="67.017,470.248 67.017,350.136 199.876,164.643 226.933,184.023 223.695,346.971 "/>
<polygon style="fill:#B0B0B0;" points="444.984,470.248 288.305,346.971 285.067,184.023 312.124,164.643 444.984,350.136 "/>
<path style="fill:#ECECED;" d="M315.236,458.6H196.765V109.471L256,0l59.236,109.471V458.6z"/>
<rect x="224.794" y="473.461" style="fill:#F0C838;" width="62.414" height="33.281"/>
<rect x="256.001" y="473.461" style="fill:#E79C25;" width="31.207" height="33.281"/>
<polygon style="fill:#F0C838;" points="256,0 196.765,109.471 315.236,109.471 "/>
<polygon style="fill:#D7D7D7;" points="315.236,109.471 256,0 256,458.6 315.236,458.6 "/>
<polygon style="fill:#E79C25;" points="256,0 256,109.471 315.236,109.471 "/>
</svg>