<?xml version="1.0" encoding="iso-8859-1"?>
<!-- Uploaded to: SVG Repo, www.svgrepo.com, Generator: SVG Repo Mixer Tools -->
<svg version="1.1" id="Layer_1" xmlns="http://www.w3.org/2000/svg" xmlns:xlink="http://www.w3.org/1999/xlink" 
	 viewBox="0 0 512.001 512.001" xml:space="preserve">
<rect x="92.015" y="427.699" style="fill:#8B8B8B;" width="33.391" height="52.48"/>
<rect x="386.593" y="427.699" style="fill:#6F6F6F;" width="33.391" height="52.48"/>
<path style="fill:#D7D7D7;" d="M363.751,249.65c-22.516-34.527-41.958-64.344-41.958-101.678h-33.391h-64.805h-33.391
	c0,37.334-19.444,67.152-41.957,101.678c-26.36,40.425-56.238,86.243-56.238,151.936v38.334l112.305,35.642h103.368L419.99,439.92
	v-38.334C419.99,335.893,390.112,290.075,363.751,249.65z"/>
<path style="fill:#B0B0B0;" d="M363.751,249.65c-22.516-34.527-41.958-64.344-41.958-101.678h-33.391H256v327.59h51.684
	L419.99,439.92v-38.334C419.99,335.893,390.112,290.075,363.751,249.65z"/>
<path style="fill:#ECECED;" d="M321.801,471.082l-14.118,4.48H204.315l-14.11-4.478V147.972
	c0.001-31.255,11.168-147.971,65.799-147.971s65.798,116.716,65.798,147.971V471.082z"/>
<path style="fill:#D7D7D7;" d="M321.801,471.082l-14.118,4.48H256c0,0,0.004-438.089,0.004-475.562
	c54.63,0,65.798,116.716,65.798,147.971v323.111H321.801z"/>
<rect x="239.304" y="363.02" style="fill:#8B8B8B;" width="33.391" height="148.981"/>
<rect x="256" y="363.02" style="fill:#6F6F6F;" width="16.696" height="148.981"/>
<rect x="222.241" y="117.082" style="fill:#C8F9FA;" width="67.517" height="33.391"/>
<rect x="256" y="117.082" style="fill:#92E5EA;" width="33.763" height="33.391"/>
</svg>