<?xml version="1.0" encoding="utf-8"?>
<!-- Uploaded to: SVG Repo, www.svgrepo.com, Generator: SVG Repo Mixer Tools -->
<svg width="800px" height="800px" viewBox="0 0 1024 1024" class="icon"  version="1.1" xmlns="http://www.w3.org/2000/svg"><path d="M563.2 358.4c0 14.08-11.52 25.6-25.6 25.6H153.6c-14.08 0-25.6-11.52-25.6-25.6V166.4c0-14.08 11.52-25.6 25.6-25.6h230.4c14.08 0 25.6 11.52 25.6 25.6l153.6 192z" fill="#D3AC51" /><path d="M537.6 396.8H153.6c-21.76 0-38.4-16.64-38.4-38.4V166.4c0-21.76 16.64-38.4 38.4-38.4h230.4c19.2 0 35.84 14.08 38.4 33.28l153.6 192v5.12c0 21.76-16.64 38.4-38.4 38.4zM153.6 153.6c-7.68 0-12.8 5.12-12.8 12.8v192c0 7.68 5.12 12.8 12.8 12.8h384c5.12 0 10.24-3.84 12.8-8.96L396.8 171.52V166.4c0-7.68-5.12-12.8-12.8-12.8H153.6z" fill="#231C1C" /><path d="M921.6 768c0 14.08-11.52 25.6-25.6 25.6H153.6c-14.08 0-25.6-11.52-25.6-25.6V256c0-14.08 11.52-25.6 25.6-25.6h742.4c14.08 0 25.6 11.52 25.6 25.6v512z" fill="#FAC546" /><path d="M896 806.4H153.6c-21.76 0-38.4-16.64-38.4-38.4V256c0-21.76 16.64-38.4 38.4-38.4h742.4c21.76 0 38.4 16.64 38.4 38.4v512c0 21.76-16.64 38.4-38.4 38.4zM153.6 243.2c-7.68 0-12.8 5.12-12.8 12.8v512c0 7.68 5.12 12.8 12.8 12.8h742.4c7.68 0 12.8-5.12 12.8-12.8V256c0-7.68-5.12-12.8-12.8-12.8H153.6z" fill="#231C1C" /></svg>