<?xml version="1.0" encoding="UTF-8"?>
<!DOCTYPE svg PUBLIC "-//W3C//DTD SVG 1.1//EN" "http://www.w3.org/Graphics/SVG/1.1/DTD/svg11.dtd">
<!-- Uploaded to: SVG Repo, www.svgrepo.com, Generator: SVG Repo Mixer Tools -->
<svg xmlns="http://www.w3.org/2000/svg" xmlns:xlink="http://www.w3.org/1999/xlink" xml:space="preserve" width="512" height="512" version="1.1" style="shape-rendering:geometricPrecision; text-rendering:geometricPrecision; image-rendering:optimizeQuality; fill-rule:evenodd; clip-rule:evenodd" viewBox="0 0 4286 4286">
 <defs>
  <style type="text/css">
   <![CDATA[
    .fil0 {fill:#83CF8F}
    .fil2 {fill:#C6CBD6}
    .fil1 {fill:#E4E7ED}
    .fil5 {fill:#FF7069}
    .fil4 {fill:#FFE356}
    .fil3 {fill:white}
   ]]>
  </style>
 </defs>
 <g id="Layer_x0020_1">
  <metadata id="CorelCorpID_0Corel-Layer"/>
  <g id="_360788056">
   <circle class="fil0" cx="2143" cy="2143" r="2143"/>
   <g>
    <path class="fil1" d="M3834 1304c-469,-49 -939,-98 -1408,-147 -469,-49 -939,-98 -1408,-147 -80,-8 -129,54 -111,138 63,284 127,568 190,851 63,283 127,567 190,851 19,84 80,153 136,153 330,0 661,0 992,0l729 0 0 109c0,16 -13,29 -29,29l-1551 0c-16,0 -29,13 -29,29l0 95c0,16 13,29 29,29l1580 0 124 0c16,0 29,-13 29,-29l0 -124 0 -137 110 0c56,0 118,-57 138,-128 67,-238 133,-476 200,-714 66,-238 133,-476 200,-714 20,-71 -29,-135 -109,-143zm-324 193c-3,0 -6,-1 -9,-1 -34,-3 -65,20 -71,52 -36,190 -71,380 -107,570 -36,190 -71,380 -106,570 -6,32 10,58 36,59 3,0 5,0 7,0 26,1 53,-25 60,-56 40,-189 80,-377 120,-566 40,-189 80,-377 120,-566 7,-32 -16,-60 -49,-63zm-2204 -199c-3,0 -6,-1 -9,-1 -33,-3 -56,24 -49,60 39,217 77,433 116,649 39,216 78,432 116,649 7,36 33,66 59,67 2,0 5,0 7,0 26,1 42,-29 37,-64 -34,-215 -69,-429 -103,-644 -34,-215 -68,-430 -103,-644 -6,-36 -38,-68 -71,-71zm438 14c-3,0 -6,-1 -9,-1 -34,-3 -58,23 -54,58 24,211 48,422 72,634 24,211 48,422 72,633 4,35 29,65 55,65 2,0 5,0 7,0 26,1 45,-28 42,-63 -20,-209 -39,-419 -59,-628 -20,-210 -39,-419 -59,-629 -3,-35 -33,-66 -67,-69zm443 42c-3,0 -6,-1 -9,-1 -34,-3 -60,22 -58,57 9,206 18,412 27,618 9,206 18,412 27,617 2,34 24,63 50,64 2,0 5,0 7,0 26,1 47,-27 46,-61 -5,-204 -9,-408 -14,-613 -5,-204 -9,-409 -14,-613 -1,-34 -29,-64 -62,-68zm443 42c-3,0 -6,-1 -9,-1 -34,-3 -62,21 -63,55 -6,201 -11,401 -17,602 -6,201 -12,401 -17,602 -1,34 20,61 46,62 2,0 5,0 7,0 26,1 49,-26 50,-59 10,-199 21,-398 31,-597 10,-199 20,-398 30,-597 2,-33 -24,-63 -57,-66zm443 42c-3,0 -6,-1 -9,-1 -33,-3 -64,21 -67,54 -21,196 -41,391 -62,586 -21,196 -42,391 -62,586 -3,33 15,60 41,60 2,0 5,0 7,0 26,1 51,-25 55,-58 25,-194 50,-387 75,-581 25,-194 50,-388 75,-582 4,-33 -20,-62 -53,-65z"/>
    <path class="fil2" d="M3879 1424l-102 353 -258 -26c13,-64 27,-127 40,-191 7,-32 -16,-60 -49,-63 -3,0 -6,-1 -9,-1 -34,-3 -65,20 -71,52 -12,63 -24,127 -36,190l-296 -29 27 -206c4,-33 -20,-62 -53,-65 -3,0 -6,-1 -9,-1 -33,-3 -64,21 -67,54 -7,69 -15,137 -22,206l-297 -30c3,-68 7,-136 11,-205 2,-33 -24,-63 -57,-66 -3,0 -6,-1 -9,-1 -34,-3 -62,21 -63,55 -2,68 -4,136 -6,204l-298 -30c-2,-68 -3,-136 -5,-203 -1,-34 -29,-64 -62,-68 -3,0 -6,-1 -9,-1 -34,-3 -60,22 -58,57 3,68 6,135 9,203l-299 -30c-6,-67 -13,-134 -19,-202 -3,-35 -33,-66 -67,-69 -3,0 -6,-1 -9,-1 -34,-3 -58,23 -54,58 8,67 15,134 23,201l-299 -30c-9,-57 -18,-114 -28,-172 -6,-36 -38,-68 -71,-71 -3,0 -6,-1 -9,-1 -33,-3 -56,24 -49,60 10,57 20,114 31,171l-213 -21 -159 -359 2971 275z"/>
    <path class="fil1" d="M3994 1262l-3700 -355 -1 -513c0,-32 -26,-58 -57,-59l-99 -3c-32,-1 -58,24 -58,56l2 676c0,32 25,58 57,59l4 0c6,3 12,4 19,5l3805 365c34,3 66,-22 70,-56l13 -108c4,-34 -20,-65 -55,-68z"/>
   </g>
   <circle class="fil3" cx="3462" cy="3208" r="745"/>
   <path class="fil4" d="M3462 2542c368,0 666,298 666,666 0,368 -298,666 -666,666 -368,0 -666,-298 -666,-666 0,-368 298,-666 666,-666z"/>
   <path class="fil5" d="M3462 2996c-79,-147 -272,-156 -369,-39 -75,91 -75,243 55,338 147,108 220,143 314,300 95,-157 167,-192 314,-300 129,-94 130,-246 54,-338 -97,-117 -290,-108 -369,39z"/>
  </g>
 </g>
</svg>