<?xml version="1.0" encoding="iso-8859-1"?>
<!-- Uploaded to: SVG Repo, www.svgrepo.com, Generator: SVG Repo Mixer Tools -->
<svg height="800px" width="800px" version="1.1" id="Layer_1" xmlns="http://www.w3.org/2000/svg" xmlns:xlink="http://www.w3.org/1999/xlink" 
	 viewBox="0 0 392.598 392.598" xml:space="preserve">
<g>
	<path style="fill:#FFFFFF;" d="M206.901,370.747c6.012,0,10.925-4.848,10.925-10.925v-42.796H21.818v42.796
		c0,6.012,4.848,10.925,10.925,10.925H206.901z"/>
	<path style="fill:#FFFFFF;" d="M21.818,32.711v262.465h195.943v-46.933L182.4,276.234c-1.939,1.552-5.236,3.62-11.507,1.228
		c-3.943-1.487-6.206-5.624-6.206-9.826v-24.113c-15.451-2.521-27.345-16.097-27.345-32.323V98.392
		c0-18.036,14.675-32.711,32.711-32.711h47.709v-32.97c0-6.012-4.848-10.925-10.925-10.925H32.743
		C26.731,21.786,21.818,26.699,21.818,32.711z"/>
</g>
<g>
	<path style="fill:#194F82;" d="M107.152,354.392h25.406c6.012,0,10.925-4.848,10.925-10.925c0-6.012-4.848-10.925-10.925-10.925
		h-25.406c-6.012,0-10.925,4.849-10.925,10.925C96.162,349.479,101.075,354.392,107.152,354.392z"/>
	<path style="fill:#194F82;" d="M159.192,47.451c0-6.012-4.848-10.925-10.925-10.925H91.249c-6.012,0-10.925,4.848-10.925,10.925
		c0,6.012,4.848,10.925,10.925,10.925h57.018C154.343,58.44,159.192,53.463,159.192,47.451z"/>
</g>
<path style="fill:#FFC10D;" d="M359.855,87.467H170.117c-6.012,0-10.925,4.848-10.925,10.925v113.002
	c0,6.012,4.848,10.925,10.925,10.925h5.56c6.012,0,10.925,4.848,10.925,10.925v12.024l26.053-20.558
	c1.939-1.552,4.331-2.327,6.788-2.327h140.412c6.012,0,10.925-4.848,10.925-10.925V98.392
	C370.78,92.315,365.931,87.467,359.855,87.467z"/>
<path style="fill:#194F82;" d="M359.855,65.681H239.612v-32.97C239.612,14.675,224.937,0,206.901,0H32.743
	C14.707,0,0.032,14.675,0.032,32.711v327.111c0,18.101,14.675,32.776,32.711,32.776h174.158c18.036,0,32.711-14.675,32.711-32.711
	V244.105h120.242c18.036,0,32.711-14.675,32.711-32.711V98.392C392.566,80.356,377.891,65.681,359.855,65.681z M370.78,211.329
	c0,6.012-4.848,10.925-10.925,10.925H219.378c-2.457,0-4.848,0.84-6.788,2.327l-26.053,20.558v-12.024
	c0-6.012-4.848-10.925-10.925-10.925h-5.56c-6.012,0-10.925-4.848-10.925-10.925V98.392c0-6.012,4.848-10.925,10.925-10.925h189.673
	c6.012,0,10.925,4.848,10.925,10.925v113.002h0.129V211.329z M21.818,359.822v-42.796h195.943v42.796
	c0,6.012-4.848,10.925-10.925,10.925H32.743C26.731,370.747,21.818,365.834,21.818,359.822z M217.762,32.711v32.97h-47.709
	c-18.036,0-32.711,14.675-32.711,32.711v113.002c0,16.226,11.83,29.673,27.345,32.323v24.113c0,4.202,2.263,8.339,6.206,9.826
	c6.271,2.327,9.568,0.323,11.507-1.228l35.362-27.992v46.933H21.818V32.711c0-6.012,4.848-10.925,10.925-10.925h174.158
	C212.913,21.786,217.762,26.699,217.762,32.711z"/>
<path style="fill:#56ACE0;" d="M182.4,276.234c-1.939,1.552-5.236,3.62-11.507,1.228c-3.943-1.487-6.206-5.624-6.206-9.826v-24.113
	c-15.451-2.521-27.345-16.097-27.345-32.323V98.392c0-8.404,3.168-15.968,8.404-21.786H43.475v56.436h60.962
	c6.012,0,10.925,4.848,10.925,10.925c0,6.012-4.848,10.925-10.925,10.925H43.475v35.62h36.396c6.012,0,10.925,4.848,10.925,10.925
	s-4.848,10.925-10.925,10.925H43.475v82.812h152.372v-29.608L182.4,276.234z"/>
<path style="fill:#194F82;" d="M262.885,131.426h20.558c6.012,0,10.925-4.848,10.925-10.925c0-6.077-4.848-10.925-10.925-10.925
	h-7.564v-1.939c0-6.012-4.848-10.925-10.925-10.925c-6.012,0-10.925,4.848-10.925,10.925v3.556
	c-10.731,3.685-18.489,13.77-18.489,25.729c0,15.063,12.283,27.345,27.41,27.345h4.008c3.103,0,5.56,2.457,5.56,5.56
	s-2.457,5.56-5.56,5.56H246.4c-6.012,0-10.925,4.848-10.925,10.925c0,6.012,4.848,10.925,10.925,10.925h7.564v1.939
	c0,6.012,4.848,10.925,10.925,10.925c6.012,0,10.925-4.848,10.925-10.925v-3.556c10.731-3.685,18.489-13.77,18.489-25.729
	c0-15.063-12.283-27.345-27.41-27.345h-4.008c-3.103,0-5.56-2.457-5.56-5.56S259.911,131.426,262.885,131.426z"/>
</svg>