<?xml version="1.0" ?>
<!DOCTYPE svg  PUBLIC '-//W3C//DTD SVG 1.1//EN'  'http://www.w3.org/Graphics/SVG/1.1/DTD/svg11.dtd'>
<!-- Uploaded to: SVG Repo, www.svgrepo.com, Generator: SVG Repo Mixer Tools -->
<svg fill="#000000" width="800px" height="800px" viewBox="0 0 32 32" style="fill-rule:evenodd;clip-rule:evenodd;stroke-linejoin:round;stroke-miterlimit:2;" version="1.1" xml:space="preserve" xmlns="http://www.w3.org/2000/svg" xmlns:serif="http://www.serif.com/" xmlns:xlink="http://www.w3.org/1999/xlink">
<g transform="matrix(1,0,0,1,-240,-192)">
<g transform="matrix(0.882353,0,0,1,73.2941,144)">
<path d="M215,53C215,51.895 213.985,51 212.733,51C209.48,51 203.52,51 200.267,51C199.015,51 198,51.895 198,53C198,57.843 198,70.157 198,75C198,76.105 199.015,77 200.267,77C203.52,77 209.48,77 212.733,77C213.985,77 215,76.105 215,75C215,70.157 215,57.843 215,53Z" style="fill:rgb(144,224,239);"/>
</g>
<path d="M247,197L247,219C247,220.657 248.343,222 250,222C252.871,222 258.129,222 261,222C262.657,222 264,220.657 264,219L264,197C264,195.343 262.657,194 261,194C258.129,194 252.871,194 250,194C248.343,194 247,195.343 247,197ZM262,218L262,219C262,219.552 261.552,220 261,220L250,220C249.448,220 249,219.552 249,219L249,218L262,218ZM262,216L249,216L249,197C249,196.448 249.448,196 250,196L261,196C261.552,196 262,196.448 262,197L262,216ZM254,199L258,199C258.552,199 259,198.552 259,198C259,197.448 258.552,197 258,197L254,197C253.448,197 253,197.448 253,198C253,198.552 253.448,199 254,199Z" style="fill:rgb(25,144,167);"/>
</g>
</svg>