<?xml version="1.0" encoding="iso-8859-1"?>
<!-- Uploaded to: SVG Repo, www.svgrepo.com, Generator: SVG Repo Mixer Tools -->
<svg height="800px" width="800px" version="1.1" id="Layer_1" xmlns="http://www.w3.org/2000/svg" xmlns:xlink="http://www.w3.org/1999/xlink" 
	 viewBox="0 0 392.533 392.533" xml:space="preserve">
<path style="fill:#FFFFFF;" d="M291.232,21.786H101.301c-6.012,0-10.925,4.848-10.925,10.925v327.111
	c0,6.012,4.848,10.925,10.925,10.925h189.931c6.012,0,10.925-4.848,10.925-10.925V32.711
	C302.158,26.699,297.244,21.786,291.232,21.786z"/>
<path style="fill:#194F82;" d="M291.232,0H101.301C83.265,0,68.59,14.675,68.59,32.711v327.111
	c0,18.036,14.675,32.711,32.711,32.711h189.931c18.036,0,32.711-14.675,32.711-32.711V32.711C323.943,14.675,309.269,0,291.232,0z
	 M302.158,359.822c0,6.012-4.848,10.925-10.925,10.925H101.301c-6.012,0-10.925-4.848-10.925-10.925V32.711
	c0-6.012,4.848-10.925,10.925-10.925h189.931c6.012,0,10.925,4.848,10.925,10.925V359.822L302.158,359.822z"/>
<path style="fill:#56ACE0;" d="M259.426,79.127H134.917c-12.024,0-21.786,9.762-21.786,21.786v139.636h51.071
	c6.012,0,10.925,4.848,10.925,10.925c0,6.012-4.848,10.925-10.925,10.925h-51.071v22.949h29.608c6.012,0,10.925,4.848,10.925,10.925
	c0,6.012-4.848,10.925-10.925,10.925h-23.079c3.943,3.943,9.374,6.335,15.386,6.335h124.509c12.024,0,21.786-9.762,21.786-21.786
	V101.042C281.212,88.889,271.451,79.127,259.426,79.127z"/>
<polygon style="fill:#FFC10D;" points="143.774,157.22 156.832,210.166 235.701,210.166 248.76,157.22 "/>
<g>
	<path style="fill:#194F82;" d="M271.257,139.636c-2.069-2.65-5.236-4.202-8.598-4.202h-5.495l-19.071-31.289
		c-3.168-5.172-9.826-6.723-14.998-3.62c-5.107,3.168-6.723,9.826-3.62,14.998l12.154,19.846H160.97l12.154-19.846
		c3.168-5.107,1.552-11.83-3.62-14.998c-5.107-3.168-11.83-1.552-14.998,3.62l-19.071,31.289h-5.495
		c-3.297,0-6.465,1.552-8.598,4.202c-2.069,2.65-2.78,6.077-2.004,9.374l18.36,74.731c1.228,4.848,5.56,8.275,10.602,8.275h95.935
		c5.042,0,9.374-3.426,10.602-8.275l18.36-74.731C274.036,145.713,273.325,142.222,271.257,139.636z M156.832,210.166
		l-13.059-52.881H248.76l-13.059,52.881H156.832z"/>
	<path style="fill:#194F82;" d="M209.842,326.594h-27.152c-6.012,0-10.925,4.848-10.925,10.925c0,6.012,4.848,10.925,10.925,10.925
		h27.152c6.012,0,10.925-4.848,10.925-10.925C220.768,331.507,215.79,326.594,209.842,326.594z"/>
	<path style="fill:#194F82;" d="M230.335,41.18h-68.137c-6.012,0-10.925,4.848-10.925,10.925c0,6.012,4.848,10.925,10.925,10.925
		h68.137c6.012,0,10.925-4.848,10.925-10.925S236.347,41.18,230.335,41.18z"/>
</g>
</svg>