<?xml version="1.0" encoding="iso-8859-1"?>
<!-- Uploaded to: SVG Repo, www.svgrepo.com, Generator: SVG Repo Mixer Tools -->
<svg version="1.1" id="Layer_1" xmlns="http://www.w3.org/2000/svg" xmlns:xlink="http://www.w3.org/1999/xlink" 
	 viewBox="0 0 392.533 392.533" xml:space="preserve">
<g>
	<path style="fill:#FFFFFF;" d="M93.414,308.364v51.459c0,6.012,4.848,10.925,10.925,10.925h183.855
		c6.012,0,10.925-4.848,10.925-10.925v-51.459H93.414z"/>
	<path style="fill:#FFFFFF;" d="M298.99,32.711c0-6.012-4.848-10.925-10.925-10.925H104.339c-6.012,0-10.925,4.848-10.925,10.925
		V69.43H298.99V32.711z"/>
</g>
<rect x="93.414" y="69.43" style="fill:#FFC10D;" width="205.64" height="238.933"/>
<g>
	<path style="fill:#194F82;" d="M288.065,0H104.339C86.303,0,71.628,14.675,71.628,32.711v327.111
		c0,18.036,14.675,32.711,32.711,32.711h183.855c18.036,0,32.711-14.675,32.711-32.711V32.711C320.84,14.675,306.166,0,288.065,0z
		 M299.055,359.822h-0.065c0,6.012-4.848,10.925-10.925,10.925H104.339c-6.012,0-10.925-4.848-10.925-10.925V32.711
		c0-6.012,4.848-10.925,10.925-10.925h183.855c6.012,0,10.925,4.848,10.925,10.925v327.111H299.055z"/>
	<path style="fill:#194F82;" d="M148.299,321.681h-21.398c-6.012,0-10.925,4.848-10.925,10.925s4.848,10.925,10.925,10.925h21.398
		c6.012,0,10.925-4.848,10.925-10.925C159.16,326.529,154.311,321.681,148.299,321.681z"/>
	<path style="fill:#194F82;" d="M206.869,321.681h-21.398c-6.012,0-10.925,4.848-10.925,10.925s4.848,10.925,10.925,10.925h21.398
		c6.012,0,10.925-4.848,10.925-10.925C217.729,326.529,212.881,321.681,206.869,321.681z"/>
	<path style="fill:#194F82;" d="M265.503,321.681h-21.398c-6.012,0-10.925,4.848-10.925,10.925s4.848,10.925,10.925,10.925h21.398
		c6.012,0,10.925-4.848,10.925-10.925S271.515,321.681,265.503,321.681z"/>
	<path style="fill:#194F82;" d="M170.02,59.733h52.364c6.012,0,10.925-4.848,10.925-10.925s-4.848-10.925-10.925-10.925H170.02
		c-6.012,0-10.925,4.848-10.925,10.925S164.008,59.733,170.02,59.733z"/>
	<path style="fill:#194F82;" d="M181.01,166.529c3.491,4.331,10.796,4.848,15.386,0.776c4.461-4.008,4.784-10.99,0.776-15.386
		l-11.507-12.735h45.64c6.012,0,10.925-4.848,10.925-10.925c0-6.077-4.848-10.925-10.925-10.925h-45.64l11.507-12.735
		c4.008-4.461,3.685-11.378-0.776-15.386c-4.461-4.008-11.378-3.685-15.386,0.776l-27.992,30.901c-3.814,4.202-3.814,10.537,0,14.61
		L181.01,166.529z"/>
	<path style="fill:#194F82;" d="M195.297,265.826c-4.008,4.461-3.685,11.378,0.776,15.386c4.461,4.008,11.378,3.685,15.386-0.776
		l27.992-30.901c3.814-4.202,3.814-10.537,0-14.61l-28.057-30.901c-3.491-4.331-10.796-4.848-15.386-0.776
		c-4.461,4.008-4.784,10.99-0.776,15.386l11.507,12.735h-45.64c-6.012,0-10.925,4.848-10.925,10.925
		c0,6.012,4.848,10.925,10.925,10.925h45.64L195.297,265.826z"/>
</g>
</svg>