<?xml version="1.0" encoding="utf-8"?>

<!-- Uploaded to: SVG Repo, www.svgrepo.com, Generator: SVG Repo Mixer Tools -->
<svg version="1.1" id="Icons" xmlns="http://www.w3.org/2000/svg" xmlns:xlink="http://www.w3.org/1999/xlink" 
	 viewBox="0 0 32 32" xml:space="preserve">
<style type="text/css">
	.st0{fill:#FFFFFF;}
	.st1{fill:#3A559F;}
	.st2{fill:#F4F4F4;}
	.st3{fill:#FF0084;}
	.st4{fill:#0063DB;}
	.st5{fill:#00ACED;}
	.st6{fill:#FFEC06;}
	.st7{fill:#FF0000;}
	.st8{fill:#25D366;}
	.st9{fill:#0088FF;}
	.st10{fill:#314358;}
	.st11{fill:#EE6996;}
	.st12{fill:#01AEF3;}
	.st13{fill:#FFFEFF;}
	.st14{fill:#F06A35;}
	.st15{fill:#00ADEF;}
	.st16{fill:#1769FF;}
	.st17{fill:#1AB7EA;}
	.st18{fill:#6001D1;}
	.st19{fill:#E41214;}
	.st20{fill:#05CE78;}
	.st21{fill:#7B519C;}
	.st22{fill:#FF4500;}
	.st23{fill:#00F076;}
	.st24{fill:#FFC900;}
	.st25{fill:#00D6FF;}
	.st26{fill:#FF3A44;}
	.st27{fill:#FF6A36;}
	.st28{fill:#0061FE;}
	.st29{fill:#F7981C;}
	.st30{fill:#EE1B22;}
	.st31{fill:#EF3561;}
	.st32{fill:none;stroke:#FFFFFF;stroke-width:2;stroke-miterlimit:10;}
	.st33{fill:#0097D3;}
	.st34{fill:#01308A;}
	.st35{fill:#019CDE;}
	.st36{fill:#FFD049;}
	.st37{fill:#16A05D;}
	.st38{fill:#4486F4;}
	.st39{fill:none;}
	.st40{fill:#34A853;}
	.st41{fill:#4285F4;}
	.st42{fill:#FBBC05;}
	.st43{fill:#EA4335;}
</style>
<path class="st6" d="M23,0H9C4,0,0,4,0,9v14c0,5,4,9,9,9h14c5,0,9-4,9-9V9C32,4,28,0,23,0z"/>
<g>
	<path class="st0" d="M16.1,28.5c-0.7,0-1.4-0.1-2.1-0.3c-0.8-0.3-1.6-0.7-2.2-1.1c-0.7-0.4-1.5-0.6-2.4-0.6l-0.1,0
		c-0.2,0-0.4,0-0.7-0.1l-0.2,0c-0.7-0.1-1.6-0.4-1.8-1.6c-0.1,0-0.2-0.1-0.3-0.1l-0.5-0.2c-0.4-0.2-0.8-0.3-1.2-0.5
		c-1-0.5-1.1-1.3-1.1-1.6c0-0.3,0.1-1.1,1.1-1.7c1.2-0.6,2-1.3,2.6-2c0.5-0.5,0.8-1.1,1-1.7c-0.2-0.1-0.3-0.2-0.4-0.3
		c-0.3-0.2-0.5-0.4-0.8-0.5c-0.3-0.2-0.5-0.4-0.8-0.7c-0.7-0.7-0.8-1.6-0.4-2.5c0.4-0.8,1.1-1.3,2-1.3c0.1,0,0.2,0,0.3,0
		c0.2,0,0.4,0.1,0.6,0.1c0-0.7,0-1.4,0.1-2.1c0.2-2.5,1.6-4.4,3.9-5.5C14,3.6,14.7,3.5,16,3.5c2.3,0,4.2,0.8,5.7,2.4
		c1,1,1.5,2.3,1.7,3.7c0.1,0.7,0.1,1.4,0.1,2.2c0.2,0,0.5-0.1,0.7-0.1c0,0,0,0,0,0c1,0,1.8,0.6,2.1,1.4c0.3,0.9,0.1,1.9-0.6,2.5
		c-0.4,0.3-0.7,0.6-1.1,0.9l-0.3,0.2c-0.1,0.1-0.3,0.2-0.4,0.3c0,0-0.1,0-0.1,0.1c0.4,1,1,1.9,2,2.6c0.3,0.2,0.7,0.5,1.1,0.7
		c0.2,0.1,0.5,0.3,0.7,0.4c1,0.6,1,1.4,0.9,1.8c-0.1,0.6-0.6,1.2-1.2,1.5c-0.6,0.2-1.2,0.5-1.8,0.7c-0.2,0.9-0.9,1.6-1.9,1.6l-0.1,0
		c-0.2,0-0.4,0.1-0.7,0.1l-0.2,0c-1,0-1.9,0.3-2.7,0.9C18.7,28.1,17.4,28.5,16.1,28.5z"/>
	<path d="M16,4C16,4,16,4,16,4c2.2,0,3.9,0.8,5.3,2.2c0.9,1,1.4,2.1,1.6,3.5c0.1,0.9,0.1,1.8,0.1,2.8c0.1,0,0.1,0,0.2-0.1
		c0.4-0.1,0.7-0.2,1.1-0.2c0,0,0,0,0.1,0c0.7,0,1.3,0.4,1.5,1.1c0.3,0.7,0.1,1.5-0.5,1.9c-0.4,0.3-0.7,0.6-1.1,0.8L24,16.3
		c-0.1,0.1-0.2,0.2-0.4,0.3c-0.1,0.1-0.2,0.1-0.3,0.2c0,0-0.1,0.1-0.1,0.1c0,0,0,0.1,0,0.1c0.4,1.2,1.1,2.2,2.2,3
		c0.3,0.3,0.7,0.5,1.1,0.7c0.2,0.1,0.5,0.3,0.7,0.4c0.7,0.4,0.8,0.9,0.7,1.3c-0.1,0.5-0.4,0.9-0.9,1.1c-0.7,0.3-1.4,0.6-2.1,0.8
		c-0.1,0.9-0.7,1.5-1.5,1.5c-0.1,0-0.1,0-0.2,0c-0.2,0-0.4,0.1-0.6,0.1c0,0,0,0,0,0c0,0-0.1,0-0.1,0c-1.1,0-2.1,0.3-3,0.9
		c-1.1,0.7-2.3,1.1-3.5,1.1c-0.6,0-1.3-0.1-2-0.3c-0.8-0.2-1.5-0.7-2.1-1c-0.8-0.5-1.6-0.7-2.6-0.7c0,0-0.1,0-0.1,0
		c-0.2,0-0.4,0-0.6,0l-0.2,0c-0.8-0.1-1.3-0.4-1.5-1.5c-0.1,0-0.1,0-0.2-0.1c-0.1,0-0.3-0.1-0.4-0.1L6,24c-0.4-0.1-0.8-0.3-1.1-0.5
		C4.1,23.2,4,22.6,4,22.3c0-0.3,0.1-0.8,0.8-1.2c1.2-0.7,2.1-1.3,2.8-2.1c0.6-0.7,1-1.4,1.2-2.1c0,0,0,0,0,0
		c-0.3-0.2-0.5-0.4-0.8-0.5c-0.3-0.2-0.5-0.3-0.7-0.5c-0.2-0.2-0.5-0.4-0.7-0.7c-0.5-0.5-0.6-1.3-0.3-1.9c0.3-0.6,0.9-1,1.5-1
		c0.1,0,0.2,0,0.2,0c0.4,0.1,0.8,0.2,1.1,0.3c0,0,0,0,0,0c0-0.9,0-1.8,0-2.7c0.2-2.3,1.5-4.1,3.6-5.1C14.1,4.1,14.7,4,16,4
		C16,4,16,4,16,4 M16,3L16,3l-0.1,0c-1.3,0-2.1,0.1-3.5,0.8C9.9,5,8.4,7.1,8.2,9.7c0,0.5-0.1,1-0.1,1.5c-0.1,0-0.2,0-0.4,0
		c-1,0-1.9,0.6-2.4,1.6c-0.5,1-0.3,2.2,0.5,3.1c0.3,0.3,0.6,0.6,0.9,0.8C7,16.8,7.2,17,7.5,17.2c0,0,0.1,0.1,0.1,0.1
		c-0.2,0.4-0.5,0.8-0.8,1.2c-0.6,0.7-1.4,1.3-2.5,1.9C3.1,20.9,3,21.9,3,22.4c0,0.9,0.5,1.6,1.4,2c0.4,0.2,0.9,0.4,1.2,0.5l0.5,0.2
		c0,0,0.1,0,0.1,0c0.5,1.4,1.7,1.7,2.2,1.7l0.2,0C8.8,26.9,9,27,9.3,27l0.1,0c0.8,0,1.5,0.2,2.1,0.6c0.6,0.4,1.4,0.9,2.3,1.1
		c0.8,0.2,1.5,0.3,2.3,0.3c1.4,0,2.8-0.4,4.1-1.3c0.8-0.5,1.6-0.8,2.5-0.8l0.1,0l0,0l0,0c0.3,0,0.5,0,0.7-0.1c0.1,0,0.1,0,0.1,0
		c1.1-0.1,1.9-0.8,2.3-1.7c0.6-0.2,1.1-0.4,1.6-0.6c0.8-0.3,1.4-1.1,1.5-1.9c0.1-0.4,0.1-1.5-1.2-2.3c-0.2-0.2-0.5-0.3-0.7-0.4
		c-0.4-0.2-0.7-0.4-1-0.7c-0.8-0.6-1.3-1.3-1.7-2c0.1,0,0.1-0.1,0.2-0.1l0.3-0.2c0.4-0.3,0.8-0.6,1.1-0.9c0.9-0.7,1.2-1.9,0.8-3
		c-0.4-1.1-1.4-1.8-2.5-1.8l-0.1,0c-0.1,0-0.1,0-0.2,0c0-0.6-0.1-1.1-0.1-1.7c-0.2-1.5-0.8-2.9-1.8-4C20.5,3.9,18.5,3,16,3L16,3
		L16,3z"/>
</g>
</svg>