<?xml version="1.0" encoding="utf-8"?><!-- Uploaded to: SVG Repo, www.svgrepo.com, Generator: SVG Repo Mixer Tools -->
<svg width="800px" height="800px" viewBox="0 0 512 512" xmlns="http://www.w3.org/2000/svg" xmlns:xlink="http://www.w3.org/1999/xlink" aria-hidden="true" role="img" class="iconify iconify--fxemoji" preserveAspectRatio="xMidYMid meet"><path fill="#E5E4DF" d="M256 0C122.2 0 13.7 108.6 13.7 242.5c0 62.2 23.4 118.9 61.8 161.8l-6.2 91.9c-.1.7-.2 1.5-.2 2.2v.2c.1 3.4 1.8 6.7 4.9 8.7c3 2 6.7 2.3 9.9 1.1l.1-.1c.7-.3 1.4-.6 2-1l79.4-39.8c28 11.3 58.5 17.5 90.6 17.5c133.8 0 242.2-108.6 242.2-242.5S389.7 0 256 0z"></path><circle fill="#2B3B47" cx="284.7" cy="281.3" r="11"></circle><circle fill="#2B3B47" cx="326.8" cy="281.3" r="11"></circle><circle fill="#2B3B47" cx="368.9" cy="281.3" r="11"></circle><path fill="none" stroke="#2B3B47" stroke-width="22.445" stroke-linecap="round" stroke-miterlimit="10" d="M89 214.2h332.6M89 281.3h146.7"></path></svg>