<?xml version="1.0" encoding="iso-8859-1"?>
<!-- Uploaded to: SVG Repo, www.svgrepo.com, Generator: SVG Repo Mixer Tools -->
<svg height="800px" width="800px" version="1.1" id="Layer_1" xmlns="http://www.w3.org/2000/svg" xmlns:xlink="http://www.w3.org/1999/xlink" 
	 viewBox="0 0 392.598 392.598" xml:space="preserve">
<path style="fill:#56ACE0;" d="M359.855,279.273H32.743c-6.012,0-10.925,4.848-10.925,10.925v58.828
	c0,6.012,4.848,10.925,10.925,10.925h327.111c6.012,0,10.925-4.848,10.925-10.925v-58.828
	C370.78,284.121,365.867,279.273,359.855,279.273z"/>
<g>
	<path style="fill:#194F82;" d="M359.855,257.422h-10.99V10.925C348.865,4.913,344.016,0,337.939,0
		c-6.012,0-10.925,4.848-10.925,10.925v246.497H65.584V10.925C65.584,4.913,60.735,0,54.659,0S43.733,4.913,43.733,10.925v246.497
		h-10.99c-18.036,0-32.711,14.675-32.711,32.711v58.828c0,18.036,14.675,32.711,32.711,32.711h21.01
		c0,6.012,4.848,10.925,10.925,10.925h34.392c6.012,0,10.925-4.848,10.925-10.925h172.8c0,6.012,4.848,10.925,10.925,10.925h34.392
		c6.012,0,10.925-4.848,10.925-10.925h20.816c18.036,0,32.711-14.675,32.711-32.711v-58.828
		C392.566,272.162,377.891,257.422,359.855,257.422z M370.78,349.026c0,6.012-4.848,10.925-10.925,10.925H32.743
		c-6.012,0-10.925-4.848-10.925-10.925v-58.828c0-6.012,4.848-10.925,10.925-10.925h327.111c6.012,0,10.925,4.848,10.925,10.925
		V349.026L370.78,349.026z"/>
	<path style="fill:#194F82;" d="M121.115,308.558H59.313c-6.012,0-10.925,4.848-10.925,10.925c0,6.012,4.848,10.925,10.925,10.925
		h61.802c6.012,0,10.925-4.849,10.925-10.925S127.127,308.558,121.115,308.558z"/>
	<path style="fill:#194F82;" d="M198.044,308.687h-0.065l-14.998,0.065c-6.012,0.065-10.925,4.913-10.796,10.99
		c0.065,6.012,4.913,10.796,10.925,10.796h0.065l14.998-0.065c6.012-0.065,10.925-4.978,10.796-10.99
		C208.905,313.471,204.057,308.687,198.044,308.687z"/>
	<path style="fill:#194F82;" d="M265.665,308.687H265.6l-14.998,0.065c-6.012,0.065-10.925,4.913-10.796,10.99
		c0.065,6.012,4.913,10.796,10.925,10.796h0.065l14.998-0.065c6.012-0.065,10.925-4.978,10.796-10.99
		C276.525,313.471,271.612,308.687,265.665,308.687z"/>
	<path style="fill:#194F82;" d="M333.285,308.687h-0.065l-14.998,0.065c-6.012,0.065-10.925,4.913-10.796,10.99
		c0.065,6.012,4.913,10.796,10.925,10.796h0.065l14.998-0.065c6.012-0.065,10.925-4.978,10.796-10.99
		C344.21,313.471,339.362,308.687,333.285,308.687z"/>
	<path style="fill:#194F82;" d="M110.061,138.214h56.113c6.012,0,10.925-4.848,10.925-10.925c0-6.012-4.848-10.925-10.925-10.925
		h-29.737l51.006-51.006c4.267-4.267,4.267-11.119,0-15.451c-4.267-4.267-11.119-4.267-15.451,0l-51.006,51.006V71.176
		c0-6.012-4.848-10.925-10.925-10.925s-10.925,4.848-10.925,10.925v56.113C99.135,133.366,104.113,138.214,110.061,138.214z"/>
	<path style="fill:#194F82;" d="M220.671,204.671l51.006-51.006v29.737c0,6.012,4.849,10.925,10.925,10.925
		c6.012,0,10.925-4.848,10.925-10.925v-56.113c0-6.012-4.849-10.925-10.925-10.925h-56.113c-6.012,0-10.925,4.848-10.925,10.925
		c0,6.012,4.848,10.925,10.925,10.925h29.737l-51.071,51.006c-4.267,4.267-4.267,11.119,0,15.451
		C209.422,208.937,216.339,208.937,220.671,204.671z"/>
</g>
</svg>