<?xml version="1.0" encoding="iso-8859-1"?>
<!-- Uploaded to: SVG Repo, www.svgrepo.com, Generator: SVG Repo Mixer Tools -->
<svg version="1.1" id="Layer_1" xmlns="http://www.w3.org/2000/svg" xmlns:xlink="http://www.w3.org/1999/xlink" 
	 viewBox="0 0 392.566 392.566" xml:space="preserve">
<path style="fill:#56ACE0;" d="M21.802,315.766c0,30.319,24.63,54.949,54.949,54.949h108.541V260.816H76.816
	C46.432,260.816,21.802,285.446,21.802,315.766z"/>
<g>
	<path style="fill:#FFC10D;" d="M315.814,260.816H207.208V370.78h108.541c30.319,0,54.95-24.63,54.95-54.949
		C370.699,285.511,346.133,260.816,315.814,260.816z"/>
	<path style="fill:#FFC10D;" d="M196.283,93.511c-7.887,0-14.352,6.4-14.352,14.352c0,7.887,6.4,14.352,14.352,14.352
		c7.952,0,14.352-6.4,14.352-14.352C210.634,100.04,204.17,93.511,196.283,93.511z"/>
</g>
<g>
	<path style="fill:#194F82;" d="M315.814,239.03H76.816c-42.343,0-76.8,34.457-76.8,76.735c0,42.343,34.457,76.8,76.8,76.8h238.998
		c42.343,0,76.735-34.457,76.735-76.8C392.549,273.487,358.093,239.03,315.814,239.03z M185.358,370.78H76.816
		c-30.319,0-54.949-24.63-54.949-54.949c0-30.319,24.63-54.949,54.949-54.949h108.541L185.358,370.78L185.358,370.78z
		 M315.814,370.78H207.208V260.816h108.541c30.319,0,54.95,24.63,54.95,54.95C370.699,346.085,346.133,370.78,315.814,370.78z"/>
	<path style="fill:#194F82;" d="M151.224,161.907c4.267-4.267,4.267-11.119,0-15.451c-21.269-21.269-21.269-55.855,0-77.188
		c4.267-4.267,4.267-11.119,0-15.451c-4.267-4.267-11.119-4.267-15.451,0c-29.737,29.737-29.737,78.222,0,108.024
		C140.493,166.238,146.893,165.98,151.224,161.907z"/>
	<path style="fill:#194F82;" d="M89.616,187.507c3.62,4.202,11.895,4.331,15.451,0c4.267-4.267,4.267-11.119,0-15.451
		c-35.362-35.362-35.362-93.026,0-128.453c4.267-4.267,4.267-11.119,0-15.451c-4.267-4.267-11.119-4.267-15.451,0
		C45.786,72.178,45.786,143.612,89.616,187.507z"/>
	<path style="fill:#194F82;" d="M58.844,212.59c4.267-4.267,4.267-11.119,0-15.451c-49.196-49.196-49.196-129.293,0-178.489
		c4.267-4.267,4.267-11.119,0-15.451c-4.267-4.267-11.119-4.267-15.451,0c-57.729,57.729-57.729,151.596,0,209.325
		C46.82,216.598,54.772,216.792,58.844,212.59z"/>
	<path style="fill:#194F82;" d="M241.341,161.907c4.267,4.073,10.731,4.396,15.451,0c29.737-29.737,29.737-78.222,0-108.024
		c-4.267-4.267-11.119-4.267-15.451,0c-4.267,4.267-4.267,11.119,0,15.451c21.269,21.269,21.269,55.855,0,77.188
		C237.075,150.723,237.075,157.64,241.341,161.907z"/>
	<path style="fill:#194F82;" d="M287.564,187.507c3.556,4.331,11.83,4.202,15.451,0c43.895-43.895,43.895-115.394,0-159.289
		c-4.267-4.267-11.119-4.267-15.451,0c-4.267,4.267-4.267,11.119,0,15.451c35.362,35.362,35.362,93.026,0,128.453
		C283.297,176.388,283.297,183.24,287.564,187.507z"/>
	<path style="fill:#194F82;" d="M333.721,197.139c-4.267,4.267-4.267,11.119,0,15.451c4.008,4.267,11.96,4.008,15.451,0
		c57.729-57.729,57.729-151.596,0-209.325c-4.267-4.267-11.119-4.267-15.451,0c-4.267,4.267-4.267,11.119,0,15.451
		C382.982,67.846,382.982,147.943,333.721,197.139z"/>
	<path style="fill:#194F82;" d="M196.283,144.065c19.911,0,36.137-16.226,36.137-36.137S216.194,71.79,196.283,71.79
		s-36.137,16.226-36.137,36.137S176.372,144.065,196.283,144.065z M196.283,93.511c7.952,0,14.352,6.4,14.352,14.352
		c0,7.887-6.465,14.352-14.352,14.352s-14.352-6.4-14.352-14.352C181.931,100.04,188.331,93.511,196.283,93.511z"/>
	<polygon style="fill:#194F82;" points="61.43,284.865 45.139,284.865 68.606,352.291 79.855,352.291 94.529,305.422 
		109.269,352.291 120.452,352.291 144.048,284.865 127.758,284.865 114.311,323.653 102.481,284.865 86.707,284.865 74.747,323.653 
			"/>
	<rect x="150.642" y="300.38" style="fill:#194F82;" width="14.481" height="51.911"/>
	<polygon style="fill:#194F82;" points="238.885,352.291 253.947,352.291 253.947,325.915 283.685,325.915 283.685,312.663 
		253.947,312.663 253.947,298.053 285.236,298.053 285.236,284.865 238.885,284.865 	"/>
	<rect x="296.485" y="300.38" style="fill:#194F82;" width="14.481" height="51.911"/>
	<circle style="fill:#194F82;" cx="157.883" cy="287.968" r="8.663"/>
	<circle style="fill:#194F82;" cx="303.661" cy="287.968" r="8.663"/>
</g>
</svg>