<?xml version="1.0" encoding="iso-8859-1"?>
<!-- Uploaded to: SVG Repo, www.svgrepo.com, Generator: SVG Repo Mixer Tools -->
<svg version="1.1" id="Layer_1" xmlns="http://www.w3.org/2000/svg" xmlns:xlink="http://www.w3.org/1999/xlink" 
	 viewBox="0 0 512 512" xml:space="preserve">
<path style="fill:#FF8C00;" d="M431.81,51.462H80.189c-7.639,0-13.831,6.193-13.831,13.831v432.875
	c0,7.639,6.193,13.831,13.831,13.831h351.621c7.639,0,13.831-6.193,13.831-13.831V65.293
	C445.641,57.655,439.448,51.462,431.81,51.462z"/>
<rect x="108.915" y="97.717" style="fill:#FFFFFF;" width="294.169" height="371.722"/>
<path style="fill:#4C5870;" d="M312.824,87.679c0-8.887,0-19.475,0-30.855C312.824,25.441,287.383,0,255.999,0
	s-56.825,25.441-56.825,56.825c0,11.379,0,21.967,0,30.855c-25.855,0-46.814,20.959-46.814,46.814h207.277
	C359.638,108.639,338.679,87.679,312.824,87.679z"/>
<circle style="fill:#181818;" cx="255.999" cy="56.825" r="18.199"/>
</svg>