<?xml version="1.0" encoding="iso-8859-1"?>
<!-- Uploaded to: SVG Repo, www.svgrepo.com, Generator: SVG Repo Mixer Tools -->
<svg version="1.1" id="Layer_1" xmlns="http://www.w3.org/2000/svg" xmlns:xlink="http://www.w3.org/1999/xlink" 
	 viewBox="0 0 512 512" xml:space="preserve">
<rect x="3" y="64.08" style="fill:#FFFFFF;" width="506" height="383.904"/>
<g>
	<path style="fill:#CCCCCC;" d="M506,67.048v377.904H6V67.048H506 M512,61.048H0v389.904h512V61.048z"/>
	<rect x="3" y="127.848" style="fill:#CCCCCC;" width="505.84" height="6"/>
</g>
<circle cx="48.08" cy="98.504" r="12.584"/>
<circle style="fill:#E21B1B;" cx="89.312" cy="98.504" r="12.584"/>
<circle style="fill:#999999;" cx="130.568" cy="98.504" r="12.584"/>
<path style="fill:#E21B1B;" d="M434.64,356.992H232.472c-7.72-0.024-13.968-6.272-13.992-13.992V232.896
	c0.024-7.72,6.272-13.968,13.992-13.992h202.176c7.72,0.024,13.968,6.272,13.992,13.992v110.112
	C448.608,350.72,442.352,356.968,434.64,356.992z"/>
<path d="M81.488,321.168v-23.88L63.36,263.832h11.92l6.888,14.688c1.976,4.264,3.416,7.504,4.96,11.408h0.152
	c1.464-3.648,3.056-7.248,5.032-11.408l6.888-14.688h11.816l-19.064,33.184v24.144L81.488,321.168L81.488,321.168z"/>
<path d="M148.384,300.056c0.856,11.288-7.6,21.144-18.896,22c-0.792,0.056-1.584,0.072-2.368,0.04
	c-11.04,0.424-20.328-8.184-20.752-19.224c-0.024-0.688-0.016-1.384,0.032-2.072c-0.856-11.264,7.576-21.096,18.84-21.952
	c0.864-0.064,1.736-0.08,2.608-0.032c10.976-0.392,20.184,8.192,20.568,19.168C148.44,298.672,148.432,299.368,148.384,300.056z
	 M117.184,300.52c0,8,3.904,14.032,10.28,14.032c5.96,0,10.144-5.856,10.144-14.232c0-6.472-2.904-13.872-10.04-13.872
	c-7.416-0.048-10.4,7.152-10.4,14.072H117.184z"/>
<path d="M194.08,308.736c0,4.936,0.176,9.048,0.336,12.432h-9.2l-0.512-6.312h-0.16c-2.8,4.632-7.872,7.4-13.28,7.248
	c-7.576,0-14.464-4.52-14.464-18.032v-24.36h10.456v22.552c0,6.888,2.24,11.36,7.752,11.36c4.8-0.144,8.608-4.088,8.584-8.888
	V279.72h10.48v29.016L194.08,308.736L194.08,308.736z"/>
<path d="M434.64,356.992H232.472c-7.72-0.024-13.968-6.272-13.992-13.992V232.896c0.024-7.72,6.272-13.968,13.992-13.992h202.176
	c7.72,0.024,13.968,6.272,13.992,13.992v110.112C448.608,350.72,442.352,356.968,434.64,356.992z"/>
<g>
	<g>
		<path style="opacity:0.2;fill:#FFFFFF;enable-background:new    ;" d="M218.472,236.624v94.4c0.024,1.76,0.32,3.496,0.864,5.168
			l139.32-117.296H218.56"/>
	</g>
</g>
<g>
	<path style="fill:#FFFFFF;" d="M260.688,272.568h-16.336v-8.736h43.336v8.736H271.2v48.6h-10.512L260.688,272.568L260.688,272.568z
		"/>
	<path style="fill:#FFFFFF;" d="M326.824,308.736c0,4.936,0.176,9.048,0.336,12.432h-9.2l-0.512-6.312h-0.152
		c-2.8,4.632-7.872,7.4-13.28,7.248c-7.576,0-14.464-4.52-14.464-18.032v-24.36H300v22.552c0,6.888,2.24,11.36,7.752,11.36
		c4.8-0.144,8.608-4.088,8.584-8.888V279.72h10.48L326.824,308.736z"/>
	<path style="fill:#FFFFFF;" d="M337.8,321.168c0.176-2.824,0.36-7.392,0.36-11.656V260.76h10.456v24.656h0.184
		c2.952-4.376,7.984-6.896,13.256-6.624c10.144,0,17.36,8.424,17.288,21.016c1.36,10.88-6.352,20.8-17.224,22.16
		c-0.52,0.064-1.048,0.112-1.576,0.136c-5.36,0.272-10.424-2.488-13.096-7.144h-0.176l-0.512,6.216L337.8,321.168z M348.616,304.056
		c-0.008,0.832,0.072,1.656,0.256,2.464c1.056,4.272,4.872,7.288,9.272,7.344c6.552,0,10.56-5.296,10.56-13.6
		c0-7.344-3.496-13.312-10.48-13.312c-4.472,0.152-8.28,3.296-9.272,7.656c-0.2,0.896-0.312,1.808-0.336,2.72V304.056
		L348.616,304.056z"/>
	<path style="fill:#FFFFFF;" d="M395.336,303.392c0.224,6.216,5.448,11.064,11.664,10.832c0.384-0.016,0.76-0.048,1.136-0.096
		c3.912,0.088,7.808-0.56,11.48-1.904l1.544,7.248c-4.624,1.76-9.544,2.632-14.488,2.568c-10.792,0.984-20.336-6.96-21.32-17.744
		c-0.096-1.072-0.104-2.144-0.032-3.216c-0.976-11.296,7.4-21.248,18.696-22.224c0.512-0.048,1.024-0.072,1.544-0.072
		c9.96,0.016,18.024,8.104,18.008,18.072c0,0.712-0.048,1.416-0.128,2.12c0.008,1.48-0.104,2.96-0.336,4.424L395.336,303.392
		L395.336,303.392z M413.544,296.048c0.664-4.88-2.752-9.376-7.632-10.04c-0.32-0.04-0.64-0.072-0.968-0.08
		c-5.36,0.328-9.552,4.752-9.6,10.12H413.544z"/>
</g>
</svg>